<svg width="296" height="153" viewBox="0 0 296 153" fill="none" xmlns="http://www.w3.org/2000/svg">
<g filter="url(#filter0_d)">
<rect x="13" y="8" width="270" height="127.522" rx="6.29738" fill="white"/>
<path d="M31.719 36.3581C33.3248 36.3581 34.8204 35.6811 35.7335 34.5634C35.9697 34.28 36.0641 34.0281 36.0641 33.7762C36.0641 33.2567 35.6391 32.8158 35.0881 32.8158C34.7732 32.8158 34.5055 32.9575 34.2536 33.2252C33.5609 34.0123 32.7265 34.3902 31.7347 34.3902C29.7825 34.3902 28.3813 32.9733 28.3813 30.9896C28.3813 28.9902 29.7825 27.5575 31.7347 27.5575C32.7423 27.5575 33.5924 27.9354 34.2694 28.7225C34.5055 28.9902 34.7889 29.1319 35.0881 29.1319C35.6391 29.1319 36.0799 28.6911 36.0799 28.1715C36.0799 27.8881 35.9697 27.6362 35.7493 27.3843C34.8204 26.2666 33.3248 25.5896 31.7347 25.5896C28.6175 25.5896 26.193 27.9511 26.193 30.9739C26.193 33.9966 28.6018 36.3581 31.719 36.3581ZM39.1298 28.203C38.5001 28.203 38.0593 28.6596 38.0593 29.2736V35.0829C38.0593 35.7126 38.5158 36.1692 39.1456 36.1692H41.7117C43.5852 36.1692 44.9864 35.0986 44.9864 33.2567C44.9864 31.4304 43.5852 30.3599 41.7117 30.3599H40.1846V29.2736C40.1846 28.6596 39.7281 28.203 39.1298 28.203ZM47.4266 36.3581C48.0406 36.3581 48.4972 35.8858 48.4972 35.2718V29.2736C48.4972 28.6596 48.0406 28.203 47.4423 28.203C46.8284 28.203 46.3718 28.6596 46.3718 29.2736V35.2718C46.3718 35.8858 46.8284 36.3581 47.4266 36.3581ZM41.5543 32.1704C42.2942 32.1704 42.8295 32.5797 42.8295 33.2881C42.8295 33.9966 42.2942 34.3744 41.57 34.3744H40.1846V32.1704H41.5543ZM57.0365 28.203C56.4225 28.203 55.9817 28.6596 55.9817 29.2736V31.2257L53.0377 31.2257V29.2736C53.0377 28.6596 52.5811 28.203 51.9829 28.203C51.3689 28.203 50.9123 28.6596 50.9123 29.2736V35.2718C50.9123 35.8858 51.3689 36.3424 51.9829 36.3424C52.5811 36.3424 53.0377 35.8858 53.0377 35.2718V33.0362L55.9817 33.0362V35.2718C55.9817 35.8858 56.4382 36.3424 57.0365 36.3424C57.6348 36.3424 58.0913 35.8858 58.0913 35.2718V29.2736C58.0913 28.6596 57.6348 28.203 57.0365 28.203ZM64.0047 28.203C61.6589 28.203 59.8327 29.982 59.8327 32.2648C59.8327 34.5476 61.6589 36.3424 63.989 36.3424C66.3347 36.3424 68.1925 34.5319 68.1925 32.2648C68.1925 29.9978 66.3347 28.203 64.0047 28.203ZM64.0047 30.1395C65.154 30.1395 66.0199 31.0526 66.0199 32.2806C66.0199 33.4928 65.154 34.3902 64.0047 34.3902C62.8397 34.3902 61.9895 33.5085 61.9895 32.2806C61.9895 31.0368 62.8397 30.1395 64.0047 30.1395ZM76.8419 34.7208L74.6535 31.9814L76.6372 29.8876C76.8419 29.6829 76.9521 29.4153 76.9521 29.1634C76.9521 28.6281 76.527 28.2188 75.976 28.203C75.6926 28.1873 75.4407 28.3132 75.2518 28.5179L72.7801 31.1785C72.5124 31.4776 72.4022 31.7138 72.4022 31.9657C72.4022 32.2018 72.4967 32.438 72.7171 32.7214L75.3777 36.0118C75.5509 36.2479 75.8028 36.3581 76.1177 36.3581C76.6687 36.3581 77.0938 35.9173 77.0938 35.382C77.0938 35.1459 77.0151 34.9412 76.8419 34.7208ZM71.0011 28.203C70.3871 28.203 69.9305 28.6596 69.9305 29.2736V35.2718C69.9305 35.8858 70.3871 36.3581 71.0011 36.3581C71.5993 36.3581 72.0559 35.8858 72.0559 35.2718V29.2736C72.0559 28.6596 71.6151 28.203 71.0011 28.203Z" fill="#363636"/>
<rect x="25.5947" y="53.656" width="244.811" height="31.4869" rx="15.7434" fill="#23AEA3"/>
<path d="M92.2192 65.064C89.7506 65.064 87.811 66.9532 87.811 69.3714C87.811 71.7896 89.738 73.6788 92.2192 73.6788C94.7003 73.6788 96.6525 71.777 96.6525 69.3714C96.6525 66.9658 94.7003 65.064 92.2192 65.064ZM92.2318 66.6384C93.7809 66.6384 94.9019 67.7845 94.9019 69.3714C94.9019 70.9584 93.7809 72.1045 92.2318 72.1045C90.67 72.1045 89.5617 70.971 89.5617 69.3714C89.5617 67.7719 90.67 66.6384 92.2318 66.6384ZM100.082 73.6788C100.574 73.6788 100.926 73.301 100.926 72.8098V68.7165H102.274C102.702 68.7165 103.004 68.4142 103.004 67.9986C103.004 67.5956 102.702 67.2807 102.274 67.2807H97.9034C97.4878 67.2807 97.1729 67.5956 97.1729 67.9986C97.1729 68.4142 97.4878 68.7165 97.9034 68.7165H99.2385V72.8098C99.2385 73.301 99.6037 73.6788 100.082 73.6788ZM104.802 73.6788C105.281 73.6788 105.646 73.301 105.646 72.8098V70.3538L106.918 71.966C107.044 72.1045 107.233 72.1801 107.435 72.1801C107.636 72.1801 107.825 72.1045 107.951 71.966L109.223 70.3538V72.8098C109.223 73.301 109.588 73.6788 110.067 73.6788C110.558 73.6788 110.923 73.301 110.923 72.8098V68.0112C110.923 67.5326 110.558 67.1548 110.067 67.1548C109.777 67.1548 109.538 67.3059 109.374 67.5074L107.435 70.0516L105.495 67.5074C105.331 67.3059 105.092 67.1548 104.802 67.1548C104.311 67.1548 103.946 67.5326 103.946 68.0112V72.8098C103.946 73.301 104.311 73.6788 104.802 73.6788ZM115.561 67.1548C113.722 67.1548 112.324 68.5654 112.324 70.4168C112.324 72.2808 113.773 73.6788 115.738 73.6788C116.468 73.6788 117.148 73.4773 117.715 73.0995C118.017 72.898 118.143 72.6965 118.143 72.4194C118.143 72.0289 117.841 71.7393 117.45 71.7393C117.324 71.7393 117.211 71.777 117.085 71.8526C116.707 72.0919 116.241 72.2179 115.788 72.2179C114.868 72.2179 114.239 71.7644 114.037 70.9836H117.589C118.143 70.9836 118.521 70.6435 118.521 70.1145V70.0767C118.521 68.3891 117.261 67.1548 115.561 67.1548ZM115.523 68.5276C116.317 68.5276 116.846 69.044 116.871 69.7871H114.037C114.226 69.0188 114.78 68.5276 115.523 68.5276ZM121.939 73.6788C122.43 73.6788 122.783 73.301 122.783 72.8098V68.7165H124.13C124.558 68.7165 124.861 68.4142 124.861 67.9986C124.861 67.5956 124.558 67.2807 124.13 67.2807H119.76C119.344 67.2807 119.029 67.5956 119.029 67.9986C119.029 68.4142 119.344 68.7165 119.76 68.7165H121.095V72.8098C121.095 73.301 121.46 73.6788 121.939 73.6788ZM130.815 67.1548C130.525 67.1548 130.298 67.2807 130.059 67.5704L127.502 70.7821V68.0112C127.502 67.52 127.137 67.1548 126.659 67.1548C126.167 67.1548 125.802 67.52 125.802 68.0112V72.8098C125.802 73.301 126.167 73.6788 126.646 73.6788C126.936 73.6788 127.162 73.5529 127.402 73.2632L129.971 70.0767V72.8098C129.971 73.301 130.336 73.6788 130.815 73.6788C131.293 73.6788 131.659 73.301 131.659 72.8098V68.0112C131.659 67.52 131.293 67.1548 130.815 67.1548ZM135.517 73.6788C136.009 73.6788 136.361 73.301 136.361 72.8098V68.7165H137.709C138.137 68.7165 138.439 68.4142 138.439 67.9986C138.439 67.5956 138.137 67.2807 137.709 67.2807H133.338C132.923 67.2807 132.608 67.5956 132.608 67.9986C132.608 68.4142 132.923 68.7165 133.338 68.7165H134.674V72.8098C134.674 73.301 135.039 73.6788 135.517 73.6788ZM140.237 67.1548C139.733 67.1548 139.381 67.52 139.381 68.0112V72.6587C139.381 73.1625 139.746 73.5277 140.25 73.5277H142.303C143.802 73.5277 144.923 72.6713 144.923 71.1977C144.923 69.7367 143.802 68.8802 142.303 68.8802H141.081V68.0112C141.081 67.52 140.716 67.1548 140.237 67.1548ZM142.177 70.3286C142.769 70.3286 143.197 70.6561 143.197 71.2229C143.197 71.7896 142.769 72.0919 142.189 72.0919H141.081V70.3286H142.177ZM150.716 73.6788C151.207 73.6788 151.573 73.3136 151.573 72.8224V68.7291H153.827V72.8224C153.827 73.3136 154.192 73.6788 154.671 73.6788C155.162 73.6788 155.527 73.3136 155.527 72.8224V68.1498C155.527 67.6586 155.162 67.2933 154.671 67.2933H150.729C150.238 67.2933 149.872 67.6586 149.872 68.1498V72.8224C149.872 73.3136 150.238 73.6788 150.716 73.6788ZM160.902 67.1548C160.096 67.1548 159.429 67.4444 159.001 67.9482C158.975 67.4822 158.635 67.1422 158.182 67.1422C157.703 67.1422 157.338 67.5074 157.338 67.986V75.0895C157.338 75.5807 157.703 75.9459 158.195 75.9459C158.673 75.9459 159.038 75.5807 159.038 75.0895V72.9232C159.467 73.4018 160.122 73.6788 160.902 73.6788C162.653 73.6788 163.925 72.2934 163.925 70.4042C163.925 68.515 162.653 67.1548 160.902 67.1548ZM160.588 72.1297C159.656 72.1297 159.013 71.4244 159.013 70.4042C159.013 69.384 159.643 68.6913 160.588 68.6913C161.532 68.6913 162.2 69.4092 162.2 70.4168C162.2 71.4118 161.52 72.1297 160.588 72.1297ZM170.333 67.1548C170.044 67.1548 169.817 67.2807 169.578 67.5704L167.021 70.7821V68.0112C167.021 67.52 166.656 67.1548 166.177 67.1548C165.686 67.1548 165.321 67.52 165.321 68.0112V72.8098C165.321 73.301 165.686 73.6788 166.164 73.6788C166.454 73.6788 166.681 73.5529 166.92 73.2632L169.489 70.0767V72.8098C169.489 73.301 169.855 73.6788 170.333 73.6788C170.812 73.6788 171.177 73.301 171.177 72.8098V68.0112C171.177 67.52 170.812 67.1548 170.333 67.1548ZM177.656 70.2027C177.983 69.9004 178.159 69.4974 178.159 69.0314C178.159 67.986 177.278 67.2933 175.943 67.2933H173.865C173.361 67.2933 172.996 67.6711 172.996 68.1623V72.6587C172.996 73.1625 173.361 73.5277 173.865 73.5277H176.371C177.668 73.5277 178.588 72.7468 178.588 71.6385C178.588 70.9962 178.26 70.4924 177.656 70.2027ZM174.62 68.6535H175.905C176.358 68.6535 176.585 68.8299 176.585 69.1699C176.585 69.5226 176.333 69.7115 175.905 69.7115H174.62V68.6535ZM176.232 72.1549H174.62V70.908H176.232C176.724 70.908 177.026 71.1347 177.026 71.5125C177.026 71.903 176.724 72.1549 176.232 72.1549ZM184.994 67.1548C184.705 67.1548 184.478 67.2807 184.239 67.5704L181.682 70.7821V68.0112C181.682 67.52 181.317 67.1548 180.838 67.1548C180.347 67.1548 179.982 67.52 179.982 68.0112V72.8098C179.982 73.301 180.347 73.6788 180.826 73.6788C181.115 73.6788 181.342 73.5529 181.581 73.2632L184.151 70.0767V72.8098C184.151 73.301 184.516 73.6788 184.994 73.6788C185.473 73.6788 185.838 73.301 185.838 72.8098V68.0112C185.838 67.52 185.473 67.1548 184.994 67.1548ZM192.317 70.2027C192.644 69.9004 192.82 69.4974 192.82 69.0314C192.82 67.986 191.939 67.2933 190.604 67.2933H188.526C188.022 67.2933 187.657 67.6711 187.657 68.1623V72.6587C187.657 73.1625 188.022 73.5277 188.526 73.5277H191.032C192.329 73.5277 193.249 72.7468 193.249 71.6385C193.249 70.9962 192.921 70.4924 192.317 70.2027ZM189.281 68.6535H190.566C191.019 68.6535 191.246 68.8299 191.246 69.1699C191.246 69.5226 190.994 69.7115 190.566 69.7115H189.281V68.6535ZM190.893 72.1549H189.281V70.908H190.893C191.385 70.908 191.687 71.1347 191.687 71.5125C191.687 71.903 191.385 72.1549 190.893 72.1549ZM200.172 72.369L198.421 70.1775L200.008 68.5024C200.172 68.3387 200.26 68.1246 200.26 67.923C200.26 67.4948 199.92 67.1674 199.479 67.1548C199.252 67.1422 199.051 67.2429 198.9 67.4067L196.922 69.5352C196.708 69.7745 196.62 69.9634 196.62 70.1649C196.62 70.3538 196.696 70.5428 196.872 70.7695L199.001 73.4018C199.139 73.5907 199.341 73.6788 199.592 73.6788C200.033 73.6788 200.373 73.3262 200.373 72.898C200.373 72.7091 200.31 72.5453 200.172 72.369ZM195.499 67.1548C195.008 67.1548 194.643 67.52 194.643 68.0112V72.8098C194.643 73.301 195.008 73.6788 195.499 73.6788C195.978 73.6788 196.343 73.301 196.343 72.8098V68.0112C196.343 67.52 195.99 67.1548 195.499 67.1548ZM206.802 67.1548C206.462 67.1548 206.173 67.3437 206.047 67.6334L204.359 71.3236L202.709 67.6334C202.583 67.3311 202.293 67.1548 201.966 67.1548C201.513 67.1548 201.135 67.5326 201.135 67.9734C201.135 68.0994 201.173 68.2253 201.248 68.3765L203.402 73.1247L203.175 73.6285C202.898 74.1952 202.533 74.4219 201.991 74.4219C201.953 74.4219 201.903 74.4093 201.84 74.4093C201.412 74.4093 201.072 74.7242 201.072 75.1398C201.072 75.4295 201.236 75.694 201.5 75.8074C201.689 75.8955 201.941 75.9459 202.218 75.9459C203.351 75.9459 204.107 75.3665 204.775 73.9937L207.52 68.3639C207.596 68.2253 207.621 68.0994 207.621 67.9734C207.621 67.5326 207.243 67.1548 206.802 67.1548Z" fill="white"/>
<path d="M166.524 117.812C167.034 117.812 167.423 117.409 167.423 116.872V113.825H171.343V116.872C171.343 117.409 171.732 117.812 172.256 117.812C172.766 117.812 173.155 117.409 173.155 116.872V109.556C173.155 109.019 172.779 108.63 172.256 108.63C171.719 108.63 171.343 109.019 171.343 109.556V112.187H167.423V109.57C167.423 109.033 167.048 108.63 166.524 108.63C165.987 108.63 165.611 109.033 165.611 109.57V116.872C165.611 117.409 166.001 117.812 166.524 117.812ZM177.693 110.858C176.726 110.858 175.854 111.154 175.29 111.677C175.048 111.905 174.914 112.147 174.914 112.402C174.914 112.805 175.25 113.14 175.693 113.14C175.867 113.14 176.015 113.087 176.23 112.925C176.619 112.59 177.035 112.429 177.505 112.429C178.31 112.429 178.753 112.858 178.753 113.597V113.892H177.089C175.532 113.892 174.579 114.63 174.579 115.825C174.579 117.006 175.505 117.812 176.874 117.812C177.666 117.812 178.337 117.557 178.82 117.1C178.901 117.503 179.25 117.798 179.693 117.798C180.19 117.798 180.565 117.422 180.565 116.899V113.704C180.565 111.892 179.518 110.858 177.693 110.858ZM177.357 116.483C176.767 116.483 176.404 116.201 176.404 115.758C176.404 115.315 176.726 115.087 177.33 115.087H178.753V115.167C178.753 115.919 178.149 116.483 177.357 116.483ZM183.276 117.812C183.799 117.812 184.189 117.422 184.189 116.899V112.536H186.591V116.899C186.591 117.422 186.981 117.812 187.491 117.812C188.014 117.812 188.404 117.422 188.404 116.899V111.919C188.404 111.395 188.014 111.006 187.491 111.006H183.289C182.766 111.006 182.376 111.395 182.376 111.919V116.899C182.376 117.422 182.766 117.812 183.276 117.812ZM193.448 110.858C191.448 110.858 189.891 112.375 189.891 114.322C189.891 116.268 191.448 117.798 193.434 117.798C195.434 117.798 197.018 116.254 197.018 114.322C197.018 112.389 195.434 110.858 193.448 110.858ZM193.448 112.509C194.428 112.509 195.166 113.288 195.166 114.335C195.166 115.369 194.428 116.134 193.448 116.134C192.454 116.134 191.73 115.382 191.73 114.335C191.73 113.274 192.454 112.509 193.448 112.509ZM199.413 117.812C199.923 117.812 200.312 117.409 200.312 116.885V114.268L201.668 115.986C201.802 116.134 202.004 116.214 202.218 116.214C202.433 116.214 202.635 116.134 202.769 115.986L204.125 114.268V116.885C204.125 117.409 204.514 117.812 205.024 117.812C205.547 117.812 205.937 117.409 205.937 116.885V111.771C205.937 111.261 205.547 110.858 205.024 110.858C204.715 110.858 204.46 111.019 204.286 111.234L202.218 113.946L200.151 111.234C199.977 111.019 199.722 110.858 199.413 110.858C198.89 110.858 198.5 111.261 198.5 111.771V116.885C198.5 117.409 198.89 117.812 199.413 117.812ZM213.095 110.858C212.571 110.858 212.195 111.248 212.195 111.771V113.436H209.685V111.771C209.685 111.248 209.296 110.858 208.786 110.858C208.262 110.858 207.873 111.248 207.873 111.771V116.885C207.873 117.409 208.262 117.798 208.786 117.798C209.296 117.798 209.685 117.409 209.685 116.885V114.979H212.195V116.885C212.195 117.409 212.585 117.798 213.095 117.798C213.605 117.798 213.994 117.409 213.994 116.885V111.771C213.994 111.248 213.605 110.858 213.095 110.858ZM221.264 110.858C220.956 110.858 220.714 110.993 220.459 111.301L217.734 114.724V111.771C217.734 111.248 217.345 110.858 216.835 110.858C216.311 110.858 215.922 111.248 215.922 111.771V116.885C215.922 117.409 216.311 117.812 216.821 117.812C217.13 117.812 217.371 117.677 217.627 117.369L220.365 113.973V116.885C220.365 117.409 220.754 117.812 221.264 117.812C221.774 117.812 222.164 117.409 222.164 116.885V111.771C222.164 111.248 221.774 110.858 221.264 110.858ZM226.276 117.812C226.8 117.812 227.176 117.409 227.176 116.885V112.523H228.612C229.068 112.523 229.39 112.201 229.39 111.758C229.39 111.328 229.068 110.993 228.612 110.993H223.954C223.511 110.993 223.175 111.328 223.175 111.758C223.175 112.201 223.511 112.523 223.954 112.523H225.377V116.885C225.377 117.409 225.766 117.812 226.276 117.812ZM231.307 110.858C230.77 110.858 230.394 111.248 230.394 111.771V116.724C230.394 117.261 230.783 117.651 231.32 117.651H233.508C235.105 117.651 236.3 116.738 236.3 115.167C236.3 113.61 235.105 112.697 233.508 112.697H232.206V111.771C232.206 111.248 231.817 110.858 231.307 110.858ZM233.374 114.241C234.005 114.241 234.461 114.59 234.461 115.194C234.461 115.798 234.005 116.12 233.387 116.12H232.206V114.241H233.374Z" fill="#23AEA3"/>
<path d="M259.515 120.432C259.578 120.675 259.611 120.931 259.611 121.195C259.611 122.879 258.245 124.246 256.56 124.246C254.875 124.246 253.51 122.879 253.51 121.195C253.51 120.931 253.542 120.675 253.605 120.431" stroke="#23AEA3" stroke-width="2.23723" stroke-linecap="round" stroke-linejoin="round"/>
<path d="M265.929 101.871C267.076 103.629 267.744 105.724 267.744 107.975V111.026" stroke="#23AEA3" stroke-width="2.23723" stroke-linecap="round" stroke-linejoin="round"/>
<path d="M245.373 111.026V107.975C245.373 105.726 246.04 103.63 247.187 101.873" stroke="#23AEA3" stroke-width="2.23723" stroke-linecap="round" stroke-linejoin="round"/>
<path fill-rule="evenodd" clip-rule="evenodd" d="M266.726 120.179H246.387L250.455 113.06V107.975C250.455 104.605 253.187 101.874 256.557 101.874C259.926 101.874 262.658 104.605 262.658 107.975V113.06L266.726 120.179Z" stroke="#23AEA3" stroke-width="2.23723" stroke-linecap="round" stroke-linejoin="round"/>
<path d="M27.1054 116.084C27.4644 116.084 27.7383 115.801 27.7383 115.423V113.279H30.4966V115.423C30.4966 115.801 30.7705 116.084 31.1389 116.084C31.4978 116.084 31.7718 115.801 31.7718 115.423V110.275C31.7718 109.897 31.5073 109.623 31.1389 109.623C30.7611 109.623 30.4966 109.897 30.4966 110.275V112.126H27.7383V110.284C27.7383 109.907 27.4738 109.623 27.1054 109.623C26.7276 109.623 26.4631 109.907 26.4631 110.284V115.423C26.4631 115.801 26.737 116.084 27.1054 116.084ZM35.2293 111.191C33.8502 111.191 32.8017 112.249 32.8017 113.638C32.8017 115.036 33.888 116.084 35.3616 116.084C35.9095 116.084 36.4195 115.933 36.8446 115.65C37.0713 115.499 37.1658 115.348 37.1658 115.14C37.1658 114.847 36.9391 114.63 36.6462 114.63C36.5518 114.63 36.4668 114.658 36.3723 114.715C36.0889 114.894 35.7394 114.989 35.3994 114.989C34.7098 114.989 34.2375 114.648 34.0864 114.063H36.7502C37.1658 114.063 37.4492 113.808 37.4492 113.411V113.383C37.4492 112.117 36.5046 111.191 35.2293 111.191ZM35.201 112.221C35.7961 112.221 36.1928 112.608 36.2117 113.165H34.0864C34.2281 112.589 34.6437 112.221 35.201 112.221ZM41.7718 116.084C42.1402 116.084 42.4141 115.81 42.4141 115.442V112.372H44.1049V115.442C44.1049 115.81 44.3789 116.084 44.7378 116.084C45.1062 116.084 45.3802 115.81 45.3802 115.442V111.937C45.3802 111.569 45.1062 111.295 44.7378 111.295H41.7812C41.4128 111.295 41.1389 111.569 41.1389 111.937V115.442C41.1389 115.81 41.4128 116.084 41.7718 116.084ZM49.4115 111.191C48.8069 111.191 48.3063 111.408 47.9851 111.786C47.9662 111.437 47.7112 111.182 47.3711 111.182C47.0122 111.182 46.7383 111.456 46.7383 111.815V117.142C46.7383 117.511 47.0122 117.785 47.3806 117.785C47.7395 117.785 48.0135 117.511 48.0135 117.142V115.518C48.3346 115.876 48.8258 116.084 49.4115 116.084C50.7245 116.084 51.6786 115.045 51.6786 113.628C51.6786 112.211 50.7245 111.191 49.4115 111.191ZM49.1753 114.922C48.4763 114.922 47.9946 114.393 47.9946 113.628C47.9946 112.863 48.4669 112.344 49.1753 112.344C49.8838 112.344 50.3844 112.882 50.3844 113.638C50.3844 114.384 49.8744 114.922 49.1753 114.922ZM54.9166 111.191C53.5091 111.191 52.4133 112.259 52.4133 113.628C52.4133 114.998 53.5091 116.075 54.9071 116.075C56.3146 116.075 57.4292 114.989 57.4292 113.628C57.4292 112.268 56.3146 111.191 54.9166 111.191ZM54.9166 112.353C55.6061 112.353 56.1257 112.901 56.1257 113.638C56.1257 114.365 55.6061 114.904 54.9166 114.904C54.2175 114.904 53.7075 114.375 53.7075 113.638C53.7075 112.892 54.2175 112.353 54.9166 112.353ZM60.6635 116.084C61.4948 116.084 62.1749 115.725 62.5622 115.13C62.6378 115.017 62.6661 114.922 62.6661 114.809C62.6661 114.497 62.411 114.242 62.0993 114.242C61.9293 114.242 61.7971 114.29 61.6648 114.441C61.4098 114.724 61.0886 114.913 60.6824 114.913C59.9645 114.913 59.4544 114.384 59.4544 113.628C59.4544 112.882 59.9645 112.353 60.6824 112.353C61.098 112.353 61.4287 112.542 61.6648 112.825C61.7782 112.967 61.9199 113.024 62.0993 113.024C62.411 113.024 62.6661 112.769 62.6661 112.457C62.6661 112.353 62.6378 112.249 62.5527 112.117C62.1938 111.569 61.457 111.191 60.6635 111.191C59.2561 111.191 58.1603 112.259 58.1603 113.628C58.1603 114.998 59.2561 116.084 60.6635 116.084ZM65.2142 116.084C65.5826 116.084 65.8471 115.801 65.8471 115.433V112.363H66.8579C67.179 112.363 67.4057 112.136 67.4057 111.824C67.4057 111.522 67.179 111.286 66.8579 111.286H63.5801C63.2684 111.286 63.0322 111.522 63.0322 111.824C63.0322 112.136 63.2684 112.363 63.5801 112.363H64.5814V115.433C64.5814 115.801 64.8553 116.084 65.2142 116.084ZM69.9633 111.191C69.2831 111.191 68.6691 111.399 68.2724 111.767C68.1024 111.928 68.0079 112.098 68.0079 112.278C68.0079 112.561 68.2441 112.797 68.5558 112.797C68.6786 112.797 68.7825 112.759 68.9336 112.646C69.2076 112.41 69.5004 112.296 69.831 112.296C70.3978 112.296 70.7095 112.599 70.7095 113.118V113.326H69.5382C68.4424 113.326 67.7718 113.846 67.7718 114.686C67.7718 115.518 68.4235 116.084 69.387 116.084C69.9444 116.084 70.4167 115.905 70.7567 115.584C70.8134 115.867 71.059 116.075 71.3707 116.075C71.7202 116.075 71.9847 115.81 71.9847 115.442V113.194C71.9847 111.919 71.2479 111.191 69.9633 111.191ZM69.7271 115.149C69.3115 115.149 69.0564 114.951 69.0564 114.639C69.0564 114.327 69.2831 114.167 69.7082 114.167H70.7095V114.223C70.7095 114.752 70.2844 115.149 69.7271 115.149ZM76.7542 113.477C76.9998 113.25 77.1321 112.948 77.1321 112.599C77.1321 111.815 76.4709 111.295 75.4696 111.295H73.911C73.5331 111.295 73.2592 111.579 73.2592 111.947V115.319C73.2592 115.697 73.5331 115.971 73.911 115.971H75.7907C76.7637 115.971 77.4532 115.385 77.4532 114.554C77.4532 114.072 77.2076 113.694 76.7542 113.477ZM74.4777 112.315H75.4412C75.7813 112.315 75.9513 112.448 75.9513 112.703C75.9513 112.967 75.7624 113.109 75.4412 113.109H74.4777V112.315ZM75.6868 114.941H74.4777V114.006H75.6868C76.0552 114.006 76.2819 114.176 76.2819 114.46C76.2819 114.752 76.0552 114.941 75.6868 114.941ZM82.0694 111.295H79.6701C79.3017 111.295 79.0183 111.579 79.0183 111.947V112.41C79.0183 114.072 78.6688 114.667 78.1682 114.932C77.9509 115.064 77.7809 115.168 77.7809 115.47C77.7809 115.782 78.0359 116.037 78.3571 116.037C78.461 116.037 78.5744 116.018 78.7161 115.962C79.774 115.518 80.2841 114.478 80.2841 112.797V112.372H81.4554V115.433C81.4554 115.801 81.7294 116.084 82.0883 116.084C82.4473 116.084 82.7212 115.801 82.7212 115.433V111.947C82.7212 111.579 82.4378 111.295 82.0694 111.295ZM86.1956 111.191C84.8165 111.191 83.768 112.249 83.768 113.638C83.768 115.036 84.8543 116.084 86.3279 116.084C86.8758 116.084 87.3859 115.933 87.8109 115.65C88.0376 115.499 88.1321 115.348 88.1321 115.14C88.1321 114.847 87.9054 114.63 87.6126 114.63C87.5181 114.63 87.4331 114.658 87.3386 114.715C87.0552 114.894 86.7057 114.989 86.3657 114.989C85.6761 114.989 85.2038 114.648 85.0527 114.063H87.7165C88.1321 114.063 88.4155 113.808 88.4155 113.411V113.383C88.4155 112.117 87.4709 111.191 86.1956 111.191ZM86.1673 112.221C86.7624 112.221 87.1591 112.608 87.178 113.165H85.0527C85.1944 112.589 85.61 112.221 86.1673 112.221ZM93.1322 111.191C92.7638 111.191 92.4993 111.465 92.4993 111.834V113.005H90.7329V111.834C90.7329 111.465 90.459 111.191 90.1 111.191C89.7316 111.191 89.4577 111.465 89.4577 111.834V115.433C89.4577 115.801 89.7316 116.075 90.1 116.075C90.459 116.075 90.7329 115.801 90.7329 115.433V114.091H92.4993V115.433C92.4993 115.801 92.7733 116.075 93.1322 116.075C93.4912 116.075 93.7651 115.801 93.7651 115.433V111.834C93.7651 111.465 93.4912 111.191 93.1322 111.191ZM96.9731 111.191C96.293 111.191 95.679 111.399 95.2822 111.767C95.1122 111.928 95.0178 112.098 95.0178 112.278C95.0178 112.561 95.2539 112.797 95.5656 112.797C95.6884 112.797 95.7923 112.759 95.9435 112.646C96.2174 112.41 96.5102 112.296 96.8408 112.296C97.4076 112.296 97.7193 112.599 97.7193 113.118V113.326H96.548C95.4523 113.326 94.7816 113.846 94.7816 114.686C94.7816 115.518 95.4334 116.084 96.3969 116.084C96.9542 116.084 97.4265 115.905 97.7666 115.584C97.8232 115.867 98.0688 116.075 98.3806 116.075C98.7301 116.075 98.9945 115.81 98.9945 115.442V113.194C98.9945 111.919 98.2578 111.191 96.9731 111.191ZM96.7369 115.149C96.3213 115.149 96.0663 114.951 96.0663 114.639C96.0663 114.327 96.293 114.167 96.718 114.167H97.7193V114.223C97.7193 114.752 97.2943 115.149 96.7369 115.149Z" fill="#A9A9A9"/>
</g>
<defs>
<filter id="filter0_d" x="0.405248" y="0.12828" width="295.19" height="152.711" filterUnits="userSpaceOnUse" color-interpolation-filters="sRGB">
<feFlood flood-opacity="0" result="BackgroundImageFix"/>
<feColorMatrix in="SourceAlpha" type="matrix" values="0 0 0 0 0 0 0 0 0 0 0 0 0 0 0 0 0 0 127 0" result="hardAlpha"/>
<feOffset dy="4.72303"/>
<feGaussianBlur stdDeviation="6.29738"/>
<feColorMatrix type="matrix" values="0 0 0 0 0.172448 0 0 0 0 0.213996 0 0 0 0 0.320833 0 0 0 0.1 0"/>
<feBlend mode="normal" in2="BackgroundImageFix" result="effect1_dropShadow"/>
<feBlend mode="normal" in="SourceGraphic" in2="effect1_dropShadow" result="shape"/>
</filter>
</defs>
</svg>
