<svg width="648" height="397" viewBox="0 0 648 397" fill="none" xmlns="http://www.w3.org/2000/svg">
<g opacity="0.6">
<rect x="0.359985" y="123.48" width="104.16" height="212.52" fill="url(#paint0_linear)"/>
<path d="M24.3 141.54L36.9 144.06L33.12 165.48H24.3V141.54Z" fill="#C9E9E7"/>
<path d="M46.035 209.79L58.635 212.31L54.855 233.73H46.035V209.79Z" fill="#C9E9E7"/>
<path d="M100.95 175.77L88.35 178.29L92.13 199.71L100.95 198.03V175.77Z" fill="#C9E9E7"/>
<path d="M50.34 143.43H58.74V165.48H47.4L50.34 143.43Z" fill="#C9E9E7"/>
<path d="M71.865 211.68H80.265V233.73H68.925L71.865 211.68Z" fill="#C9E9E7"/>
<path d="M33.96 177.24H25.56V199.29H36.9L33.96 177.24Z" fill="#C9E9E7"/>
<path d="M98.01 211.68H89.61V233.73H100.95L98.01 211.68Z" fill="#C9E9E7"/>
<path d="M68.19 143.64H78.9V165.48H70.92L68.19 143.64Z" fill="#C9E9E7"/>
<path d="M47.715 177.24H58.425V199.08H50.445L47.715 177.24Z" fill="#C9E9E7"/>
<path d="M88.35 144.06L98.64 142.8L96.54 165.48H88.35V144.06Z" fill="#C9E9E7"/>
<path d="M25.455 212.31L35.745 211.05L33.645 233.73H25.455V212.31Z" fill="#C9E9E7"/>
<path d="M79.5308 177.66L69.2408 176.4L71.3408 199.08H79.5308V177.66Z" fill="#C9E9E7"/>
</g>
<g opacity="0.6">
<rect x="104.52" y="65.1" width="149.52" height="222.6" fill="url(#paint1_linear)"/>
<path d="M123.84 78.54L157.86 84L151.98 130.62H119.22L123.84 78.54Z" fill="#E9EFFF"/>
<path d="M168.78 81.48H197.34V130.62H175.08L168.78 81.48Z" fill="#E9EFFF"/>
<path d="M217.08 77.28L242.7 86.1V130.62L213.72 128.52L217.08 77.28Z" fill="#E9EFFF"/>
<path d="M120.9 147.42L143.16 145.32L151.14 192.36H120.9V147.42Z" fill="#E9EFFF"/>
<path d="M175.08 143.64H198.18V192.36H165.84L175.08 143.64Z" fill="#E9EFFF"/>
<path d="M216.03 143.64H240.39L234.3 191.94H216.03V143.64Z" fill="#E9EFFF"/>
</g>
<g opacity="0.6">
<rect width="149.52" height="222.6" transform="matrix(-1 0 0 1 507.72 42.84)" fill="url(#paint2_linear)"/>
<path d="M488.4 56.28L454.38 61.74L460.26 108.36H493.02L488.4 56.28Z" fill="#E9EFFF"/>
<path d="M443.46 59.22H414.9V108.36H437.16L443.46 59.22Z" fill="#E9EFFF"/>
<path d="M395.16 55.02L369.54 63.84V108.36L398.52 106.26L395.16 55.02Z" fill="#E9EFFF"/>
<path d="M491.34 125.16L469.08 123.06L461.1 170.1H491.34V125.16Z" fill="#E9EFFF"/>
<path d="M437.16 121.38H414.06V170.1H446.4L437.16 121.38Z" fill="#E9EFFF"/>
<path d="M396.21 121.38H371.85L377.94 169.68H396.21V121.38Z" fill="#E9EFFF"/>
</g>
<g opacity="0.6">
<rect x="254.04" y="141.54" width="104.16" height="212.52" fill="url(#paint3_linear)"/>
<path d="M259.5 155.82H283.86L280.338 180.6L262.728 177.368L259.5 155.82Z" fill="#C9E9E7"/>
<path d="M294.15 156.8L314.52 153.3L311.217 180.6H294.15V156.8Z" fill="#C9E9E7"/>
<path d="M263.7 189H281.34L279.793 215.46H265.247L263.7 189Z" fill="#C9E9E7"/>
<path d="M294.15 189H314.52L312.124 215.46H297.265L294.15 189Z" fill="#C9E9E7"/>
<path d="M324.81 149.94L345.6 155.4L339.612 180.6H324.81V149.94Z" fill="#C9E9E7"/>
<path d="M327.709 192.042L342.701 189V214.038H327.709V192.042Z" fill="#C9E9E7"/>
</g>
<path d="M325.44 236.88C164.16 231.504 50.34 289.64 0.5 335V394.8H591L579.5 326.5C525.18 285.62 486.72 242.256 325.44 236.88Z" fill="url(#paint4_linear)"/>
<g clip-path="url(#clip0)">
<path d="M136.112 180.124C137.403 171.915 155.438 181.552 162.766 190.732C169.604 199.297 155.798 238.034 152.251 242.668C145.113 251.996 117.67 241.699 124.14 231.898C140.293 207.427 133.739 195.212 136.112 180.124Z" fill="#F2C9AA"/>
<path d="M105.13 168.438C102.355 175.92 108.443 182.412 114.441 184.629C122.573 187.634 131.415 184.006 134.189 176.524C136.964 169.043 132.621 160.542 124.489 157.536C116.358 154.531 107.905 160.957 105.13 168.438Z" fill="#E28E8B"/>
<path fill-rule="evenodd" clip-rule="evenodd" d="M122.095 172.465C124.617 173.052 127.311 175.172 128.953 176.95L129.998 175.988C128.282 174.129 125.349 171.765 122.417 171.083C120.926 170.737 119.374 170.813 118 171.683C116.635 172.548 115.564 174.123 114.867 176.527L115.235 176.607C116.28 174.637 117.79 173.497 118.762 172.881C119.725 172.271 120.858 172.178 122.095 172.465Z" fill="#490517"/>
<path d="M202.647 204.938C204.229 203.803 201.212 181.429 199.57 171.314L191.708 200.686C194.695 202.576 201.065 206.072 202.647 204.938Z" fill="#E28E8B"/>
<path fill-rule="evenodd" clip-rule="evenodd" d="M237.947 114.726C239.489 105.914 236.299 96.8304 232.909 91.1616C236.204 96.6718 238.124 106.105 236.654 114.5C235.922 118.682 234.068 122.78 230.553 126.362C227.034 129.948 221.103 132.313 213.607 134.444C213.258 134.543 213.775 135.639 213.874 135.987C213.973 136.335 214.336 136.537 214.685 136.437C222.347 134.259 227.778 131.062 231.491 127.279C235.207 123.491 237.173 119.146 237.947 114.726Z" fill="#B91946"/>
<path d="M183.344 225.907C187.303 222.656 203.129 170.414 210.547 144.699L189.614 134.027L152.797 123.562L130.309 134.434C129.18 150.659 127.195 183.249 128.287 183.806C162.715 233.145 178.396 229.971 183.344 225.907Z" fill="#F2C9AA"/>
<path d="M151.829 176.516C150.471 179.843 156.053 185.944 162.34 184.636C168.627 183.327 155.437 171.673 151.829 176.516Z" fill="#D95A73"/>
<path fill-rule="evenodd" clip-rule="evenodd" d="M170.221 153.669C173.736 155.908 176.634 159.942 178.215 163.017L181.041 160.975C179.369 157.723 175.537 153.393 171.569 150.866C169.569 149.592 167.295 149.18 164.856 149.282C162.4 149.385 159.624 151.078 157.191 153.317L158.13 154.618C160.252 152.666 162.918 152.084 164.773 152.006C166.644 151.928 168.48 152.56 170.221 153.669Z" fill="#490517"/>
<path fill-rule="evenodd" clip-rule="evenodd" d="M193.021 201.796C188.719 214.699 185.009 224.564 183.36 225.918C178.422 229.975 162.771 233.143 128.41 183.899C127.32 183.343 129.301 150.817 130.428 134.624L136.499 131.689L146.109 134.472C142.314 144.78 136.017 167.741 141.183 177.12C146.348 186.499 162.887 197.284 170.51 201.504C169.962 198.938 169.756 193.745 173.316 193.502C177.75 193.2 186.918 195.311 193.021 201.796Z" fill="#B91946"/>
<path d="M188.02 215.955C184.531 214.831 179.381 212.297 176.139 206.654L176.333 206.536C181.189 211.601 186.365 212.857 189.01 213.348C188.67 214.259 188.34 215.129 188.02 215.955Z" fill="#34020F"/>
<path fill-rule="evenodd" clip-rule="evenodd" d="M140.667 133.624L146.125 135.204C142.873 144.045 137.792 162.148 139.602 173.12L128.126 175.883C128.383 167.256 129.148 154.007 129.834 143.383L140.667 133.624Z" fill="url(#paint5_linear)"/>
<path d="M141.683 139.03C134.281 141.217 129.466 160.234 128.368 169.249C122.445 169.797 109.332 167.45 101.184 155.438C90.9983 140.422 107.58 134.795 110.967 132.961C114.353 131.127 114.543 123.136 106.856 120.237C99.1691 117.338 103.215 93.5459 130.382 98.1352C157.364 102.693 173.253 94.8353 178.079 92.4485L178.177 92.4001C182.905 90.0623 211.716 67.4273 225.979 96.003C240.242 124.579 219.747 131.558 218.576 134.653C208.295 158.073 177.672 145.391 165.585 140.266C153.498 135.142 150.935 136.297 141.683 139.03Z" fill="#B91946"/>
<path d="M170.584 163.706C167.862 161.69 163.833 166.553 165.488 169.075C167.143 171.597 173.822 165.463 170.584 163.706Z" fill="#390411"/>
<path fill-rule="evenodd" clip-rule="evenodd" d="M163.519 163.133C161.041 163.701 158.728 165.266 157.363 166.545L157.364 165.907C158.226 164.908 160.416 162.417 163.207 161.778C164.612 161.456 166.107 161.404 167.574 161.833C169.047 162.265 170.798 163.453 172.021 164.973L171.003 166.598C169.944 165.283 168.361 163.514 167.181 163.168C165.994 162.821 164.748 162.852 163.519 163.133Z" fill="#390411"/>
<path d="M155.449 237.512C147.366 238.625 139.306 234.962 136.286 232.991L69.0413 394.374C65.4178 399.383 59.1694 423.126 56.4982 434.372L200.047 462.197C199.002 445.386 185.204 376.706 181.581 347.768C181.581 312.291 158.237 237.512 155.449 237.512Z" fill="#E5ECFF"/>
<path d="M125.137 340.464C126.809 335.177 132.105 292.35 134.544 271.598L94.8244 312.291L75.6613 370.028L92.7339 379.071L188.549 344.638L125.137 340.464Z" fill="url(#paint6_linear)"/>
<path fill-rule="evenodd" clip-rule="evenodd" d="M148.167 237.446C142.681 236.451 138.103 234.625 135.833 233.425L80.4917 340.897C84.6597 341.607 90.9757 340.981 100.095 338.464C139.751 327.516 148.615 268.192 148.167 237.446Z" fill="url(#paint7_linear)"/>
<path d="M225.976 278.915L241.598 305.492L200.21 342.997L186.232 316.99L225.976 278.915Z" fill="#919191"/>
<path fill-rule="evenodd" clip-rule="evenodd" d="M208.024 296.195L211.407 292.954V332.849L209.36 334.704L208.024 296.195Z" fill="white" fill-opacity="0.35"/>
<path fill-rule="evenodd" clip-rule="evenodd" d="M216.271 328.392L214.148 290.111L222.023 282.567L220.793 324.294L216.271 328.392Z" fill="white" fill-opacity="0.35"/>
<path fill-rule="evenodd" clip-rule="evenodd" d="M216.821 268.264C217.901 268.227 218.802 269.082 218.822 270.162L218.899 274.397C218.916 275.318 218.157 276.064 217.236 276.033C216.473 276.007 215.833 275.449 215.704 274.697L214.984 270.523C214.785 269.369 215.65 268.305 216.821 268.264Z" fill="url(#paint8_linear)"/>
<path fill-rule="evenodd" clip-rule="evenodd" d="M202.636 272.923C203.539 272.33 204.753 272.591 205.332 273.502L207.607 277.083C208.101 277.86 207.842 278.891 207.039 279.343C206.374 279.717 205.538 279.573 205.036 278.999L202.243 275.805C201.472 274.923 201.657 273.566 202.636 272.923Z" fill="url(#paint9_linear)"/>
<path fill-rule="evenodd" clip-rule="evenodd" d="M193.959 286.148C194.305 285.126 195.42 284.585 196.436 284.946L200.444 286.37C201.311 286.678 201.742 287.65 201.388 288.5C201.095 289.203 200.349 289.604 199.602 289.461L195.424 288.66C194.275 288.44 193.585 287.257 193.959 286.148Z" fill="url(#paint10_linear)"/>
<path d="M227.093 278.915C227.58 278.915 228.031 279.169 228.284 279.583L243.439 304.443C243.806 305.044 243.699 305.82 243.184 306.3L235.102 313.829L233.879 312.487L240.696 306.301C241.216 305.829 241.334 305.057 240.978 304.451L225.975 278.915L227.093 278.915Z" fill="#656565"/>
<path d="M186.807 362.724L176.703 346.029L191.859 328.291C194.937 324.407 200.848 314.831 203.357 313.161C206.493 311.074 207.364 311.944 208.757 313.161C209.872 314.135 203.938 325.392 201.092 331.595L208.757 334.204C216.307 326.088 231.962 310.274 234.192 311.944C236.422 313.613 236.283 315.886 235.934 316.813L228.966 323.421C228.966 323.421 231.405 324.511 231.405 325.856C231.405 327.334 214.681 346.029 214.681 346.029L186.807 362.724Z" fill="#F2C9AA"/>
<path d="M228.908 323.397C229.576 323.638 231.383 324.75 231.383 325.856C231.383 326.782 224.692 334.591 219.787 340.203L215.465 337.212L228.908 323.397Z" fill="url(#paint11_linear)"/>
<path d="M41.1677 344.638C109.458 204.818 119.562 218.731 132.105 227.078C156.913 249.616 117.123 324.812 94.1275 359.593L177.4 347.072L188.549 361.68C171.012 369.332 128.969 386.931 101.096 396.113C66.2539 407.591 33.8509 391.592 41.1677 344.638Z" fill="#E5ECFF"/>
<path d="M184.912 351.254C181.082 344.659 174.646 339.565 171.074 340.96C169.13 342.516 170.439 345.123 171.695 346.797C166.732 342.881 162.289 350.865 166.977 353.019C172.089 355.368 181.718 372.835 185.22 373.545C188.722 374.255 187.862 371.724 190.218 369.546C192.103 367.803 189.116 363.305 187.387 361.274C189.485 362.912 193.959 365.733 195.072 363.905C196.463 361.621 188.741 357.848 184.912 351.254Z" fill="#CDDBFF"/>
<path d="M171.738 346.845C175.845 349.729 184.151 359.263 185.865 360.498C186.648 361.062 187.387 361.274 187.387 361.274C189.466 362.851 193.959 365.733 195.072 363.906C195.783 362.738 194.067 361.139 191.705 358.971C189.507 356.955 187.343 354.946 184.912 351.254C181.082 344.659 174.646 339.565 171.074 340.96C169.13 342.516 170.439 345.124 171.695 346.797C171.216 346.419 170.742 346.152 170.28 345.98L171.738 346.845Z" fill="url(#paint12_linear)"/>
<path d="M278.624 274.184C277.099 274.184 271.518 272.441 268.919 271.569C265.279 281.333 265.972 358.227 264.932 371.827C264.1 382.707 265.857 414.022 266.839 428.32L296.821 428.32C298.347 423.717 300.345 409.663 301.154 403.212C304.482 399.864 313.979 401.817 318.312 403.212C318.312 407.117 321.547 422.74 323.165 430.063L349.681 430.063C349.681 421.345 350.721 408.094 349.681 371.827C348.849 342.813 339.86 293.829 335.47 272.964C334.083 272.964 326.688 271.453 323.165 270.697L318.312 330.329L291.449 332.77L283.13 298.769L278.624 274.184Z" fill="#D3EFED"/>
<path d="M260.253 157.362L273.771 157.362C274.702 157.362 275.63 157.136 276.475 156.809C278.008 156.218 280.057 156.963 280.406 158.568C281.367 162.98 282.764 168.366 283.823 169.219C285.556 170.613 288.243 160.849 288.503 159.542C288.763 158.234 286.423 157.536 287.463 156.229C288.503 154.921 312.766 152.48 318.139 154.921C323.511 157.362 334.69 157.362 338.936 157.362C343.182 157.362 350.548 155.793 354.36 156.229C358.173 156.665 350.028 210.194 350.894 223.445C351.761 236.697 355.92 257.62 358.52 260.758C361.119 263.897 314.672 270 308.78 267.559C308.78 265.226 306.298 260.882 306.131 258.857C305.676 261.126 304.079 267.559 303.147 267.559C301.934 267.559 288.676 269.302 282.523 266.774C277.601 264.751 267.994 263.664 263.806 263.374C262.824 257.533 261.449 243.078 263.806 231.989C266.752 218.127 262.679 204.265 263.806 200.952C264.932 197.64 258.867 165.906 260.253 157.362Z" fill="url(#paint13_linear)"/>
<path d="M289.629 257.707C291.57 259.521 283.043 269.506 278.537 274.272L268.918 271.918C268.254 270.639 266.665 267.559 265.625 265.467C264.326 262.851 263.806 252.041 265.625 252.389C267.081 252.668 267.965 254.947 268.225 256.051C267.965 252.68 267.861 246.043 269.525 246.461C271.189 246.88 272.529 253.784 272.991 257.184C274.406 252.884 277.67 244.456 279.404 245.153C281.57 246.025 277.41 263.374 279.404 263.287C281.397 263.2 287.203 255.441 289.629 257.707Z" fill="#FFC0A9"/>
<path d="M342.705 251.299C346.206 252.276 339.282 266.178 335.383 273.007C331.772 272.76 324.274 271.979 323.164 270.828C321.778 269.389 316.795 258.579 318.745 258.1C320.305 257.716 324.248 261.194 326.024 262.982C327.28 261.979 327.02 245.328 329.403 245.328C331.31 245.328 332.162 252.302 332.35 255.789C333.866 252.171 337.324 245.014 339.022 245.328C340.721 245.641 339.47 252.113 338.632 255.31C339.542 255.31 341.405 250.384 342.705 251.299Z" fill="#FFC0A9"/>
<path d="M343.66 253.353C343.699 252.249 343.437 251.58 342.754 251.267C341.732 250.799 340.909 252.37 340.126 253.585C339.559 254.465 339.044 255.264 338.673 255.321C338.458 255.736 338.237 256.159 338.017 256.581C336.735 259.038 335.469 261.462 335.469 261.985C335.469 262.576 340.947 257.224 343.66 253.353Z" fill="url(#paint14_linear)"/>
<path d="M266.332 252.723C267.353 253.459 267.984 255.15 268.197 256.054C268.196 256.043 268.195 256.032 268.194 256.02L269.67 263.029H267.157C266.475 259.707 265.625 254.179 266.332 252.723Z" fill="url(#paint15_linear)"/>
<g opacity="0.5">
<path opacity="0.5" d="M332.167 358.321L282.6 358.321C283.004 368.551 288.874 389.009 309.117 389.009C329.359 389.009 332.918 368.551 332.167 358.321Z" fill="#23AEA3"/>
<ellipse cx="325.378" cy="364.773" rx="2.07972" ry="2.09234" fill="#D3EFED"/>
<ellipse cx="291.449" cy="364.773" rx="2.07972" ry="2.09234" fill="#D3EFED"/>
</g>
<path d="M288.243 313.242C288.243 317.479 284.829 320.914 280.617 320.914C276.406 320.914 272.991 317.479 272.991 313.242C272.731 307.357 278.225 304.611 282.437 304.611C286.648 304.611 288.243 309.005 288.243 313.242Z" fill="#FFA4A0"/>
<path d="M325.409 313.242C325.409 317.479 328.823 320.914 333.034 320.914C337.246 320.914 340.66 317.479 340.66 313.242C340.92 307.357 335.426 304.611 331.215 304.611C327.003 304.611 325.409 309.005 325.409 313.242Z" fill="#FFA4A0"/>
<path d="M310.86 283.687C310.86 286.817 308.338 289.354 305.227 289.354C302.116 289.354 299.594 286.817 299.594 283.687C298.814 281.072 301.111 278.02 305.227 278.02C309.126 278.02 311.943 281.507 310.86 283.687Z" fill="#FFA4A0"/>
<path d="M334.603 312.457C335.383 329.283 323.474 338.873 307.393 338.873C291.313 338.873 280.617 327.103 278.364 311.847C278.364 295.669 290.1 282.38 306.18 282.38C322.26 282.38 334.603 296.279 334.603 312.457Z" fill="#FFC0A9"/>
<path d="M287.983 301.385C293.037 295.602 304.43 284.821 309.56 287.959C311.362 289.075 307.595 293.248 305.487 295.195C307.769 293.51 313.026 290.383 315.799 291.359C318.572 292.336 314.123 295.195 311.553 296.503C317.301 294.876 329.005 292.754 329.837 297.288C330.391 300.566 326.313 301.385 324.204 301.385C328.999 301.56 338.468 303.739 337.982 311.062C337.982 312.595 335.742 311.114 333.897 309.577C335.945 313.477 336.319 325.67 330.53 330.155C329.837 331.375 326.371 338.263 321.605 339.047C320.218 339.535 321.027 337.216 321.605 335.996C319.265 338.117 314.152 342.343 312.419 342.273C310.554 342.198 310.231 340.12 311.614 338.82C308.182 341.112 301.883 344.331 298.814 342.273C297.359 341.506 299.305 339.28 300.461 338.263C296.764 339.164 288.797 339.78 286.509 335.037C285.955 333.782 288.705 334.165 290.149 334.514C286.972 333.032 280.617 329.056 280.617 325.011C280.617 323.477 281.772 323.791 282.35 324.139C279.924 319.693 275.626 309.894 277.844 306.267C278.468 304.663 280.588 307.982 281.57 309.842C281.975 304.669 283.615 294.411 286.943 294.759C288.745 295.108 288.387 299.322 287.983 301.385Z" fill="#23AEA3"/>
<path d="M312.775 180.679C310.595 176.682 304.397 180.063 306.577 184.06C307.795 186.293 310.23 195.156 304.935 197.804C299.639 200.452 295.218 191.103 293.574 186.227C291.438 179.898 283.138 183.628 286.401 188.978C289.931 194.768 299.936 197.012 296.991 204.865C294.047 212.718 283.946 207.226 280.178 209.475C276.269 211.809 279.888 217.871 283.797 215.538C286.522 213.911 292.985 211.687 295.226 212.808C297.467 213.928 298.439 217.304 296.991 218.986C295.544 220.667 289.931 223.399 288.166 225.164C283.67 229.659 290.853 234.813 294.344 229.577C295.937 227.187 299.639 218.103 304.052 220.751C308.465 223.399 302.867 231.975 301.48 235.265C299.711 239.461 306.216 242.204 307.985 238.009C309.628 234.112 306.7 224.281 311.995 222.516C317.29 220.751 319.37 231.79 321.722 234.072C324.99 237.243 329.907 232.176 326.639 229.006C320.907 223.442 317.889 221.31 320.821 215.538C323.752 209.765 334.783 213.639 337.069 213.639C341.704 213.639 340.891 206.147 336.345 206.616C333.908 207.48 325.234 211.043 322.586 205.747C319.938 200.452 330.529 194.274 334.942 189.861C340.239 184.564 329.985 179.539 327.881 187.213C326.913 190.744 322.605 199.569 316.408 197.804C310.211 196.039 314.592 184.01 312.775 180.679Z" fill="#B91946"/>
<path d="M308.465 204.864C308.465 206.814 306.884 208.395 304.934 208.395C302.985 208.395 301.404 206.814 301.404 204.864C301.404 202.915 302.985 201.334 304.934 201.334C306.884 201.334 308.465 202.915 308.465 204.864Z" fill="#840C2E"/>
<path d="M320.821 208.395C320.821 210.344 319.24 211.925 317.29 211.925C315.341 211.925 313.76 210.344 313.76 208.395C313.76 206.445 315.341 204.864 317.29 204.864C319.24 204.864 320.821 206.445 320.821 208.395Z" fill="#840C2E"/>
<path d="M308.465 218.985C310.414 218.985 311.995 217.405 311.995 215.455C311.995 213.505 310.414 211.925 308.465 211.925C306.515 211.925 304.934 213.505 304.934 215.455C304.934 217.405 306.515 218.985 308.465 218.985Z" fill="#840C2E"/>
<path d="M481.757 237.683C486.762 229.063 483.842 219.956 481.757 216.48L507.827 211.961L502.96 247.068C493.807 247.532 476.751 246.303 481.757 237.683Z" fill="#FCCBA6"/>
<path d="M448.04 430.947C448.04 420.38 457.309 352.39 461.944 319.716C461.944 319.716 475.814 280.312 498.225 259.146C517.296 241.135 546.241 248.502 564.973 279.276C579.805 303.644 604.459 435.814 604.459 435.814C552.319 438.594 448.04 441.514 448.04 430.947Z" fill="#FFEFD9"/>
<path fill-rule="evenodd" clip-rule="evenodd" d="M457.435 354.677C458.885 343.869 460.347 333.231 461.639 323.965L482.827 263.049C485.84 253.548 497.565 237.605 520.368 249.84C504.63 311.361 475.499 342.858 457.435 354.677Z" fill="url(#paint16_linear)"/>
<path d="M449.083 75.007C423.499 82.7931 384.429 99.5705 368.092 106.986C369.714 139.66 375.948 205.843 387.905 209.18C414.323 210.918 489.751 181.372 471.329 166.078C456.591 153.842 450.357 100.266 449.083 75.007Z" fill="url(#paint17_linear)"/>
<path opacity="0.5" fill-rule="evenodd" clip-rule="evenodd" d="M439.267 91.6496C440.836 91.6026 442.406 92.1305 443.413 93.3339C444.449 94.5708 444.783 96.2446 444.433 97.8194C444.08 99.4059 443.042 100.735 441.602 101.488C440.097 102.274 438.289 102.585 436.771 101.823C435.277 101.074 434.503 99.4389 434.233 97.7894C433.985 96.2734 434.447 94.7613 435.421 93.5734C436.377 92.4072 437.76 91.6948 439.267 91.6496Z" fill="#7AD4CD"/>
<path opacity="0.5" fill-rule="evenodd" clip-rule="evenodd" d="M392.686 151.307C394.255 151.26 395.825 151.788 396.832 152.992C397.868 154.229 398.202 155.902 397.852 157.477C397.499 159.064 396.461 160.393 395.02 161.146C393.515 161.932 391.708 162.243 390.19 161.481C388.696 160.731 387.922 159.097 387.652 157.447C387.404 155.931 387.866 154.419 388.84 153.231C389.796 152.065 391.179 151.353 392.686 151.307Z" fill="#7AD4CD"/>
<path opacity="0.5" fill-rule="evenodd" clip-rule="evenodd" d="M407.968 123.852C409.537 123.805 411.107 124.333 412.115 125.536C413.15 126.773 413.484 128.447 413.134 130.022C412.782 131.608 411.743 132.938 410.303 133.69C408.798 134.477 406.99 134.788 405.472 134.026C403.978 133.276 403.204 131.641 402.934 129.992C402.686 128.476 403.148 126.964 404.122 125.776C405.079 124.61 406.461 123.897 407.968 123.852Z" fill="#7AD4CD"/>
<path opacity="0.5" fill-rule="evenodd" clip-rule="evenodd" d="M403.157 104.419C404.588 104.472 405.965 105.006 406.918 106.214C407.941 107.513 408.659 109.239 408.286 110.927C407.919 112.583 406.525 113.574 405.138 114.252C403.836 114.889 402.401 115.071 401.096 114.442C399.71 113.774 398.555 112.536 398.165 110.892C397.757 109.173 398.04 107.264 399.075 105.923C400.064 104.64 401.652 104.363 403.157 104.419Z" fill="#7AD4CD"/>
<path opacity="0.5" fill-rule="evenodd" clip-rule="evenodd" d="M443.263 110.243C444.693 110.296 446.071 110.83 447.023 112.038C448.047 113.337 448.765 115.063 448.391 116.751C448.024 118.407 446.63 119.398 445.243 120.076C443.941 120.713 442.506 120.895 441.201 120.266C439.815 119.598 438.66 118.36 438.27 116.716C437.862 114.997 438.146 113.088 439.18 111.747C440.17 110.464 441.758 110.187 443.263 110.243Z" fill="#7AD4CD"/>
<path opacity="0.5" fill-rule="evenodd" clip-rule="evenodd" d="M383.293 111.172C384.857 111.205 386.13 112.286 387.081 113.528C388.004 114.733 388.573 116.197 388.282 117.687C387.98 119.235 387.013 120.641 385.569 121.274C384.176 121.884 382.603 121.482 381.264 120.761C380.011 120.086 379.095 118.966 378.73 117.59C378.347 116.145 378.438 114.585 379.304 113.367C380.229 112.066 381.697 111.139 383.293 111.172Z" fill="#7AD4CD"/>
<path opacity="0.5" fill-rule="evenodd" clip-rule="evenodd" d="M413.164 144.107C414.728 144.14 416.001 145.221 416.952 146.463C417.875 147.668 418.444 149.132 418.153 150.622C417.851 152.17 416.885 153.576 415.44 154.209C414.048 154.819 412.474 154.417 411.136 153.696C409.882 153.021 408.966 151.901 408.601 150.525C408.218 149.08 408.309 147.52 409.175 146.302C410.1 145.001 411.568 144.074 413.164 144.107Z" fill="#7AD4CD"/>
<path opacity="0.5" fill-rule="evenodd" clip-rule="evenodd" d="M426.2 117.349C427.764 117.382 429.037 118.463 429.988 119.705C430.911 120.91 431.48 122.374 431.189 123.864C430.886 125.412 429.92 126.818 428.476 127.451C427.083 128.061 425.51 127.659 424.171 126.938C422.918 126.263 422.002 125.143 421.637 123.767C421.254 122.322 421.345 120.762 422.211 119.544C423.136 118.243 424.604 117.316 426.2 117.349Z" fill="#7AD4CD"/>
<path opacity="0.5" fill-rule="evenodd" clip-rule="evenodd" d="M420.933 96.9778C422.473 96.9777 423.658 98.1527 424.632 99.3453C425.627 100.562 426.61 101.979 426.277 103.515C425.941 105.065 424.472 105.988 423.043 106.677C421.613 107.367 419.992 107.908 418.551 107.242C417.089 106.566 416.265 105.01 416 103.421C415.754 101.948 416.326 100.532 417.234 99.3458C418.17 98.1228 419.393 96.9779 420.933 96.9778Z" fill="#7AD4CD"/>
<path opacity="0.5" fill-rule="evenodd" clip-rule="evenodd" d="M388.148 130.657C389.688 130.657 390.873 131.832 391.848 133.025C392.843 134.242 393.825 135.658 393.492 137.195C393.156 138.745 391.687 139.667 390.258 140.357C388.828 141.046 387.207 141.587 385.766 140.921C384.304 140.245 383.48 138.69 383.215 137.101C382.97 135.628 383.542 134.211 384.449 133.025C385.386 131.802 386.608 130.657 388.148 130.657Z" fill="#7AD4CD"/>
<path d="M441.95 177.506C448.539 176.446 453.614 169.882 456.625 164.838C455.925 173.391 453.331 189.875 448.561 187.385C443.791 184.895 442.166 179.761 441.95 177.506Z" fill="#E2AA8B"/>
<path d="M451.897 217.117C437.124 194.61 454.939 155.418 469.538 147.945L508.17 153.133L529.787 179.05L513.422 205.994C517.42 202.866 535.507 209.072 526.37 220.159C518.636 229.544 502.56 225.46 502.56 217.552C491.784 221.028 476.403 222.505 451.897 217.117Z" fill="#FCCBA6"/>
<path fill-rule="evenodd" clip-rule="evenodd" d="M446.381 195.613C446.405 194.895 446.457 194.186 446.52 193.451C447.246 194.215 451.308 196.197 455.805 194.077L455.041 195.224C451.297 197.294 448.203 196.675 446.381 195.613Z" fill="#334D66"/>
<path d="M469.86 184.613C467.189 183.857 470.396 179.751 471.971 177.882C472.703 177.98 473.509 178.513 473.776 179.148C474.11 179.94 472.061 185.069 469.86 184.613Z" fill="#334D66"/>
<path fill-rule="evenodd" clip-rule="evenodd" d="M473.912 180.572C473.405 178.676 471.827 177.527 470.484 177.061L470.939 175.748C472.564 176.311 474.592 177.734 475.255 180.212C475.923 182.709 475.646 185.628 472.188 189.83L471.276 189.83C474.596 185.795 474.414 182.45 473.912 180.572Z" fill="#334D66"/>
<path fill-rule="evenodd" clip-rule="evenodd" d="M513.95 124.594C513.942 124.601 513.94 124.603 513.942 124.6L511.686 122.975C511.96 122.594 512.404 122.239 512.811 121.947C513.26 121.626 513.823 121.272 514.464 120.907C515.75 120.176 517.413 119.365 519.241 118.634C522.828 117.199 527.338 115.958 530.924 116.504C533.257 116.858 535.259 118.026 537.067 119.407C538.249 120.311 539.442 121.386 540.609 122.436C541.185 122.955 541.755 123.469 542.314 123.953C545.81 126.98 547.447 128.666 554.512 128.666C561.13 128.666 573.932 122.716 577.38 120.907C573.76 122.806 558.262 131.422 554.887 131.422C548.527 132.289 544.124 129.198 540.494 126.055C539.839 125.488 539.223 124.933 538.627 124.395C537.518 123.395 536.476 122.456 535.378 121.617C533.731 120.359 530.816 119.661 529.151 119.407C522.756 120.292 521.619 121.923 518.115 123.325C516.398 124.012 517.008 122.66 515.839 123.325C515.253 123.658 514.778 123.959 514.43 124.208C514.116 124.433 513.983 124.562 513.95 124.594Z" fill="#334D66"/>
<path d="M500.474 127.611C494.391 127.785 489.698 121.006 483.442 122.223C476.576 125.178 481.182 131.869 480.835 133.607C480.487 135.345 478.575 136.214 474.839 137.691C471.102 139.168 464.671 145.338 472.058 154.984C479.444 164.63 495.781 149.944 501.691 158.286C507.6 166.629 496.998 167.671 496.737 177.752C496.477 187.832 513.856 183.661 517.332 185.92C520.808 188.18 518.733 191.556 518.897 191.134C513.335 205.994 495.026 201.319 494.912 200.867C496.581 208.445 508.121 206.559 513.856 205.82C515.942 205.82 518.656 204.512 524.458 207.645C530.976 211.165 528.195 219.072 523.98 222.375C520.153 225.373 503.733 227.545 502.603 217.508C493.148 220.845 492.016 232.817 492.827 238.495C493.58 239.827 495.295 245.968 496.129 259.872C497.172 277.252 506.383 273.776 507.078 285.42C507.774 297.065 497.172 299.15 501.169 313.402C505.167 327.653 534.191 329.565 534.539 347.814C534.817 362.413 518.317 360.27 510.033 357.373C515.421 363.456 527.958 366.72 528.456 366.411C524.98 368.774 519.244 367.975 516.811 367.28C518.491 369.481 527.044 377.267 542.707 371.103C564.973 362.341 562.648 351.257 578.54 347.814C590.189 345.29 588.34 327.378 594.697 318.903C601.054 310.427 606.881 308.308 599.73 290.826C592.578 273.345 615.357 255.069 603.438 237.058C591.519 219.047 604.232 203.848 590.194 191.134C576.2 178.46 569.254 162.832 565.013 153.288L564.973 153.198C560.735 143.663 553.656 137.865 542.707 136.127C531.758 134.389 531.758 120.833 520.635 120.659C509.512 120.485 506.557 127.437 500.474 127.611Z" fill="#334D66"/>
<path d="M463.587 190.871C461.088 192.031 465.286 201.88 469.104 201.021C472.922 200.163 468.144 188.99 463.587 190.871Z" fill="#E77C91"/>
<path fill-rule="evenodd" clip-rule="evenodd" d="M520.395 213.783C520.314 213.552 520.097 212.818 519.287 212.277C518.573 211.799 517.67 211.532 517.078 211.569C516.466 211.608 514.871 211.939 514.241 212.339C512.96 213.154 512.04 214.086 511.455 215.113L510.353 214.696C511.06 213.453 512.382 211.728 514.104 210.634C514.976 210.079 515.998 209.657 517.125 209.585C518.272 209.513 519.448 209.811 520.586 210.571C521.628 211.268 522.364 212.061 522.686 212.978C523.026 213.944 522.838 214.85 522.424 215.584C522.028 216.284 521.422 216.845 520.833 217.269C520.235 217.7 519.584 218.04 519.012 218.277L518.404 216.734C518.831 216.558 519.471 216.121 519.894 215.817C520.327 215.505 520.584 214.752 520.584 214.752C520.591 214.381 520.459 213.965 520.395 213.783Z" fill="#E28E8B"/>
<path fill-rule="evenodd" clip-rule="evenodd" d="M479.254 178.122C478.797 175.705 476.631 172.98 475.942 171.88L479.858 169.428C480.83 170.979 482.014 173.591 482.585 176.614C483.156 179.643 483.017 185.147 480.577 187.932L479.207 187.013C480.343 182.061 479.709 180.533 479.254 178.122Z" fill="#334D66"/>
<path d="M458.12 347.176C519.992 264.101 500.179 237.683 490.099 234.902C476.543 228.646 458.12 264.101 450.473 281.133C427.114 278.63 402.273 231.89 392.772 208.832L381.996 214.742C384.082 266.534 434.136 347.176 458.12 347.176Z" fill="#FFEFD9"/>
<path d="M394.683 191.105L392.598 209.701L382.691 215.263L370.846 194.06C370.507 191.337 368.614 181.459 368.614 178.939C368.614 174.333 369.233 170.713 370.846 170.076C370.851 165.948 372.528 161.31 373.757 158.877C373.576 157.091 373.48 155.706 373.48 154.955C373.48 152.035 375.218 151.305 376.087 151.305C376.261 161.559 387.558 188.672 388.6 187.803C389.643 186.934 388.079 173.378 391.207 173.03C393.71 172.752 394.568 184.964 394.683 191.105Z" fill="#FCCBA6"/>
<path fill-rule="evenodd" clip-rule="evenodd" d="M369.727 187.18C369.16 183.783 368.597 180.221 368.597 178.847C368.597 174.241 369.216 170.62 370.829 169.983C370.829 169.963 370.83 169.943 370.83 169.923C371.26 174.594 372.134 182.309 373.116 185.624C372.611 186.936 371.039 187.229 369.727 187.18Z" fill="url(#paint18_linear)"/>
<path fill-rule="evenodd" clip-rule="evenodd" d="M371.649 164.718C372.228 162.282 373.106 160.032 373.845 158.534C374.938 164.927 377.297 177.103 379.389 182.596L377.304 183.987C375.66 179.696 372.744 171.097 371.649 164.718Z" fill="url(#paint19_linear)"/>
</g>
<defs>
<linearGradient id="paint0_linear" x1="52.44" y1="123.48" x2="52.44" y2="336" gradientUnits="userSpaceOnUse">
<stop stop-color="#E2F9F7" stop-opacity="0.59"/>
<stop offset="1" stop-color="#B0DDDA" stop-opacity="0.79"/>
<stop offset="1" stop-color="#E0FFFD" stop-opacity="0.79"/>
</linearGradient>
<linearGradient id="paint1_linear" x1="179.28" y1="65.1" x2="179.28" y2="287.7" gradientUnits="userSpaceOnUse">
<stop stop-color="#E5ECFF" stop-opacity="0.29"/>
<stop offset="1" stop-color="#E5ECFF"/>
</linearGradient>
<linearGradient id="paint2_linear" x1="74.76" y1="0" x2="74.76" y2="222.6" gradientUnits="userSpaceOnUse">
<stop stop-color="#E5ECFF" stop-opacity="0.29"/>
<stop offset="1" stop-color="#E5ECFF"/>
</linearGradient>
<linearGradient id="paint3_linear" x1="306.12" y1="141.54" x2="306.12" y2="354.06" gradientUnits="userSpaceOnUse">
<stop stop-color="#E2F9F7" stop-opacity="0.59"/>
<stop offset="1" stop-color="#B0DDDA" stop-opacity="0.79"/>
</linearGradient>
<linearGradient id="paint4_linear" x1="332.16" y1="236.648" x2="330" y2="410" gradientUnits="userSpaceOnUse">
<stop offset="0.0001" stop-color="#C4C3FF"/>
<stop offset="1" stop-color="#E6E5FF"/>
</linearGradient>
<linearGradient id="paint5_linear" x1="146.408" y1="135.348" x2="142.826" y2="175.82" gradientUnits="userSpaceOnUse">
<stop offset="0.552142" stop-color="#840C2D"/>
<stop offset="1" stop-color="#B91946"/>
</linearGradient>
<linearGradient id="paint6_linear" x1="132.105" y1="334.203" x2="79.905" y2="371.854" gradientUnits="userSpaceOnUse">
<stop stop-color="#E5ECFF"/>
<stop offset="1" stop-color="#B1BFE4"/>
</linearGradient>
<linearGradient id="paint7_linear" x1="148.183" y1="253.859" x2="117.299" y2="241.879" gradientUnits="userSpaceOnUse">
<stop stop-color="#E5ECFF"/>
<stop offset="1" stop-color="#7E8FBF"/>
</linearGradient>
<linearGradient id="paint8_linear" x1="216.649" y1="267.991" x2="218.066" y2="276.239" gradientUnits="userSpaceOnUse">
<stop stop-color="#9AD1FF"/>
<stop offset="1" stop-color="#1B7ED1"/>
</linearGradient>
<linearGradient id="paint9_linear" x1="202.346" y1="272.779" x2="207.848" y2="279.093" gradientUnits="userSpaceOnUse">
<stop stop-color="#9AD1FF"/>
<stop offset="1" stop-color="#1B7ED1"/>
</linearGradient>
<linearGradient id="paint10_linear" x1="193.642" y1="286.213" x2="201.874" y2="287.796" gradientUnits="userSpaceOnUse">
<stop stop-color="#9AD1FF"/>
<stop offset="1" stop-color="#1B7ED1"/>
</linearGradient>
<linearGradient id="paint11_linear" x1="221.475" y1="317.595" x2="220.737" y2="339.966" gradientUnits="userSpaceOnUse">
<stop stop-color="#E8A06A"/>
<stop offset="1" stop-color="#F2C9AA"/>
</linearGradient>
<linearGradient id="paint12_linear" x1="182.908" y1="354.516" x2="172.147" y2="351.008" gradientUnits="userSpaceOnUse">
<stop stop-color="#CDDBFF"/>
<stop offset="1" stop-color="#ABBFF1"/>
</linearGradient>
<linearGradient id="paint13_linear" x1="309.335" y1="153.879" x2="309.335" y2="268.144" gradientUnits="userSpaceOnUse">
<stop stop-color="#FFF8EE"/>
<stop offset="1" stop-color="#FFE8C7"/>
</linearGradient>
<linearGradient id="paint14_linear" x1="333.823" y1="249.99" x2="339.97" y2="257.688" gradientUnits="userSpaceOnUse">
<stop stop-color="#B15736"/>
<stop offset="1" stop-color="#FFC0A9"/>
</linearGradient>
<linearGradient id="paint15_linear" x1="270.955" y1="255.528" x2="266.832" y2="257.145" gradientUnits="userSpaceOnUse">
<stop stop-color="#B15736"/>
<stop offset="1" stop-color="#FFC0A9"/>
</linearGradient>
<linearGradient id="paint16_linear" x1="454.644" y1="283.218" x2="493.228" y2="310.331" gradientUnits="userSpaceOnUse">
<stop offset="0.0384822" stop-color="#B37D33"/>
<stop offset="1" stop-color="#FFEFD9"/>
</linearGradient>
<linearGradient id="paint17_linear" x1="421.143" y1="75.007" x2="421.143" y2="209.253" gradientUnits="userSpaceOnUse">
<stop stop-color="#E4F8F6"/>
<stop offset="1" stop-color="#D3EFED"/>
</linearGradient>
<linearGradient id="paint18_linear" x1="376.599" y1="170.909" x2="366.139" y2="175.225" gradientUnits="userSpaceOnUse">
<stop stop-color="#F0AB76"/>
<stop offset="1" stop-color="#FCCBA6"/>
</linearGradient>
<linearGradient id="paint19_linear" x1="383.56" y1="161.037" x2="369.483" y2="168.685" gradientUnits="userSpaceOnUse">
<stop stop-color="#F0AB76"/>
<stop offset="1" stop-color="#FCCBA6"/>
</linearGradient>
<clipPath id="clip0">
<rect width="570" height="347.509" fill="white" transform="translate(39 49)"/>
</clipPath>
</defs>
</svg>
