<svg width="295" height="431" viewBox="0 0 295 431" fill="none" xmlns="http://www.w3.org/2000/svg">
<g clip-path="url(#clip0)">
<path d="M135.392 430.659C133.631 413.634 139.306 335.995 142.363 299.303L164.745 297.102C189.206 298.692 237.321 307.742 234.092 331.225C230.863 354.707 229.567 407.299 229.322 430.659H201.804C198.868 426.549 196.911 379.535 196.3 356.542C191.016 358.01 179.177 357.153 173.918 356.542C170.689 363.293 166.457 408.766 164.745 430.659H135.392Z" fill="#445C75"/>
<path d="M178.504 199.318C174.688 191.686 175.324 177.303 176.119 171.065C183.213 169.047 197.144 165.672 196.116 168.313C194.832 171.616 195.382 183.357 196.116 192.897C196.85 202.437 183.274 208.858 178.504 199.318Z" fill="url(#paint0_linear)"/>
<path d="M230.056 119.514C230.056 158.407 217.581 172.349 187.494 173.817C147.181 175.783 139.061 163.543 136.859 123.917C138.327 93.8296 127.32 39.5262 187.494 62.2747C214.242 62.2747 230.056 67.4116 230.056 119.514Z" fill="#F9DBC0"/>
<path d="M260.877 124.652C260.877 133.974 251.52 142.364 244.732 142.998C214.74 145.799 228.588 138.377 228.588 129.055C228.588 119.734 233.943 111.443 243.265 111.443C252.586 111.443 260.877 115.331 260.877 124.652Z" fill="#F9DBC0"/>
<path fill-rule="evenodd" clip-rule="evenodd" d="M236.604 125.871C233.095 128.131 230.297 132.227 228.815 135.368L226.16 134.115C227.766 130.713 230.866 126.076 235.015 123.404C237.114 122.052 239.543 121.165 242.206 121.272C244.882 121.379 248.282 123.533 251.016 125.871L250.488 126.279C248.159 124.288 244.411 123.404 242.462 123.404C240.548 123.327 238.334 124.757 236.604 125.871Z" fill="#F8C291"/>
<path fill-rule="evenodd" clip-rule="evenodd" d="M239.626 142.901C241.168 142.936 242.865 142.954 244.732 142.954C250.603 142.954 260.877 133.93 260.877 124.608C260.877 115.854 253.564 111.892 244.953 111.443C250.091 117.484 255.646 131.712 239.626 142.901Z" fill="url(#paint1_linear)"/>
<path d="M162.36 132.356C162.36 139.577 156.877 141.162 150.114 141.162C143.351 141.162 137.868 137.219 137.868 132.356C137.868 124.959 143.351 123.55 150.114 123.55C156.877 123.55 162.36 127.493 162.36 132.356Z" fill="url(#paint2_radial)"/>
<path d="M215.48 131.898C215.48 139.119 209.997 140.704 203.234 140.704C196.471 140.704 190.988 136.761 190.988 131.898C190.988 124.501 196.471 123.092 203.234 123.092C209.997 123.092 215.48 127.035 215.48 131.898Z" fill="url(#paint3_radial)"/>
<path d="M147.723 2.76367C152.474 11.4804 156.346 23.7606 151.226 33.9997C143.91 48.6319 148.244 65.0369 153.287 71.4316C138.02 75.8062 121.638 72.7165 117.837 46.1079C115.207 27.6945 129.863 9.54312 147.723 2.76367Z" fill="url(#paint4_linear)"/>
<path d="M244.733 111.442C243.02 105.572 241.944 91.629 251.337 79.8877C263.078 65.2111 258.675 34.3902 232.991 27.0519C224.248 24.5538 218.821 24.1817 214.424 23.8802C205.904 23.296 201.249 22.9769 183.825 7.97227C157.407 -14.7765 113.377 15.3106 117.78 46.1315C122.183 76.9524 143.464 76.2186 160.342 68.8803C177.22 61.542 188.228 60.0743 202.904 64.4773C205.299 65.1956 207.556 65.9725 209.639 66.9545C209.626 66.9678 209.613 66.9811 209.6 66.9945C220.232 72.0473 226.249 82.5451 222.574 118.07C225.049 119.296 227.617 120.496 230.056 121.716C230.79 118.292 235.927 111.442 244.733 111.442Z" fill="url(#paint5_linear)"/>
<path d="M151.367 144.235C145.855 145.492 141.421 143.368 138.495 140.862C142.503 167.055 152.996 175.4 187.508 173.772C204.028 172.992 214.849 168.549 221.63 158.548C221.717 158.419 221.717 158.419 221.795 158.302C222.77 156.835 223.665 155.438 224.46 153.729C225.066 152.429 225.286 151.895 225.928 150.335C226.232 149.598 226.602 148.506 226.708 148.088C229.047 139.603 229.939 130.377 230.056 121.709L222.58 118.047C221.065 125.998 218.68 134.435 213.132 139.079C210.616 141.185 207.556 142.539 203.836 142.768C197.482 143.159 193.212 141.519 189 139.901C185.305 138.482 181.655 137.08 176.684 137.08C170.314 137.08 166.245 138.79 161.761 140.674C158.755 141.937 155.563 143.278 151.367 144.235Z" fill="url(#paint6_linear)"/>
<path d="M160.158 99.1505C159.516 96.0317 143.647 96.3987 145.023 101.535C146.399 106.672 161.718 104.012 160.158 99.1505Z" fill="#133353"/>
<path d="M195.25 99.1904C196.215 96.1561 211.959 98.1829 210.053 103.147C208.146 108.112 193.19 103.862 195.25 99.1904Z" fill="#133353"/>
<path d="M169.973 127.312C168.812 125.516 173.612 108.263 175.936 99.5177H178.504C180.645 108.935 183.512 127.164 182.368 128.447C181.142 129.823 171.288 129.343 169.973 127.312Z" fill="url(#paint7_linear)"/>
<path d="M155.089 111.408C155.01 113.187 154.713 114.619 153.212 114.553C151.712 114.487 151.541 113.034 151.62 111.255C151.698 109.476 152.163 108.051 153.496 108.11C154.83 108.169 155.167 109.629 155.089 111.408Z" fill="#133353"/>
<path d="M203.092 113.426C203.014 115.205 202.716 116.637 201.216 116.571C199.715 116.505 199.545 115.052 199.623 113.273C199.701 111.494 200.166 110.069 201.499 110.128C202.833 110.187 203.17 111.647 203.092 113.426Z" fill="#133353"/>
<path fill-rule="evenodd" clip-rule="evenodd" d="M189.385 145.092C182.953 151.803 171.579 150.381 166.947 145.716L167.268 144.707C173.505 148.684 181.287 148.676 187.375 142.953L189.385 145.092Z" fill="#F9DBC0"/>
<path fill-rule="evenodd" clip-rule="evenodd" d="M143.173 103.665L153.721 128.59C152.954 128.606 152.183 128.576 151.413 128.498C151.093 128.466 150.774 128.426 150.457 128.378L141.605 105.107C142.096 104.599 142.62 104.117 143.173 103.665Z" fill="white" fill-opacity="0.4"/>
<path d="M146.583 127.228L140.712 105.305L139.52 106.956L144.473 127.228H146.583Z" fill="white" fill-opacity="0.4"/>
<path fill-rule="evenodd" clip-rule="evenodd" d="M162.707 103.215C167.762 107.596 169.589 114.8 166.829 120.894C164.154 126.798 157.565 129.447 151.116 128.798C144.671 128.15 138.686 124.252 137.307 117.924C135.927 111.587 139.724 105.515 145.336 102.265C150.884 99.0524 157.862 99.0155 162.707 103.215Z" fill="white" fill-opacity="0.3" stroke="#172E47" stroke-width="2.20149"/>
<path d="M196.534 129.615L187.866 107.508C188.633 107.492 187.882 105.752 188.652 105.829C188.972 105.862 189.291 105.902 189.608 105.95L198.46 129.22C197.969 129.729 197.087 129.163 196.534 129.615Z" fill="white" fill-opacity="0.4"/>
<path d="M191.464 104.566L199.309 130.349L200.837 128.746L192.957 103.61L191.464 104.566Z" fill="white" fill-opacity="0.4"/>
<path fill-rule="evenodd" clip-rule="evenodd" d="M191.989 126.389C186.933 122.007 185.106 114.803 187.867 108.71C190.542 102.805 197.13 100.156 203.58 100.805C210.024 101.454 216.009 105.351 217.388 111.68C218.769 118.016 214.972 124.088 209.36 127.338C203.812 130.551 196.834 130.588 191.989 126.389Z" fill="white" fill-opacity="0.3" stroke="#172E47" stroke-width="2.20149"/>
<path d="M166.763 108.057C170.188 104.724 180.082 100.297 187.494 109.249" stroke="#172E47" stroke-width="2.20149"/>
<path d="M136.775 376.863C138.35 351.061 140.49 323.06 141.996 304.99L146.375 304.56L162.727 305.357C161.687 319.728 157.774 351.735 150.435 364.798C145.979 372.729 140.892 375.921 136.775 376.863Z" fill="url(#paint8_linear)"/>
<path d="M233.542 334.993C232.887 340.999 232.112 351.676 231.631 359.495C228.201 360.901 224.933 361.739 222.414 361.431C199.958 351.157 181.807 318.657 176.119 304.898L184.621 303.275L233.542 334.993Z" fill="url(#paint9_linear)"/>
<path d="M30.729 223.176C38.2051 225.699 52.7441 237.761 52.7441 237.761L42.0473 247.208L21.2809 245.099C21.2809 245.099 30.2145 223.003 30.729 223.176Z" fill="#F6CEA9"/>
<path d="M41.8286 247.167L51.946 237.138C64.6963 244.66 78.6217 247.926 90.8116 245.833C106.927 243.066 104.38 208.219 157.464 192.725C164.567 190.652 170.103 189.22 175.523 188.219C175.768 193.478 178.596 200.694 185.843 200.694C194.353 200.694 195.153 192.817 195.795 188.219L217.581 192.725C248.402 200.602 281.311 238.29 288.946 262.16C299.77 296 287.955 319.059 248.035 322.785C226.02 324.84 211.833 317.526 204.739 301.504L215.746 296C230.423 307.252 262.491 320.657 273.352 284.259C260.893 254.958 240.969 224.422 227.192 205.421L183.274 305.54H152.086C150.948 325.158 147.867 349.596 147.867 353.973C139.941 358.963 126.219 356.052 120.348 353.973L132.09 260.142C82.9229 300.87 52.2398 260.192 41.8286 247.167Z" fill="#E2EFFB"/>
<path d="M157.682 192.725L152.27 305.54H184.011L226.031 205.421C229.243 210.051 232.804 215.366 236.526 221.181L237.344 202.956C230.297 198.096 223.322 194.458 216.835 192.725L195.991 188.219C195.377 192.817 194.612 200.694 186.469 200.694C179.535 200.694 175.161 194.12 174.927 188.861C169.934 189.825 164.141 190.766 157.682 192.725Z" fill="#C4DBEF"/>
<path d="M125.027 205.38C123.228 212.171 122.211 220.224 122.328 222.095C122.438 223.859 126.457 223.834 130.045 223.812C132.428 223.797 134.621 223.784 135.354 224.296C136.499 225.098 134.428 228.329 132.486 231.359C131.317 233.183 130.195 234.934 129.85 236.038C129.118 238.379 142.271 283.625 152.351 305.568L157.682 192.653C147.592 195.772 141.538 197.767 125.027 205.38Z" fill="url(#paint10_linear)"/>
<path d="M250.328 208.041C249.12 214.961 238.814 232.536 237.925 234.187C237.087 235.742 233.447 234.039 230.197 232.517C228.039 231.507 226.052 230.577 225.173 230.736C223.798 230.985 224.327 234.787 224.822 238.35C225.121 240.497 225.408 242.557 225.259 243.703C224.944 246.136 204.912 284.791 186.576 300.504L218.132 192.654C229.23 197.493 228.221 196.117 250.328 208.041Z" fill="url(#paint11_linear)"/>
<path d="M157.636 192.655C161.995 202.538 171.102 222.453 173.222 224.308C175.354 226.173 183.216 209.54 186.88 200.99C190.377 209.158 197.96 225.256 200.308 224.308C202.495 223.425 211.9 204.143 217.994 192.851C209.325 190.833 203.506 189.829 195.725 188.219C195.083 192.817 194.582 200.648 186.072 200.648C179.033 200.648 176.51 193.127 175.821 187.99C170.463 188.98 164.631 190.617 157.636 192.655Z" fill="white"/>
<path d="M171.35 251.971L184.742 222.25L187.861 220.416L199.969 251.971L184.742 294.166L171.35 251.971Z" fill="url(#paint12_linear)"/>
<path d="M177.982 219.234C181.043 214.023 184.711 206.07 186.892 200.981C188.98 205.857 192.523 213.558 195.54 218.772C193.881 221.725 191.191 224.589 187.231 225.039C182.652 225.56 179.648 222.36 177.982 219.234Z" fill="url(#paint13_linear)"/>
<path d="M251.337 328.939L292.707 246.475L278.027 248.271L235.193 331.783L251.337 328.939Z" fill="#5C468A"/>
<path d="M247.906 329.839L289.582 247.473L276.448 248.455L234.642 332.517L247.906 329.839Z" fill="#FFF6D6"/>
<path d="M232.802 207.829C228.075 209.937 217.839 210.16 217.839 210.16L276.379 248.677L292.775 246.475C292.775 246.475 233.273 207.619 232.802 207.829Z" fill="#5C468A"/>
<path d="M228.108 209.828L218.75 211.71L273.994 252.162L289.588 247.484L233.567 210.868C231.963 209.821 230.003 209.447 228.108 209.828Z" fill="#F8E7AD"/>
<path d="M217.399 211.963C216.598 211.347 216.859 210.095 217.834 209.874L228.668 207.414C230.567 206.983 232.576 207.426 234.14 208.621L234.321 208.76L217.399 211.963Z" fill="#5C468A"/>
<path d="M174.801 298.38L217.043 210.606L276.54 248.493L233.587 335.222L174.801 298.38Z" fill="#5C468A"/>
<path d="M265.74 269.106L253.826 293.762L233.576 335.246L174.443 298.508L196.342 254.023L215.012 214.825C222.557 218.075 237.138 228.675 247.395 248.776C252.896 259.556 259.433 264.612 265.74 269.106Z" fill="url(#paint14_linear)"/>
<path d="M224.295 210.617L218.773 211.699L217.065 210.617C217.197 210.335 217.413 210.024 217.787 209.956L222.488 208.867C222.832 209.372 223.578 210.277 224.295 210.617Z" fill="url(#paint15_linear)"/>
<path d="M242.386 244.454C241.616 241.94 237.717 243.135 238.487 245.649C238.918 247.054 239.268 252.351 235.964 253.236C232.661 254.12 231.243 248.317 230.878 245.368C230.404 241.539 225.275 242.687 226.5 246.093C227.827 249.778 232.785 253.607 228.809 257.266C224.833 260.925 219.754 256.646 217.362 257.482C214.879 258.349 216.224 262.199 218.706 261.332C220.437 260.728 224.352 260.219 225.49 261.112C226.628 262.006 226.786 264.029 225.772 264.813C224.759 265.597 221.266 266.491 220.062 267.285C216.997 269.308 220.464 273.057 223.046 270.499C224.225 269.331 227.373 264.62 229.563 266.63C231.753 268.64 227.591 272.844 226.425 274.545C224.937 276.714 228.3 279.02 229.788 276.852C231.169 274.837 230.652 268.935 233.853 268.55C237.054 268.165 236.951 274.653 238.017 276.217C239.498 278.39 242.868 276.093 241.387 273.92C238.788 270.107 238.451 268.875 240.779 265.949C243.108 263.022 246.83 265.527 250.088 268.08C253.345 270.633 256.084 263.797 251.504 263.61C246.924 263.423 244.362 262.193 244.64 259.822C244.919 257.45 250.856 254.206 253.865 252.22C257.476 249.837 252.257 245.805 250.176 249.903C249.22 251.789 245.758 256.283 242.456 254.566C239.155 252.849 243.029 246.55 242.386 244.454Z" fill="#A78CDF"/>
<path d="M191.576 258.859C191.649 255.006 194.205 253.706 195.474 253.538L197.492 261.61L198.96 267.389L200.015 275.828L194.236 278.626C193.318 273.642 191.502 262.711 191.576 258.859Z" fill="#F6CEA9"/>
<path d="M188.182 267.436C188.072 264.354 190.551 262.911 191.805 262.574L196.804 271.426L197.446 278.535L193.089 282.892C191.499 279.024 188.292 270.518 188.182 267.436Z" fill="#F6CEA9"/>
<path d="M191.805 262.666C191.922 266.737 192.443 275.029 193.926 277.53C194.12 277.743 194.214 277.847 194.144 277.847C194.069 277.755 193.996 277.649 193.926 277.53C192.837 276.339 188.576 271.729 191.805 262.666Z" fill="url(#paint16_linear)"/>
<path d="M197.894 250.317L203.168 239.424C208.03 249.585 209.082 262.347 211.71 263.529C213.542 264.354 214.05 261.093 214.37 258.943C214.691 256.786 214.627 249.932 219.048 250.391C221.846 251.008 220.547 266.687 220.424 275.921L215.086 284.813L199.859 286.28L198.024 267.568V251.24L197.894 250.317Z" fill="url(#paint17_linear)"/>
<path d="M263.996 322.518C288.762 318.115 304.356 296.467 288.762 261.243L271.816 280.828C253.103 294.518 252.988 300.885 216.021 295.358L204.624 300.885C213.361 313.345 242.226 326.388 263.996 322.518Z" fill="#E2EFFB"/>
<path d="M23.2848 222.724L28.5868 222.745L22.7139 238.24L18.1475 236.356L23.2848 222.724Z" fill="#F6CEA9"/>
<path d="M27.1473 227.679C27.1473 227.679 28.7402 233.776 28.8487 234.368C29.0911 235.689 25.1377 237.617 24.5902 237.545C23.6019 237.415 21.7379 228.604 21.7379 228.604L27.1473 227.679Z" fill="url(#paint18_linear)"/>
<path d="M220.791 279.956C219.28 286.491 218.376 290.864 215.93 295.45L204.739 300.954C200.762 297.085 197.986 293.036 196.116 288.945C192.63 281.32 192.424 282.754 192.585 279.841C192.756 276.735 200.484 256.496 204.991 265.784C206.504 268.903 207.94 272.878 209.509 273.352C210.244 273.573 211.61 273.619 211.894 272.701C214.921 262.894 217.306 256.328 218.131 254.539C218.957 252.75 221.479 253.897 221.8 254.539C222.121 255.181 221.394 277.35 220.791 279.956Z" fill="#F6CEA9"/>
<path d="M16.3016 247.095C7.08805 249.826 0.36692 258.356 0.36692 268.456C0.36692 280.759 10.3406 290.733 22.6439 290.733C34.9471 290.733 44.9208 280.759 44.9208 268.456C44.9208 258.356 38.1997 249.826 28.9862 247.095H16.3016Z" fill="#D5E7F7"/>
<path d="M15.2271 212.214C14.5203 211.943 33.3463 211.338 30.6834 212.627C26.4639 214.668 27.7021 247.093 27.7021 247.093H17.3367C17.3367 247.093 18.9421 213.636 15.2271 212.214Z" fill="#D5E7F7"/>
<mask id="mask0" style="mask-type:alpha" maskUnits="userSpaceOnUse" x="0" y="210" width="45" height="81">
<path d="M16.6144 248.15L17.4023 247.917V247.095V213.723C17.4023 212.409 18.4674 211.344 19.7814 211.344H25.5064C26.8203 211.344 27.8854 212.409 27.8854 213.723V247.095V247.917L28.6733 248.15C37.4323 250.747 43.8201 258.857 43.8201 268.456C43.8201 280.151 34.3392 289.632 22.6439 289.632C10.9486 289.632 1.46767 280.151 1.46767 268.456C1.46767 258.857 7.8554 250.747 16.6144 248.15Z" fill="#D5E7F7" stroke="#DFF0FF" stroke-width="2.20149"/>
</mask>
<g mask="url(#mask0)">
<path d="M44.9208 268.647C25.6554 254.153 20.237 283.141 0.971561 268.647V292.199H44.9208V268.647Z" fill="url(#paint19_linear)"/>
<path d="M0.971457 268.647C20.2369 254.153 25.6553 283.141 44.9207 268.647V292.199H0.971457V268.647Z" fill="url(#paint20_linear)"/>
<path fill-rule="evenodd" clip-rule="evenodd" d="M24.4536 264.741C26.0624 265.239 27.8769 264.76 28.8087 263.357C29.7149 261.992 29.3297 260.22 28.3065 258.941C27.3337 257.725 25.7377 257.161 24.2718 257.686C22.7986 258.214 21.8872 259.663 21.9275 261.227C21.9686 262.821 22.9299 264.27 24.4536 264.741Z" fill="#755CA9"/>
<path fill-rule="evenodd" clip-rule="evenodd" d="M15.8192 256.867C14.9646 256.619 14.1394 256.076 14.0842 255.188C14.0244 254.227 14.6661 253.345 15.5816 253.047C16.4215 252.774 17.244 253.287 17.7873 253.983C18.3366 254.687 18.6818 255.637 18.1785 256.374C17.6778 257.108 16.6724 257.114 15.8192 256.867Z" fill="#755CA9"/>
</g>
<mask id="path-59-inside-1" fill="white">
<path fill-rule="evenodd" clip-rule="evenodd" d="M16.3015 216.177L12.7928 212.641C11.8738 211.714 12.5299 210.139 13.8347 210.139H31.8365C33.1412 210.139 33.7973 211.714 32.8784 212.641L28.9861 216.564V247.095C38.1996 249.827 44.9207 258.357 44.9207 268.457C44.9207 280.76 34.947 290.734 22.6438 290.734C10.3406 290.734 0.366842 280.76 0.366842 268.457C0.366842 258.357 7.08797 249.827 16.3015 247.095V216.177Z"/>
</mask>
<path d="M16.3015 216.177H18.503V215.271L17.8643 214.627L16.3015 216.177ZM12.7928 212.641L11.2299 214.191L12.7928 212.641ZM32.8784 212.641L34.4412 214.191V214.191L32.8784 212.641ZM28.9861 216.564L27.4232 215.014L26.7846 215.657V216.564H28.9861ZM28.9861 247.095H26.7846V248.739L28.3604 249.206L28.9861 247.095ZM16.3015 247.095L16.9272 249.206L18.503 248.739V247.095H16.3015ZM17.8643 214.627L14.3556 211.09L11.2299 214.191L14.7386 217.728L17.8643 214.627ZM14.3556 211.09C14.8151 211.553 14.487 212.341 13.8347 212.341V207.938C10.5728 207.938 8.9326 211.876 11.2299 214.191L14.3556 211.09ZM13.8347 212.341H31.8365V207.938H13.8347V212.341ZM31.8365 212.341C31.1841 212.341 30.8561 211.553 31.3155 211.09L34.4412 214.191C36.7385 211.876 35.0983 207.938 31.8365 207.938V212.341ZM31.3155 211.09L27.4232 215.014L30.549 218.115L34.4412 214.191L31.3155 211.09ZM31.1876 247.095V216.564H26.7846V247.095H31.1876ZM47.1222 268.457C47.1222 257.355 39.7343 247.986 29.6118 244.985L28.3604 249.206C36.6649 251.668 42.7192 259.358 42.7192 268.457H47.1222ZM22.6438 292.935C36.1629 292.935 47.1222 281.976 47.1222 268.457H42.7192C42.7192 279.544 33.7312 288.532 22.6438 288.532V292.935ZM-1.83465 268.457C-1.83465 281.976 9.12472 292.935 22.6438 292.935V288.532C11.5564 288.532 2.56834 279.544 2.56834 268.457H-1.83465ZM15.6757 244.985C5.55325 247.986 -1.83465 257.355 -1.83465 268.457H2.56834C2.56834 259.358 8.62268 251.668 16.9272 249.206L15.6757 244.985ZM14.1 216.177V247.095H18.503V216.177H14.1Z" fill="#DFF0FF" mask="url(#path-59-inside-1)"/>
<path d="M16.8655 215.868C20.7043 216.861 36.3173 225.954 36.3173 225.954L30.2551 236.222C30.2551 236.222 15.4101 221.697 15.0361 221.093C14.6093 220.404 15.9091 215.62 16.8655 215.868Z" fill="#F6CEA9"/>
<path d="M16.0781 245.369C13.7678 245.553 6.26297 238.581 6.26307 236.425C6.26317 234.27 7.86829 229.408 7.86829 229.408C9.23838 231.741 17.3853 242.525 17.474 242.686C17.5849 242.886 16.762 245.315 16.0781 245.369Z" fill="#F6CEA9"/>
<path d="M16.3775 241.209C14.0673 241.393 6.09962 234.184 6.09973 232.028C6.09983 229.873 7.70494 225.011 7.70494 225.011C9.07503 227.344 17.4657 238.345 17.5544 238.506C17.6654 238.706 17.0614 241.154 16.3775 241.209Z" fill="#F6CEA9"/>
<path d="M15.5845 235.936C14.6467 234.28 8.54598 226.81 7.72817 224.988C7.72817 224.988 6.37703 229.689 6.37517 229.895C6.36649 230.86 17.3138 238.403 17.3138 238.403L15.5845 235.936Z" fill="url(#paint21_linear)"/>
<path d="M6.65031 222.26C6.94981 220.572 8.68363 218.405 9.72053 217.233C10.1686 216.727 10.9111 216.634 11.4914 216.981L16.404 219.921L16.404 223.774C16.404 223.774 20.3605 234.429 20.4402 234.864C20.6826 236.185 17.5493 237.764 17.0018 237.692C16.0135 237.562 6.27884 224.354 6.65031 222.26Z" fill="#F6CEA9"/>
<path d="M199.51 247.118C200.089 248.973 204.585 264.607 206.939 272.068V274.912L199.418 279.865C197.552 272.221 195.942 257.562 195.542 256.142C192.883 246.682 199.109 245.834 199.51 247.118Z" fill="#F6CEA9"/>
<path d="M195.015 253.676C195.856 260.235 198.511 273.636 200.565 274.774C200.419 274.673 193.089 277.801 195.015 253.676Z" fill="url(#paint22_linear)"/>
</g>
<defs>
<linearGradient id="paint0_linear" x1="185.843" y1="167.344" x2="185.843" y2="204.02" gradientUnits="userSpaceOnUse">
<stop stop-color="#F0B580"/>
<stop offset="1" stop-color="#F9DBC0"/>
</linearGradient>
<linearGradient id="paint1_linear" x1="261.794" y1="124.193" x2="249.319" y2="126.67" gradientUnits="userSpaceOnUse">
<stop stop-color="#F4C092"/>
<stop offset="1" stop-color="#F9DBC0"/>
</linearGradient>
<radialGradient id="paint2_radial" cx="0" cy="0" r="1" gradientUnits="userSpaceOnUse" gradientTransform="translate(150.114 131.542) rotate(90) scale(8.26249 11.49)">
<stop stop-color="#F0B580"/>
<stop offset="1" stop-color="#F9DBC0"/>
</radialGradient>
<radialGradient id="paint3_radial" cx="0" cy="0" r="1" gradientUnits="userSpaceOnUse" gradientTransform="translate(203.234 131.084) rotate(90) scale(8.26249 11.49)">
<stop stop-color="#F0B580"/>
<stop offset="1" stop-color="#F9DBC0"/>
</radialGradient>
<linearGradient id="paint4_linear" x1="89.5273" y1="66.6781" x2="146.766" y2="51.2676" gradientUnits="userSpaceOnUse">
<stop stop-color="#1F4469"/>
<stop offset="1" stop-color="#123252"/>
</linearGradient>
<linearGradient id="paint5_linear" x1="235.804" y1="75.4847" x2="235.437" y2="141.53" gradientUnits="userSpaceOnUse">
<stop stop-color="#123252"/>
<stop offset="1" stop-color="#04080D"/>
</linearGradient>
<linearGradient id="paint6_linear" x1="222.718" y1="118.184" x2="211.448" y2="150.635" gradientUnits="userSpaceOnUse">
<stop offset="0.00120852" stop-color="#091624"/>
<stop offset="0.686893" stop-color="#123252"/>
</linearGradient>
<linearGradient id="paint7_linear" x1="176.441" y1="99.5177" x2="176.441" y2="129.955" gradientUnits="userSpaceOnUse">
<stop stop-color="#F9DBC0"/>
<stop offset="1" stop-color="#F0B580"/>
</linearGradient>
<linearGradient id="paint8_linear" x1="129.521" y1="323.153" x2="156.856" y2="331.592" gradientUnits="userSpaceOnUse">
<stop stop-color="#2D4053"/>
<stop offset="1" stop-color="#445C75"/>
</linearGradient>
<linearGradient id="paint9_linear" x1="217.581" y1="293.799" x2="189.723" y2="322.118" gradientUnits="userSpaceOnUse">
<stop stop-color="#2D4053"/>
<stop offset="1" stop-color="#445C75"/>
</linearGradient>
<linearGradient id="paint10_linear" x1="107.873" y1="259.309" x2="160.342" y2="253.438" gradientUnits="userSpaceOnUse">
<stop stop-color="#B2CDE7"/>
<stop offset="1" stop-color="#9CBCDB"/>
</linearGradient>
<linearGradient id="paint11_linear" x1="235.484" y1="274.034" x2="190.284" y2="246.75" gradientUnits="userSpaceOnUse">
<stop stop-color="#B2CDE7"/>
<stop offset="1" stop-color="#9CBCDB"/>
</linearGradient>
<linearGradient id="paint12_linear" x1="185.659" y1="220.416" x2="185.659" y2="294.166" gradientUnits="userSpaceOnUse">
<stop stop-color="#2A4056"/>
<stop offset="1" stop-color="#445C75"/>
</linearGradient>
<linearGradient id="paint13_linear" x1="186.761" y1="200.981" x2="186.761" y2="225.095" gradientUnits="userSpaceOnUse">
<stop stop-color="#2A4056"/>
<stop offset="1" stop-color="#445C75"/>
</linearGradient>
<linearGradient id="paint14_linear" x1="251.227" y1="247.858" x2="189.589" y2="296.177" gradientUnits="userSpaceOnUse">
<stop offset="0.0365479" stop-color="#5C468A"/>
<stop offset="0.688339" stop-color="#3D2C61"/>
</linearGradient>
<linearGradient id="paint15_linear" x1="221.185" y1="208.957" x2="217.976" y2="211.591" gradientUnits="userSpaceOnUse">
<stop stop-color="#5C468A"/>
<stop offset="1" stop-color="#2C1C4F"/>
</linearGradient>
<linearGradient id="paint16_linear" x1="193.008" y1="268.482" x2="188.518" y2="271.615" gradientUnits="userSpaceOnUse">
<stop stop-color="#EEB989"/>
<stop offset="1" stop-color="#F6CEA9"/>
</linearGradient>
<linearGradient id="paint17_linear" x1="210.421" y1="248.585" x2="197.436" y2="272.328" gradientUnits="userSpaceOnUse">
<stop offset="0.0365479" stop-color="#4A3772"/>
<stop offset="0.854537" stop-color="#332355"/>
</linearGradient>
<linearGradient id="paint18_linear" x1="27.9562" y1="229.604" x2="24.0894" y2="233.813" gradientUnits="userSpaceOnUse">
<stop stop-color="#EDF6FE"/>
<stop offset="1" stop-color="#C6DDF1"/>
</linearGradient>
<linearGradient id="paint19_linear" x1="22.9462" y1="264.463" x2="22.9462" y2="292.199" gradientUnits="userSpaceOnUse">
<stop stop-color="#A188D6"/>
<stop offset="1" stop-color="#E952DA"/>
</linearGradient>
<linearGradient id="paint20_linear" x1="22.9461" y1="264.463" x2="22.9461" y2="292.199" gradientUnits="userSpaceOnUse">
<stop stop-color="#755CA9"/>
<stop offset="1" stop-color="#A231CA"/>
</linearGradient>
<linearGradient id="paint21_linear" x1="15.055" y1="233.078" x2="12.8696" y2="235.37" gradientUnits="userSpaceOnUse">
<stop stop-color="#EEB989"/>
<stop offset="1" stop-color="#F6CEA9"/>
</linearGradient>
<linearGradient id="paint22_linear" x1="198.831" y1="261.908" x2="192.469" y2="266.713" gradientUnits="userSpaceOnUse">
<stop stop-color="#EEB989"/>
<stop offset="1" stop-color="#F6CEA9"/>
</linearGradient>
<clipPath id="clip0">
<rect width="295" height="430.025" fill="white"/>
</clipPath>
</defs>
</svg>
