<svg width="111" height="24" viewBox="0 0 111 24" fill="none" xmlns="http://www.w3.org/2000/svg">
<g clip-path="url(#clip0)">
<path d="M88.066 20.509H110.871V23.482H88.066V20.509ZM88.066 10.546H110.871V13.519H88.066V10.546ZM88.066 0.586039H110.871V3.55904H88.066V0.586039ZM39.232 23.962C32.608 23.962 27.239 18.607 27.239 12.001C27.239 5.39504 32.609 0.0400391 39.232 0.0400391C45.856 0.0400391 51.225 5.39504 51.225 12.001C51.219 18.604 45.853 23.955 39.232 23.962ZM39.232 3.01304C34.248 3.01304 30.208 7.04304 30.208 12.013C30.208 16.983 34.248 21.013 39.232 21.013C44.216 21.013 48.256 16.983 48.256 12.013C48.2573 10.8295 48.0249 9.65733 47.572 8.56384C47.1191 7.47036 46.4547 6.47708 45.617 5.64104C43.9224 3.95005 41.626 3.00057 39.232 3.00104V3.01304ZM77.462 3.43904V20.458H60.397V3.43904H77.462ZM80.443 0.466039H57.416V23.431H80.443V0.466039ZM0.0839844 0.529039H3.06498V23.473H0.0839844V0.529039ZM19.935 23.371L8.58498 12.052L20.037 0.631039L22.143 2.73104L12.8 12.052L22.04 21.271L19.935 23.371Z" fill="#363636"/>
</g>
<defs>
<clipPath id="clip0">
<rect width="111" height="24" fill="white" transform="translate(0 0.000976562)"/>
</clipPath>
</defs>
</svg>
