<svg width="651" height="635" viewBox="0 0 651 635" fill="none" xmlns="http://www.w3.org/2000/svg">
<path d="M68.9202 144.585C68.9202 157.414 11.9427 147.385 5.90533 179.836C3.78135 191.252 2.88665 205.117 13.8295 212.505C29.9105 223.361 52.3174 233.635 53.0721 249.483C53.8267 265.331 28.168 267.377 28.168 302.847C28.168 330.987 68.9202 357.401 68.9202 374.003C68.9202 390.606 48.544 376.627 48.544 402.463C48.544 424.725 72.6933 483.212 117.973 483.212C163.253 483.212 171.555 384.569 179.102 330.987C172.813 327.717 162.348 315.139 170.8 290.99C181.366 260.803 164.008 257.785 150.424 237.409C136.84 217.033 170.046 210.241 174.574 185.337C179.102 160.433 147.406 164.206 132.312 155.905C117.219 147.603 150.424 69.8728 99.8615 66.0995C49.2989 62.3261 68.9202 131.755 68.9202 144.585Z" fill="white" stroke="white" stroke-width="8"/>
<path fill-rule="evenodd" clip-rule="evenodd" d="M103.005 480.978C107.704 482.417 112.695 483.212 117.973 483.212C158.999 483.212 169.668 402.234 176.924 347.164L176.925 347.162L176.927 347.145L176.943 347.024C177.202 345.056 177.457 343.122 177.709 341.226L101.997 398.62L103.005 480.978ZM101.929 392.991L178.559 334.9C178.741 333.571 178.921 332.266 179.102 330.987C172.813 327.717 162.348 315.139 170.8 290.99C178.484 269.036 171.399 261.452 161.737 251.11L161.736 251.108C161.554 250.914 161.372 250.719 161.189 250.523L160.807 250.113L100.992 316.43L101.929 392.991ZM100.91 309.76L157.738 246.756C155.298 244.013 152.803 240.977 150.424 237.409C142.773 225.932 149.965 218.765 158.517 210.244C165.148 203.636 172.596 196.214 174.574 185.337C177.062 171.651 168.611 166.626 157.988 163.498L99.9957 234.984L100.91 309.76ZM99.9091 227.904L153.193 162.221C151.797 161.878 150.387 161.55 148.981 161.223C142.881 159.803 136.847 158.399 132.312 155.905C126.927 152.943 127.69 141.144 128.603 127.019C128.982 121.158 129.387 114.896 129.389 108.699L99.0165 154.932L99.9091 227.904ZM98.9174 146.836L129.139 100.834C127.914 83.1605 121.704 67.7295 99.8615 66.0995C99.2054 66.0505 98.5611 66.0139 97.9285 65.9893L98.9174 146.836ZM93.4006 66.026C74.0257 67.1638 67.253 81.1329 65.6076 97.1296L94.2905 138.775L93.4006 66.026ZM94.3899 146.902L95.328 223.595L49.5416 153.002C60.3693 151.094 68.9202 149.555 68.9202 144.585C68.9202 142.516 68.41 138.976 67.7662 134.508C66.6059 126.456 65.0115 115.392 65.1869 104.501L94.3899 146.902ZM95.4318 232.076L96.7964 343.63L43.2638 266.305C43.6468 265.909 44.0263 265.52 44.4007 265.136C49.3234 260.085 53.3787 255.924 53.0721 249.483C52.4621 236.673 37.7054 227.505 23.5777 218.727C20.2272 216.646 16.9121 214.586 13.8295 212.505C2.88665 205.117 3.78135 191.252 5.90533 179.836C9.26458 161.78 28.3948 156.875 44.7055 153.867L95.4318 232.076ZM96.8849 350.87L96.4906 351.143L40.1041 269.696C34.0535 276.538 28.168 285.859 28.168 302.847C28.168 318.762 41.2037 334.126 52.5298 347.474C61.2293 357.727 68.9202 366.791 68.9202 374.003C68.9202 381.391 64.8861 382.724 60.4079 384.203C56.7865 385.399 52.8747 386.692 50.5708 391.359L97.8667 431.131L96.8849 350.87ZM97.9327 436.528L97.6496 436.865L49.0788 396.021C48.7345 397.838 48.544 399.964 48.544 402.463C48.544 421.275 65.7887 465.955 98.4566 479.351L97.9327 436.528Z" fill="#FFEFD9"/>
<path fill-rule="evenodd" clip-rule="evenodd" d="M239.141 147.32C303.651 149.722 363.004 174.692 405.523 218.695C450.903 265.66 485.457 325.764 470.413 386.668C455.31 447.813 394.968 487.504 332.483 514.4C273.435 543.586 200.894 549.511 139.104 522.456C76.4667 492.269 25.7424 411.559 16.848 357.938C1.32737 297.189 11.465 254.179 54.6744 205.633C97.6765 157.32 170.679 144.771 239.141 147.32Z" fill="#D3EFED"/>
<path fill-rule="evenodd" clip-rule="evenodd" d="M239.141 147.32C303.651 149.722 363.004 174.692 405.523 218.695C450.903 265.66 485.457 325.764 470.413 386.668C455.31 447.813 394.968 487.504 332.483 514.4C273.435 543.586 200.894 549.511 139.104 522.456C76.4667 492.269 25.7424 411.559 16.848 357.938C1.32737 297.189 11.465 254.179 54.6744 205.633C97.6765 157.32 170.679 144.771 239.141 147.32Z" fill="#D3EFED"/>
<path fill-rule="evenodd" clip-rule="evenodd" d="M239.141 147.32C303.651 149.722 363.004 174.692 405.523 218.695C450.903 265.66 485.457 325.764 470.413 386.668C455.31 447.813 394.968 487.504 332.483 514.4C273.435 543.586 200.894 549.511 139.104 522.456C76.4667 492.269 25.7424 411.559 16.848 357.938C1.32737 297.189 11.465 254.179 54.6744 205.633C97.6765 157.32 170.679 144.771 239.141 147.32Z" fill="#D3EFED"/>
<path d="M517.947 216.978C499.602 233.285 466.956 238.108 466.956 266.188C468.139 280.208 479.587 286.337 485.977 290.131C493.346 294.506 499.483 299.398 502.099 312.066C504.715 324.733 491.793 328.07 483.12 332.358C469.658 339.014 453.646 346.93 459.613 369.42C461.816 377.727 463.996 379.341 471.27 384.73C475.094 387.563 480.326 391.438 487.71 397.877C494.095 403.446 497.758 413.402 494.552 420.576L494.505 420.681C489.575 431.712 483.939 444.324 510.4 457.555C538.32 463.823 545.838 453.684 550.071 448.895C554.304 453.684 568.287 460.368 596.207 454.1C622.752 440.827 629.295 428.179 624.355 417.123C621.149 409.949 610.637 400.648 617.022 395.079C624.405 388.64 625.048 387.563 628.872 384.73C636.146 379.341 644.791 374.708 646.995 366.402C646.995 339.234 630.484 339.014 617.022 332.358C608.35 328.07 606.746 324.895 605.488 321.122C602.469 312.066 603.979 302.848 613.035 294.709C619.425 290.915 635.272 287.086 640.53 271.314C651.85 237.354 604.733 219.997 595.677 219.997C590.395 135.474 555.066 143.377 538.323 164.151C521.292 185.282 524.739 210.94 517.947 216.978Z" fill="#FFEFD9"/>
<path d="M466.956 266.188H462.956V266.356L462.97 266.524L466.956 266.188ZM517.947 216.978L515.289 213.988H515.289L517.947 216.978ZM485.977 290.131L488.019 286.692L488.019 286.692L485.977 290.131ZM483.12 332.358L484.893 335.943H484.893L483.12 332.358ZM459.613 369.42L463.479 368.395H463.479L459.613 369.42ZM471.27 384.73L468.889 387.944L468.889 387.944L471.27 384.73ZM487.71 397.877L485.081 400.892L487.71 397.877ZM494.552 420.576L490.9 418.944L490.9 418.944L494.552 420.576ZM510.4 457.555L508.611 461.132L509.048 461.351L509.524 461.458L510.4 457.555ZM494.505 420.681L498.157 422.313L498.157 422.313L494.505 420.681ZM550.071 448.895L553.068 446.246L550.071 442.855L547.074 446.246L550.071 448.895ZM596.207 454.1L597.083 458.003L597.559 457.896L597.996 457.678L596.207 454.1ZM624.355 417.123L628.007 415.491L624.355 417.123ZM617.022 395.079L619.651 398.094L617.022 395.079ZM628.872 384.73L631.253 387.944L631.253 387.944L628.872 384.73ZM646.995 366.402L650.861 367.428L650.995 366.923V366.402H646.995ZM617.022 332.358L615.249 335.943H615.249L617.022 332.358ZM605.488 321.122L601.693 322.387V322.387L605.488 321.122ZM613.035 294.709L610.993 291.269L610.654 291.47L610.361 291.734L613.035 294.709ZM640.53 271.314L644.324 272.579V272.579L640.53 271.314ZM595.677 219.997L591.685 220.246L591.92 223.997H595.677V219.997ZM538.323 164.151L541.437 166.661L538.323 164.151ZM470.956 266.188C470.956 254.175 477.721 247.002 487.743 240.528C492.837 237.237 498.394 234.362 504.207 231.081C509.891 227.872 515.683 224.342 520.604 219.967L515.289 213.988C511.038 217.767 505.87 220.955 500.274 224.114C494.806 227.201 488.761 230.345 483.401 233.808C472.514 240.842 462.956 250.122 462.956 266.188H470.956ZM488.019 286.692C481.283 282.693 471.926 277.52 470.942 265.852L462.97 266.524C464.351 282.896 477.891 289.982 483.935 293.571L488.019 286.692ZM506.016 311.257C504.597 304.383 502.161 299.367 498.899 295.435C495.674 291.548 491.824 288.951 488.019 286.692L483.935 293.571C487.498 295.686 490.402 297.723 492.742 300.543C495.044 303.318 496.985 307.081 498.181 312.875L506.016 311.257ZM484.893 335.943C487.058 334.873 489.149 334.022 491.802 332.785C494.258 331.641 496.899 330.29 499.223 328.569C501.564 326.835 503.753 324.603 505.1 321.628C506.472 318.599 506.818 315.141 506.016 311.257L498.181 312.875C498.687 315.325 498.399 317.034 497.813 318.327C497.202 319.675 496.108 320.92 494.462 322.14C492.799 323.372 490.746 324.451 488.423 325.534C486.296 326.525 483.518 327.699 481.348 328.772L484.893 335.943ZM463.479 368.395C460.812 358.341 463.091 352.138 467.085 347.591C471.407 342.673 477.997 339.353 484.893 335.943L481.348 328.772C474.782 332.018 466.634 335.985 461.076 342.311C455.19 349.009 452.447 358.01 455.746 370.446L463.479 368.395ZM473.651 381.516C469.875 378.719 467.982 377.283 466.637 375.637C465.425 374.156 464.515 372.302 463.479 368.395L455.746 370.446C456.913 374.845 458.195 377.952 460.443 380.701C462.557 383.287 465.391 385.353 468.889 387.944L473.651 381.516ZM490.339 394.863C482.836 388.319 477.504 384.37 473.651 381.516L468.889 387.944C472.685 390.756 477.817 394.557 485.081 400.892L490.339 394.863ZM498.204 422.208C500.32 417.474 500.056 412.126 498.535 407.4C497.008 402.652 494.101 398.143 490.339 394.863L485.081 400.892C487.704 403.18 489.821 406.434 490.92 409.85C492.026 413.286 491.99 416.504 490.9 418.944L498.204 422.208ZM512.189 453.977C499.38 447.573 495.511 441.886 494.598 437.481C493.622 432.776 495.579 428.082 498.157 422.313L490.853 419.049C488.502 424.311 485.175 431.439 486.764 439.105C488.416 447.072 494.959 454.306 508.611 461.132L512.189 453.977ZM498.157 422.313L498.204 422.208L490.9 418.944L490.853 419.049L498.157 422.313ZM547.074 446.246C544.892 448.714 542.53 451.706 537.638 453.655C532.72 455.614 524.735 456.673 511.276 453.652L509.524 461.458C523.986 464.704 533.72 463.828 540.599 461.087C547.504 458.336 551.017 453.865 553.068 451.544L547.074 446.246ZM547.074 451.544C552.707 457.917 568.521 464.415 597.083 458.003L595.331 450.197C568.052 456.321 555.901 449.451 553.068 446.246L547.074 451.544ZM597.996 457.678C611.503 450.924 620.47 444.077 625.367 437.072C630.445 429.808 631.094 422.399 628.007 415.491L620.703 418.755C622.556 422.903 622.404 427.347 618.81 432.488C615.034 437.889 607.457 444.003 594.418 450.522L597.996 457.678ZM628.007 415.491C627.041 413.331 625.588 411.132 624.268 409.188C622.868 407.128 621.582 405.302 620.568 403.52C619.534 401.704 619.079 400.421 619.011 399.553C618.966 398.982 619.056 398.613 619.651 398.094L614.393 392.065C611.795 394.33 610.804 397.211 611.035 400.175C611.243 402.841 612.419 405.376 613.615 407.478C614.832 409.615 616.376 411.807 617.65 413.683C619.002 415.675 620.065 417.328 620.703 418.755L628.007 415.491ZM619.651 398.094C627.413 391.325 627.569 390.673 631.253 387.944L626.491 381.516C622.526 384.452 621.397 385.956 614.393 392.065L619.651 398.094ZM631.253 387.944C634.523 385.522 638.975 382.667 642.439 379.696C646.064 376.587 649.462 372.703 650.861 367.428L643.129 365.376C642.324 368.407 640.298 370.993 637.23 373.624C634.002 376.393 630.495 378.55 626.491 381.516L631.253 387.944ZM650.995 366.402C650.995 359.219 649.905 353.522 647.858 348.929C645.789 344.285 642.832 340.975 639.43 338.468C636.097 336.011 632.377 334.358 628.875 332.952C625.231 331.49 621.975 330.344 618.795 328.772L615.249 335.943C618.8 337.699 622.657 339.077 625.895 340.377C629.274 341.733 632.206 343.081 634.683 344.907C637.092 346.683 639.104 348.938 640.551 352.185C642.021 355.482 642.995 360.001 642.995 366.402H650.995ZM618.795 328.772C614.684 326.74 612.604 325.139 611.431 323.852C610.336 322.652 609.839 321.525 609.283 319.857L601.693 322.387C602.395 324.492 603.329 326.84 605.519 329.242C607.63 331.558 610.688 333.688 615.249 335.943L618.795 328.772ZM609.283 319.857C607.968 315.913 607.701 312.135 608.61 308.557C609.517 304.989 611.672 301.312 615.709 297.683L610.361 291.734C605.342 296.245 602.214 301.246 600.857 306.586C599.502 311.916 599.989 317.275 601.693 322.387L609.283 319.857ZM615.077 298.148C616.441 297.338 618.33 296.519 620.964 295.302C623.468 294.146 626.401 292.732 629.334 290.89C635.243 287.179 641.309 281.625 644.324 272.579L636.735 270.049C634.493 276.774 630.007 281.021 625.079 284.116C622.595 285.676 620.04 286.917 617.61 288.039C615.312 289.1 612.824 290.182 610.993 291.269L615.077 298.148ZM644.324 272.579C647.483 263.102 646.587 254.596 643.2 247.287C639.863 240.086 634.214 234.252 628.138 229.715C622.045 225.165 615.328 221.774 609.556 219.514C603.941 217.317 598.721 215.997 595.677 215.997V223.997C597.162 223.997 601.227 224.846 606.64 226.964C611.895 229.021 617.948 232.091 623.351 236.125C628.771 240.173 633.344 245.045 635.941 250.65C638.488 256.147 639.236 262.546 636.735 270.049L644.324 272.579ZM520.604 219.967C523.319 217.555 524.591 213.671 525.481 210.12C526.389 206.497 527.215 201.661 528.205 197.068C530.278 187.461 533.51 176.497 541.437 166.661L535.208 161.641C526.105 172.936 522.545 185.367 520.385 195.381C519.26 200.599 518.609 204.63 517.721 208.176C516.814 211.795 515.971 213.382 515.289 213.988L520.604 219.967ZM541.437 166.661C545.305 161.862 550.134 157.96 555.114 155.931C560.021 153.933 564.918 153.791 569.46 156.14C574.099 158.54 579.018 163.874 583.126 174.173C587.23 184.459 590.379 199.353 591.685 220.246L599.67 219.747C598.334 198.378 595.087 182.565 590.557 171.209C586.033 159.868 580.082 152.628 573.136 149.035C566.092 145.391 558.688 145.838 552.096 148.522C545.578 151.177 539.712 156.053 535.208 161.641L541.437 166.661Z" fill="white"/>
<path d="M517.947 216.978C499.602 233.285 466.956 238.108 466.956 266.188C468.139 280.208 479.587 286.337 485.977 290.131C493.346 294.506 499.483 299.398 502.099 312.066C504.714 324.733 491.792 328.07 483.12 332.358C469.658 339.014 453.646 346.93 459.612 369.42C461.816 377.727 463.996 379.341 471.27 384.73C475.094 387.563 480.326 391.438 487.71 397.877C494.095 403.446 497.758 413.402 494.552 420.576L494.505 420.681C489.575 431.712 483.939 444.324 510.4 457.555C538.32 463.823 545.838 453.684 550.071 448.895C554.304 453.684 568.287 460.368 596.207 454.1C622.752 440.827 629.295 428.179 624.355 417.123C621.149 409.949 610.636 400.648 617.022 395.079C624.405 388.64 625.048 387.563 628.872 384.73C636.146 379.341 644.791 374.708 646.995 366.402C646.995 339.234 630.484 339.014 617.022 332.358C608.349 328.07 606.746 324.895 605.488 321.122C602.469 312.066 603.979 302.848 613.035 294.709C619.425 290.915 635.272 287.086 640.529 271.314C651.849 237.354 604.733 219.997 595.677 219.997C590.395 135.474 555.066 143.377 538.323 164.151C521.292 185.282 524.739 210.94 517.947 216.978Z" fill="white"/>
<path fill-rule="evenodd" clip-rule="evenodd" d="M554.171 452.085C560.929 455.952 574.263 459.026 596.207 454.1C622.752 440.827 629.295 428.179 624.355 417.123C623.426 415.045 621.884 412.788 620.317 410.494C616.476 404.873 612.487 399.034 617.022 395.079C620.097 392.397 622.003 390.646 623.456 389.31C625.492 387.438 626.64 386.383 628.872 384.73C630.132 383.796 631.434 382.885 632.736 381.974C638.948 377.626 645.173 373.269 646.995 366.402C646.995 359.019 645.775 353.626 643.729 349.553L554.275 440.438L554.171 440.336V452.085ZM554.171 434.089L641.223 345.644C636.985 340.39 630.911 338.026 624.721 335.617L624.721 335.617L624.721 335.617L624.72 335.617L624.72 335.617L624.72 335.617L624.719 335.617L624.719 335.616L624.719 335.616L624.718 335.616C622.131 334.609 619.524 333.595 617.022 332.358C611.626 329.69 608.967 327.453 607.425 325.235L554.171 379.413V434.089ZM554.171 372.954V307.685L625.777 232.945C637.257 241.529 646.184 254.35 640.529 271.314C636.342 283.876 625.436 288.862 617.942 292.288C616.027 293.163 614.335 293.936 613.035 294.709C604.073 302.764 602.501 311.875 605.396 320.84L554.171 372.954ZM554.171 301.14L622.012 230.33C611.374 223.463 599.725 219.996 595.677 219.996C595.099 210.735 594.159 202.584 592.923 195.437L554.171 245.784V301.14ZM554.171 238.361L591.78 189.498C584.093 153.455 568.044 146.703 554.171 152.004V238.361ZM549.643 154.192C545.416 156.668 541.528 160.174 538.323 164.151C528.062 176.882 525.234 191.257 523.122 201.993L523.122 201.993C522.152 206.925 521.333 211.089 520.014 213.974L549.643 270.398V154.192ZM549.643 279.852L549.525 279.913L516.936 217.853C511.256 222.645 504.354 226.452 497.516 230.223C484.195 237.571 471.114 244.786 467.773 258.897L549.643 331.994V279.852ZM549.643 338.065L467.007 264.283C466.973 264.906 466.956 265.541 466.956 266.188C468.086 279.588 478.595 285.78 485.101 289.614C485.402 289.791 485.694 289.964 485.977 290.131C493.346 294.506 499.483 299.398 502.099 312.066C504.325 322.847 495.297 326.869 487.212 330.471L487.212 330.471L487.212 330.472L487.212 330.472L487.211 330.472L487.211 330.472L487.211 330.472L487.21 330.472L487.21 330.472C485.796 331.102 484.411 331.719 483.12 332.358L483.103 332.366C482.51 332.659 481.912 332.955 481.311 333.254L549.643 409.178V338.065ZM549.643 415.947L477.143 335.392C465.454 341.633 454.516 350.21 459.612 369.42C461.816 377.727 463.996 379.341 471.27 384.73C475.094 387.563 480.326 391.438 487.71 397.877C491.573 401.247 494.44 406.223 495.392 411.217L549.27 449.81C549.369 449.697 549.466 449.586 549.561 449.477L549.569 449.468L549.643 449.383V415.947ZM494.552 420.576C495.068 419.421 495.406 418.194 495.584 416.924L546.077 453.093C540.882 457.691 531.426 462.275 510.4 457.555C483.939 444.324 489.575 431.712 494.505 420.681L494.552 420.576Z" fill="#FFEFD9"/>
<path d="M263.826 84.8548C256.581 16.6329 323.697 2.59614 358.16 4.10547C393.881 7.12414 460.04 27.5002 438.909 84.8548C412.496 156.548 436.443 137.576 454.002 163.34C488.717 236.543 420.042 212.394 427.589 241.071C435.136 269.748 474.378 281.068 478.152 303.708C481.925 326.348 444.946 328.612 438.909 359.554C432.872 390.495 463.058 380.684 478.152 414.644C493.245 448.604 452.493 442.567 432.872 463.698C413.25 484.828 449.474 479.546 457.776 499.922C475.284 542.787 400.169 562.559 360.424 567.087C354.386 559.54 289.485 567.087 272.128 529.354C254.77 491.62 306.842 482.564 306.842 463.698C306.842 444.831 263.826 441.058 256.28 422.946C248.733 404.834 293.258 396.532 289.485 375.402C285.712 354.271 257.789 372.383 242.696 328.612C227.602 284.842 281.184 287.86 272.128 265.22C210.245 231.26 226.645 194.176 242.696 179.188C253.727 168.887 288.73 148.247 289.485 131.644C290.24 115.041 269.109 115.041 263.826 84.8548Z" fill="white"/>
<path d="M263.826 84.8548C256.581 16.6329 323.697 2.59614 358.16 4.10547C393.881 7.12414 460.04 27.5002 438.909 84.8548C412.496 156.548 436.443 137.576 454.002 163.34C488.717 236.543 420.042 212.394 427.589 241.071C435.136 269.748 474.378 281.068 478.152 303.708C481.925 326.348 444.946 328.612 438.909 359.554C432.872 390.495 463.058 380.684 478.152 414.644C493.245 448.604 452.493 442.567 432.872 463.698C413.25 484.828 449.474 479.546 457.776 499.922C475.284 542.787 400.169 562.559 360.424 567.087C354.386 559.54 289.485 567.087 272.128 529.354C254.77 491.62 306.842 482.564 306.842 463.698C306.842 444.831 263.826 441.058 256.28 422.946C248.733 404.834 293.258 396.532 289.485 375.402C285.712 354.271 257.789 372.383 242.696 328.612C227.602 284.842 281.184 287.86 272.128 265.22C210.245 231.26 226.645 194.176 242.696 179.188C253.727 168.887 288.73 148.247 289.485 131.644C290.24 115.041 269.109 115.041 263.826 84.8548Z" stroke="white" stroke-width="8"/>
<path fill-rule="evenodd" clip-rule="evenodd" d="M348.165 118.446C348.101 155 348.228 192.918 348.675 227.43L348.062 228.037L348.691 228.671C348.856 241.139 349.062 253.153 349.318 264.486L264.457 162.203C276.75 152.57 289.041 141.409 289.485 131.644C289.828 124.098 285.65 119.982 280.493 114.902C274.305 108.805 266.708 101.321 263.826 84.8548C260.842 56.7549 270.474 37.8476 285.243 25.4331L347.981 118.57L348.165 118.446ZM348.181 110.762C348.278 71.1113 348.591 33.4829 348.949 4.07361C330.444 4.70819 306.632 9.53312 288.812 22.6278L348.181 110.762ZM260.873 164.975L349.491 271.787C350.026 293.096 350.747 311.679 351.699 325.901L351.468 326.085L351.734 326.419C352.087 331.627 352.471 336.238 352.89 340.171C354.259 353.04 355.291 369.979 356.056 389.185L251.995 291.409C254.594 289.292 257.356 287.414 259.998 285.618C268.617 279.758 275.949 274.774 272.128 265.22C210.245 231.26 226.645 194.176 242.696 179.188C245.579 176.496 250.1 173.097 255.219 169.248C257.043 167.877 258.944 166.449 260.873 164.975ZM248.602 294.434C241.376 301.57 236.804 311.527 242.696 328.612C251.487 354.106 264.63 358.607 274.819 362.096C282.123 364.597 287.909 366.578 289.485 375.402C291.378 386.001 281.117 393.373 271.373 400.374C261.691 407.329 252.519 413.919 256.28 422.946C259.808 431.413 271.089 436.747 282.102 441.954C294.646 447.885 306.842 453.651 306.842 463.698C306.842 465.515 306.359 467.241 305.501 468.911L358.015 506.013C357.966 469.198 357.513 429.374 356.3 395.627L248.602 294.434ZM302.937 472.643L358.02 511.56C358.023 523.033 357.987 534.162 357.925 544.667L357.776 544.753L357.923 545.006C357.88 552.153 357.825 559.009 357.76 565.484C354.425 564.278 348.645 563.564 341.57 562.691C319.302 559.942 284.205 555.609 272.128 529.354C261.331 505.882 277.398 493.507 291.086 482.964C295.669 479.434 299.985 476.11 302.937 472.643ZM362.437 547.281C362.393 554.118 362.338 560.674 362.274 566.868C402.449 561.948 475.016 542.13 457.776 499.922C456.85 497.649 455.577 495.696 454.073 493.989L362.437 547.281ZM450.627 490.755C446.903 487.815 442.514 485.745 438.543 483.873C428.796 479.277 421.57 475.869 432.872 463.698C439.989 456.033 449.886 451.943 458.889 448.222C474.709 441.684 487.77 436.286 478.152 414.644C472.18 401.209 463.846 394.624 456.328 389.657L362.53 459.476L362.246 459.094C362.584 487.618 362.607 516.562 362.468 542.025L450.627 490.755ZM356.379 327.965C356.692 332.354 357.029 336.281 357.392 339.692C360.196 366.044 361.592 409.261 362.184 454.089L452.265 387.036C442.719 380.928 435.701 375.992 438.909 359.554C441.952 343.96 452.853 335.65 462.436 328.345C471.868 321.155 480.023 314.938 478.152 303.708C476.331 292.784 466.252 284.495 455.461 275.621C450.115 271.224 444.595 266.684 439.816 261.609L356.379 327.965ZM436.811 258.214C432.631 253.167 429.298 247.564 427.589 241.071C424.752 230.29 432.688 226.975 441.853 223.147C457.066 216.792 475.666 209.022 454.002 163.34C449.048 156.071 443.585 152.363 438.888 149.175L438.888 149.175L438.888 149.175L438.888 149.175L438.887 149.174L438.887 149.174L438.887 149.174L438.887 149.174C437.905 148.507 436.956 147.863 436.052 147.214L353.227 229.294C353.722 266.508 354.596 299.592 356.014 322.47L436.811 258.214ZM353.147 222.998L432.516 144.344C425.185 137.333 423.717 126.091 438.909 84.8548C449.65 55.7011 437.837 36.1017 418.933 23.4798L353.714 87.9736L352.793 87.0422C352.59 131.198 352.624 179.613 353.147 222.998ZM353.478 3.99994C353.206 26.3433 352.96 53.4117 352.815 82.4946L414.993 21.0073C397.187 10.4945 374.492 5.48569 358.16 4.10549C356.658 4.03973 355.094 4.00348 353.478 3.99994Z" fill="#FFEFD9"/>
<mask id="mask0" style="mask-type:alpha" maskUnits="userSpaceOnUse" x="-3" y="38" width="545" height="502">
<path fill-rule="evenodd" clip-rule="evenodd" d="M260.466 39.1077C337.621 42.1395 408.607 73.6601 459.46 129.208C513.736 188.495 555.062 264.367 537.07 341.249C519.007 418.436 446.837 468.542 372.103 502.493C297.964 536.175 212.843 556.275 138.941 522.121C65.1488 488.018 29.0658 411.75 10.589 335.418C-7.97388 258.731 -11.8378 174.001 39.8412 112.719C91.2723 51.7305 178.585 35.8901 260.466 39.1077Z" fill="#D3EFED"/>
<path fill-rule="evenodd" clip-rule="evenodd" d="M260.466 39.1077C337.621 42.1395 408.607 73.6601 459.46 129.208C513.736 188.495 555.062 264.367 537.07 341.249C519.007 418.436 446.837 468.542 372.103 502.493C297.964 536.175 212.843 556.275 138.941 522.121C65.1488 488.018 29.0658 411.75 10.589 335.418C-7.97388 258.731 -11.8378 174.001 39.8412 112.719C91.2723 51.7305 178.585 35.8901 260.466 39.1077Z" fill="#D3EFED"/>
<path fill-rule="evenodd" clip-rule="evenodd" d="M260.466 39.1077C337.621 42.1395 408.607 73.6601 459.46 129.208C513.736 188.495 555.062 264.367 537.07 341.249C519.007 418.436 446.837 468.542 372.103 502.493C297.964 536.175 212.843 556.275 138.941 522.121C65.1488 488.018 29.0658 411.75 10.589 335.418C-7.97388 258.731 -11.8378 174.001 39.8412 112.719C91.2723 51.7305 178.585 35.8901 260.466 39.1077Z" fill="#D3EFED"/>
</mask>
<g mask="url(#mask0)">
<path d="M123.775 376.392V355.261C138.261 346.96 165.646 332.621 159.295 341.677C152.943 350.733 156.648 368.594 159.295 376.392H123.775Z" fill="#F2C9AA"/>
<path d="M168.159 382.306L205.515 392.494L258.341 647.948C177.592 664.299 15.6405 684.927 13.8293 636.628C11.5653 576.255 47.0346 402.304 51.9399 398.908C55.8642 396.192 98.855 386.708 119.86 382.306L113.445 372.495C120.086 367.363 154.7 364.823 171.177 364.194L168.159 382.306Z" fill="#23AEA3"/>
<path fill-rule="evenodd" clip-rule="evenodd" d="M85.4834 666.654C75.5686 666.381 66.272 665.698 57.8695 664.521C58.7497 645.922 78.5742 494.75 88.8087 418.292C95.2233 412.129 106.392 404.708 99.7512 424.329C93.1865 443.725 87.5558 592.291 85.4834 666.654Z" fill="url(#paint0_linear)"/>
<path d="M77.6931 391.597C88.0134 389.156 101.468 386.129 111.226 384.027L147.55 502.667L135.853 531.344L77.6931 391.597Z" fill="#123150"/>
<path d="M210.42 333.921C210.42 342.773 201.595 347.187 194.511 347.187C184.907 347.187 177.121 340.012 177.121 331.16C177.121 322.308 184.907 315.133 194.511 315.133C204.115 315.133 210.42 325.07 210.42 333.921Z" fill="#E28E8B"/>
<path fill-rule="evenodd" clip-rule="evenodd" d="M191.469 328.461C187.914 328.51 183.679 330.569 180.957 332.477L179.837 330.878C182.684 328.883 187.31 326.567 191.442 326.509C193.543 326.48 195.602 327.037 197.19 328.609C198.766 330.17 199.741 332.6 199.97 336.034H199.454C198.631 333.08 196.939 331.107 195.816 329.995C194.704 328.894 193.212 328.436 191.469 328.461Z" fill="#490517"/>
<path d="M79.9173 318.543C78.613 316.537 92.0569 292.221 98.453 281.352L94.3399 318.543C90.0758 319.379 81.2216 320.55 79.9173 318.543Z" fill="#E28E8B"/>
<path d="M86.9222 353.854C84.2011 347.596 97.1266 275.961 103.93 240.926H135.223L185.224 250.79L205.293 277.322C196.789 297.277 179.374 337.187 177.741 337.187C106.991 374.943 90.3237 361.678 86.9222 353.854Z" fill="#F2C9AA"/>
<path d="M147.521 317.142C148.136 320.989 140.749 326.068 134.439 323.144C128.128 320.22 144.904 311.139 147.521 317.142Z" fill="#D95A73"/>
<path fill-rule="evenodd" clip-rule="evenodd" d="M140.152 281.296C135.413 279.855 129.526 280.361 125.524 281.313L125.188 277.182C129.421 276.175 136.296 276.284 141.646 277.911C144.343 278.73 146.472 280.464 148.264 282.744C150.067 285.04 150.681 288.857 150.535 292.786L148.633 292.945C148.76 289.519 147.227 286.662 145.864 284.927C144.489 283.177 142.5 282.01 140.152 281.296Z" fill="#490517"/>
<path fill-rule="evenodd" clip-rule="evenodd" d="M90.1063 319.285C87.3753 337.251 85.7869 351.243 86.9222 353.854C90.3237 361.678 106.991 374.943 177.741 337.187C179.374 337.187 196.789 297.277 205.293 277.322L199.865 270.145L186.755 267.628C184.998 282.197 178.524 313.343 166.686 321.371C154.849 329.398 128.647 332.199 117.025 332.595C119.236 329.874 122.638 323.82 118.556 321.371C113.472 318.321 101.298 315.27 90.1063 319.285Z" fill="#B91946"/>
<path fill-rule="evenodd" clip-rule="evenodd" d="M194.004 268.99L186.677 267.626C185.267 279.915 180.531 304.147 171.934 315.953L183.744 325.959C188.537 315.685 195.462 299.691 200.93 286.823L194.004 268.99Z" fill="url(#paint1_linear)"/>
<path d="M87.064 342.306C91.2378 343.642 99.4571 343.742 105.381 339.032L105.275 338.782C97.5087 342.014 90.3278 340.36 87.4152 338.996C87.2619 340.151 87.1912 341.218 87.064 342.306Z" fill="#34020F"/>
<path fill-rule="evenodd" clip-rule="evenodd" d="M80.8713 205.254C82.9473 192.367 91.6709 181.356 99.0404 175.15C91.8771 181.183 84.7371 193.28 82.7592 205.558C81.7738 211.675 82.3723 218.209 85.5047 224.822C88.6404 231.442 95.6801 237.528 104.985 244.034C105.417 244.336 104.184 245.602 103.882 246.034C103.579 246.467 102.983 246.573 102.55 246.27C93.0388 239.62 87.085 232.626 83.7765 225.641C80.4647 218.648 79.8298 211.72 80.8713 205.254Z" fill="#B91946"/>
<path d="M183.319 278.349C190.925 284.12 189.326 308.74 186.648 319.669C193.26 322.893 208.303 325.432 222.991 315.071C241.352 302.12 224.631 288.349 221.516 284.743C218.401 281.136 221.68 271.792 231.844 271.792C242.008 271.792 247.746 242.447 214.303 235.889C181.088 229.377 166.146 213.323 161.607 208.447L161.515 208.348C157.068 203.571 133.646 164.741 104.629 191.626C75.6123 218.512 96.2683 235.561 96.2683 239.66C97.9077 271.3 138.892 269.988 155.122 269.333C171.351 268.677 173.81 271.136 183.319 278.349Z" fill="#B91946"/>
<path d="M134.334 295.334C133.014 295.617 129.995 304.012 132.448 304.578C134.9 305.144 140.047 296.462 134.334 295.334Z" fill="#490517"/>
<path fill-rule="evenodd" clip-rule="evenodd" d="M139.387 300.802C137.67 299.263 134.439 298.785 133.255 298.812L134.37 295.331C135.922 295.295 138.214 295.882 140.228 297.688C142.258 299.509 143.954 302.52 144.384 307.243H142.028C141.085 302.783 141.088 302.327 139.387 300.802Z" fill="#480517"/>
<path d="M131.516 520.41C131.516 487.275 158.378 460.414 191.512 460.414C224.647 460.414 251.508 487.275 251.508 520.41V583.562C251.508 590.363 245.995 595.877 239.194 595.877H143.831C137.03 595.877 131.516 590.363 131.516 583.562V520.41Z" fill="#123252"/>
<path d="M131.805 451.774L142.689 485.601C142.689 485.601 135.57 494.615 131.557 520.693C131.475 521.228 115.521 480.601 115.521 480.601C118.492 469.825 124.087 459.418 131.805 451.774Z" fill="url(#paint2_linear)"/>
<path fill-rule="evenodd" clip-rule="evenodd" d="M267.71 149.427C268.507 152.421 269.273 155.679 269.954 159.123C270.688 162.832 271.321 166.746 271.79 170.767C268.71 173.198 266.153 175.449 264.271 177.274L266.373 179.441C267.87 177.988 269.828 176.241 272.16 174.34C272.716 180.509 272.855 186.861 272.358 193.064L272.205 192.662C269.857 186.484 267.733 180.894 261.36 175.528C259.501 173.962 257.381 172.802 255.114 171.931L255.511 171.927C255.453 166.288 254.123 160.924 252.235 156.164C256.704 153.799 261.874 151.477 267.71 149.427ZM270.576 148.46C271.411 151.577 272.209 154.964 272.915 158.537C273.553 161.763 274.119 165.149 274.569 168.635C277.868 166.174 281.626 163.609 285.702 161.172C287.626 160.021 289.625 158.896 291.685 157.822C291.125 152.625 290.431 147.882 289.725 143.888C282.757 144.996 276.364 146.587 270.576 148.46ZM292.712 143.448C293.374 147.199 294.022 151.585 294.563 156.377C300.804 153.359 307.508 150.892 314.279 149.638L314.257 149.569L315.114 149.298C312.972 148.348 310.768 147.307 308.48 146.226L308.48 146.226C305.001 144.582 301.327 142.847 297.377 141.198L297.544 142.88C295.906 143.043 294.295 143.233 292.712 143.448ZM294.9 159.573C301.343 156.372 308.252 153.782 315.157 152.547C316.385 156.794 317.66 161.963 318.769 167.667C312.577 170.951 306.494 175.074 300.888 179.398C299.185 180.711 297.522 182.046 295.909 183.386C295.962 180.696 295.95 178.014 295.886 175.368C295.752 169.899 295.391 164.557 294.9 159.573ZM292.816 186.013C292.944 182.488 292.953 178.944 292.868 175.441C292.746 170.485 292.436 165.632 292.011 161.065C290.385 161.935 288.796 162.838 287.251 163.762C282.674 166.499 278.511 169.399 274.976 172.113C275.787 179.87 275.982 188.007 275.124 195.878L273.372 195.687C274.204 197.78 275.138 199.942 276.331 202.187C280.063 197.951 285.865 192.045 292.816 186.013ZM276.469 202.446L278.53 204.258C281.781 200.559 286.695 195.51 292.604 190.223C291.99 199.666 290.438 208.787 287.467 216.379C282.088 211.37 278.792 206.756 276.469 202.446ZM295.779 187.444C297.996 185.548 300.323 183.646 302.732 181.788C308.023 177.707 313.664 173.873 319.347 170.783C320.391 176.673 321.229 183.029 321.647 189.464C321.811 191.983 321.909 194.505 321.932 197.01C310.234 205.96 300.696 215.455 294.893 222.253C293.574 221.34 292.208 220.356 290.792 219.298C290.339 218.922 289.897 218.547 289.468 218.175L289.924 218.363C293.602 209.422 295.284 198.484 295.779 187.444ZM297.412 223.952C302.793 217.688 311.385 209.113 321.905 200.851C321.628 212.529 319.53 223.566 314.418 231.701L315.702 232.508C311.038 231.502 305.086 228.979 297.412 223.952ZM331.162 194.045C329.036 195.502 326.965 196.994 324.955 198.506C324.922 208.813 323.581 218.985 320.013 227.431C326.646 222.083 335.633 215.417 345.129 209.472C347.237 208.152 349.377 206.863 351.529 205.629C351.094 198.021 349.969 190.604 348.507 183.785C342.479 186.77 336.652 190.281 331.162 194.045ZM329.455 191.555C335.219 187.603 341.395 183.893 347.826 180.756C346.22 173.915 344.31 167.775 342.481 162.78C340.36 163.301 338.082 163.829 335.638 164.361C331.254 165.316 326.706 167.054 322.152 169.321C323.291 175.574 324.211 182.374 324.659 189.268C324.778 191.097 324.864 192.936 324.912 194.778C326.396 193.689 327.912 192.613 329.455 191.555ZM354.451 203.992C353.934 196.465 352.776 189.159 351.305 182.445C357.762 179.456 364.422 177.106 371.12 175.72C372.134 181.515 372.864 188.287 372.992 195.912C367.155 197.625 360.795 200.524 354.451 203.992ZM373.01 199.058C367.311 200.829 361.007 203.78 354.637 207.339C354.956 214.895 354.59 222.616 353.216 230.134L350.247 229.592C351.483 222.827 351.876 215.877 351.677 209.033C350.024 210 348.372 211.003 346.731 212.031C335.38 219.137 324.751 227.298 318.113 232.911C325.572 233.776 329.231 230.436 331.496 228.37C332.456 227.493 333.166 226.845 333.808 226.845C356.279 240.234 369.178 224.815 375.457 205.008L372.863 204.891C372.953 202.899 373 200.954 373.01 199.058ZM375.943 203.422C376.004 201.65 376.032 199.916 376.031 198.219C376.49 198.107 376.945 198.004 377.394 197.911C376.963 199.767 376.479 201.61 375.943 203.422ZM375.996 195.127C375.832 187.64 375.101 180.949 374.088 175.171C376.156 174.833 378.225 174.592 380.291 174.457C380.194 180.586 379.499 187.662 378.087 194.707C377.401 194.826 376.703 194.966 375.996 195.127ZM373.528 172.203C375.778 171.834 378.033 171.573 380.289 171.433C380.156 163.895 379.039 158.248 377.201 156.661C374.903 154.677 371.883 153.53 368.347 152.927C368.153 153.155 367.9 153.391 367.593 153.635C369.379 157.077 371.753 163.431 373.528 172.203ZM365.021 155.235C363.671 155.944 361.888 156.749 359.602 157.626C356.145 158.952 351.506 160.454 345.423 162.037C347.199 166.922 349.042 172.85 350.616 179.439C357.086 176.487 363.786 174.15 370.56 172.754C368.871 164.429 366.648 158.439 365.021 155.235ZM344.353 159.196C343.513 157.044 342.706 155.155 341.968 153.571L339.232 154.845C339.906 156.293 340.639 158.002 341.402 159.937C339.411 160.422 337.278 160.915 334.996 161.412C330.585 162.372 326.062 164.064 321.566 166.246C320.399 160.382 319.066 155.101 317.795 150.815L317.747 150.429C323.321 152.734 328.53 154.249 333.808 154.02C337.751 153.848 341.713 153.521 345.58 153.202L345.58 153.202L345.58 153.202L345.58 153.202L345.58 153.202L345.58 153.202L345.58 153.202L345.58 153.202L345.58 153.202L345.58 153.202L345.581 153.202C352.128 152.661 358.402 152.143 363.844 152.442C362.608 153.107 360.868 153.907 358.52 154.808C355.128 156.109 350.501 157.606 344.353 159.196ZM292.16 140.476C292.064 139.983 291.967 139.504 291.872 139.041C292.858 139.4 293.827 139.768 294.78 140.143C293.898 140.247 293.025 140.358 292.16 140.476ZM290.391 138.513L288.75 138.864C288.889 139.514 289.03 140.2 289.171 140.919C282.127 142.044 275.648 143.653 269.764 145.55C268.296 140.494 266.772 136.317 265.471 133.444C266.474 133.478 267.494 133.544 268.529 133.644C276.734 134.435 283.929 136.261 290.391 138.513ZM263.891 133.417L262.449 134.101C263.741 136.83 265.347 141.144 266.9 146.512C260.942 148.594 255.643 150.959 251.039 153.382C248.094 147.014 244.316 141.989 241.723 139.244C247.798 135.813 255.21 133.414 263.891 133.417ZM239.155 140.929C241.608 143.416 245.45 148.426 248.382 154.829C240.332 159.366 234.715 163.951 231.763 167.145L233.414 168.671C225.604 167.916 220.381 166.219 223.249 157.793C225.704 153.016 231.198 145.887 239.518 140.571L239.155 140.929ZM249.566 157.628C242.315 161.746 237.196 165.854 234.39 168.76C235.52 168.857 236.697 168.94 237.906 169.025L237.907 169.025C242.588 169.355 247.741 169.718 252.472 171.057C252.299 166.295 251.159 161.735 249.566 157.628Z" fill="#23AEA3" fill-opacity="0.5"/>
<path fill-rule="evenodd" clip-rule="evenodd" d="M358.824 226.05C364.541 220.452 369.9 211.339 374.094 200.162C378.287 188.984 378.967 179.316 378.333 171.377C377.704 163.495 375.501 159.632 370.598 157.793C365.446 155.86 360.662 155.716 355.26 160.598C349.73 165.596 347.149 173.617 342.964 184.772C338.784 195.916 334.067 207.332 334.624 215.9C335.188 224.574 339.282 227.34 343.996 229.109C348.884 230.943 353.142 231.614 358.824 226.05ZM341.374 235.516C355.715 240.896 371.771 227.228 380.409 204.205C389.046 181.181 386.995 157.52 372.654 152.14C358.313 146.76 344.71 160.616 336.072 183.64C327.434 206.664 327.033 230.136 341.374 235.516Z" fill="#55595C"/>
<path fill-rule="evenodd" clip-rule="evenodd" d="M333.65 222.387C334.653 223.133 335.695 226.845 334.949 227.849C330.782 233.452 324.104 243.824 317.326 261.027C310.59 278.124 303.039 299.421 295.428 322.051C280.468 366.538 263.392 415.473 253.741 448.168C253.479 449.057 252.489 449.492 251.65 449.096L246.644 446.736C256.209 414.014 275.893 365.937 291.137 320.608C298.758 297.945 306.337 276.566 313.113 259.367C319.848 242.273 325.894 229.023 330.482 222.853C331.228 221.85 332.646 221.641 333.65 222.387Z" fill="#55595C"/>
<path fill-rule="evenodd" clip-rule="evenodd" d="M244.56 428.257C235.202 457.236 216.008 460.582 207.581 458.632L204.356 461.858C212.439 463.594 219.917 466.96 226.431 471.593C242.304 466.26 248.496 445.053 251.041 436.336C251.781 433.803 252.212 432.324 252.484 432.596C253.805 433.917 261.222 429.556 260.974 426.502C260.942 426.106 260.872 425.813 260.771 425.606C262.095 424.449 263.049 423.118 262.917 422.021C262.702 420.241 261.775 419.862 260.585 420.19C261.188 419.218 261.418 418.122 260.974 416.937C257.955 409.579 245.881 423.54 244.56 428.257Z" fill="#FFC0A9"/>
<path fill-rule="evenodd" clip-rule="evenodd" d="M163.483 467.739C171.935 463.19 181.604 460.609 191.876 460.609C203.705 460.609 214.734 464.032 224.028 469.943C224.005 462.939 222.108 451.059 214.368 448.157C205.915 444.987 186.571 447.842 177.955 449.666C173.326 452.792 164.271 460.597 163.483 467.739Z" fill="#B91946"/>
<path d="M174.573 467.961C174.8 470.602 172.655 471.011 171.555 470.885C172.246 472.017 172.989 474.545 170.423 475.601C167.857 476.658 166.209 475.161 165.706 474.281C166.021 475.224 166.102 477.111 163.914 477.111C158.537 476.639 152.405 465.036 160.612 458.905C168.819 452.773 174.29 464.659 174.573 467.961Z" fill="#FFC0A9"/>
<path d="M167.498 428.907C167.498 433.492 167.498 436.736 159.197 437.208C154.612 437.208 150.896 433.492 150.896 428.907C150.896 424.322 154.612 420.605 159.197 420.605C163.782 420.605 167.498 424.322 167.498 428.907Z" fill="#FFC0A9"/>
<path fill-rule="evenodd" clip-rule="evenodd" d="M159.594 427.823C158.536 427.875 157.16 428.683 156.158 429.597L154.123 427.368C155.291 426.301 157.325 424.912 159.446 424.808C160.588 424.752 161.727 425.605 162.357 426.643C162.782 428.2 162.876 430.903 162.357 431.265L161.727 430.573C161.45 429.2 161.026 428.523 160.686 428.2C160.384 427.913 160.042 427.801 159.594 427.823Z" fill="#E28E8B"/>
<path d="M231.928 427.964C231.928 445.313 222.872 459.471 198.628 459.471C181.279 459.471 165.14 447.954 165.14 430.605C165.14 413.256 181.279 390.985 198.628 390.985C215.977 390.985 231.928 410.615 231.928 427.964Z" fill="#FFC0A9"/>
<path d="M197.968 441.123C197.323 440.491 199.057 436.482 200.308 433.223C200.568 432.545 201.576 432.551 201.801 433.242C202.899 436.609 204.216 440.959 203.911 441.264C203.439 441.736 199.076 442.208 197.968 441.123Z" fill="#FFA4A0"/>
<path d="M188.346 445.132C188.409 447.113 191.011 450.792 195.327 448.905" stroke="#0A2138" stroke-width="1.50933" stroke-linecap="round"/>
<path d="M212.172 379.664C213.005 379.634 213.656 378.934 213.626 378.101C213.597 377.268 212.897 376.617 212.064 376.647L212.172 379.664ZM206.331 388.087C206.637 386.633 207.346 384.435 208.441 382.624C209.576 380.747 210.853 379.711 212.172 379.664L212.064 376.647C209.157 376.751 207.133 378.953 205.857 381.063C204.542 383.239 203.732 385.777 203.377 387.467L206.331 388.087Z" fill="#123252"/>
<path d="M199.289 378.061C200.767 379.319 203.798 382.778 204.1 386.551" stroke="#123252" stroke-width="3.01867" stroke-linecap="round"/>
<path d="M203.381 394.5C194.85 425.592 173.142 422.699 165.8 423.954C163.065 420.369 160.282 420.652 157.876 420.652C157.574 419.52 159.323 415.731 160.046 414.002C159.732 414.348 158.574 415.153 156.462 415.606C153.443 414.851 159.606 404.537 163.065 399.475C160.046 397.494 170.254 390.623 170.612 390.985C167.819 388.871 176.617 385.199 181.366 383.627C179.668 379.759 190.422 381.174 190.422 381.551C193.968 379.891 201.521 384.381 204.855 386.834C206.836 385.513 214.099 385.042 216.552 386.079C218.363 386.845 214.903 387.295 212.505 387.459C216.234 387.389 224.311 389.822 226.457 390.985C228.268 391.966 227.212 393.154 226.457 393.626C236.834 402.965 235.89 419.473 233.626 419.473C232.801 419.473 232.083 417.593 231.776 416.662C231.924 417.189 231.846 418.058 230.513 418.058C228.733 417.874 226.749 415.388 225.546 413.486C225.694 414.038 225.588 414.631 224.853 415.04C222.438 415.04 216.678 409.38 214.099 406.55C214.634 408.216 215.066 411.951 212.684 411.549C204.998 410.253 202.405 398.471 203.381 394.5Z" fill="#123252"/>
<path d="M174.29 439.755C173.158 441.17 178.818 446.924 181.648 445.509C184.478 444.094 176.271 436.453 174.29 439.755Z" fill="#FFA4A0"/>
<path d="M224.703 442.571C225.248 444.299 217.891 447.62 215.763 445.278C213.636 442.936 224.049 438.776 224.703 442.571Z" fill="#FFA4A0"/>
<path d="M183.629 423.718C181.837 421.737 174.101 425.605 175.233 427.586C176.365 429.567 184.855 425.511 183.629 423.718Z" fill="#430415"/>
<path d="M214.201 424.503C215.994 422.522 223.729 426.39 222.597 428.371C221.465 430.352 212.975 426.295 214.201 424.503Z" fill="#430415"/>
<path d="M181.678 431.723C183.618 432.131 184.095 436.889 181.706 436.887C179.318 436.885 179.442 431.363 181.678 431.723Z" fill="#0A2138"/>
<path d="M217.094 432.376C219.035 432.784 219.511 437.543 217.123 437.541C214.735 437.538 214.859 432.017 217.094 432.376Z" fill="#0A2138"/>
<path fill-rule="evenodd" clip-rule="evenodd" d="M396.346 211.548C399.745 208.012 400.315 201.22 405.692 200.647C411.075 200.072 416.589 205.627 422.042 208.806C427.334 211.891 433.321 213.99 437.031 218.918C440.897 224.056 442.239 230.137 442.269 235.678C442.298 241.212 440.585 246.19 437.197 249.813C433.807 253.437 429.164 256.305 423.431 255.818C417.985 255.355 413.254 250.178 407.945 247.327C402.473 244.388 396.014 243.669 391.88 238.875C387.482 233.772 384.771 226.95 385.664 221.482C386.524 216.217 392.895 215.138 396.346 211.548Z" fill="#B91946"/>
<path d="M418.464 245.582L431.216 242.696C430.429 244.321 428.418 248.008 426.664 249.751C424.911 251.493 420.467 247.698 418.464 245.582Z" fill="#FFB800"/>
<path d="M430.21 226.845L432.835 239.654C433.992 238.267 436.522 234.915 437.387 232.599C438.253 230.283 432.963 227.798 430.21 226.845Z" fill="#FFB800"/>
<path d="M383.805 215.85C384.088 216.479 385.088 217.907 386.823 218.586C388.559 219.265 389.119 221.322 389.182 222.265" stroke="#B91946" stroke-width="1.50933" stroke-linecap="round"/>
<path d="M440.122 231.381C441.222 230.437 443.857 228.607 445.593 228.834" stroke="#B91946" stroke-width="1.50933" stroke-linecap="round"/>
<path d="M440.122 242.267C440.908 242.518 443.046 242.87 445.31 242.267C447.574 241.663 448.392 240.946 448.517 240.663" stroke="#B91946" stroke-width="1.50933" stroke-linecap="round"/>
<path d="M429.354 251.32C429.92 251.382 431.392 252.093 432.75 254.433C434.109 256.772 436.021 258.112 436.807 258.489" stroke="#B91946" stroke-width="1.50933" stroke-linecap="round"/>
<path d="M417.428 248.631C418.529 250.769 420.655 255.555 420.353 257.593C420.051 259.63 420.227 260.832 420.353 261.177" stroke="#B91946" stroke-width="1.50933" stroke-linecap="round"/>
<path d="M409.477 246.831C409.509 249.253 409.308 254.171 408.251 254.472" stroke="#B91946" stroke-width="1.50933" stroke-linecap="round"/>
<path d="M381.069 231.698C381.666 231.667 383.559 231.453 386.352 230.849C389.144 230.245 392.735 229.214 394.181 228.774" stroke="#B91946" stroke-width="1.50933" stroke-linecap="round"/>
<path d="M394.308 246.831L397.923 242.6" stroke="#B91946" stroke-width="1.50933" stroke-linecap="round"/>
<path d="M419.84 199.247C420.658 202.109 421.802 208.19 419.84 209.624" stroke="#B91946" stroke-width="1.50933" stroke-linecap="round"/>
<path d="M394.936 200.054C397.452 199.802 402.558 200.658 402.86 206.091" stroke="#B91946" stroke-width="1.50933" stroke-linecap="round"/>
<path d="M432.481 219.487C434.745 218.732 439.122 216.619 438.518 214.204C437.914 211.789 441.285 210.305 443.046 209.865" stroke="#B91946" stroke-width="1.50933" stroke-linecap="round"/>
</g>
<defs>
<linearGradient id="paint0_linear" x1="51.5632" y1="505.316" x2="96.4659" y2="513.24" gradientUnits="userSpaceOnUse">
<stop stop-color="#06524C"/>
<stop offset="1" stop-color="#23AEA3"/>
</linearGradient>
<linearGradient id="paint1_linear" x1="186.239" y1="267.629" x2="166.55" y2="317.205" gradientUnits="userSpaceOnUse">
<stop offset="0.552142" stop-color="#840C2D"/>
<stop offset="1" stop-color="#B91946"/>
</linearGradient>
<linearGradient id="paint2_linear" x1="117.973" y1="477.017" x2="136.463" y2="504.185" gradientUnits="userSpaceOnUse">
<stop stop-color="#123252"/>
<stop offset="1" stop-color="#001020"/>
</linearGradient>
</defs>
</svg>
