<svg width="376" height="300" viewBox="0 0 376 300" fill="none" xmlns="http://www.w3.org/2000/svg">
<path d="M142.797 37.4059C134.235 36.9545 137.389 10.3219 126.574 10.7733C114.407 10.7733 119.814 41.2634 112.604 41.92C107.647 42.3714 107.196 30.635 101.338 32.4406C95.4799 34.2462 102.239 46.8854 93.6773 49.5938C85.1153 52.3022 79.257 26.121 69.343 30.635C59.4291 35.149 76.5532 65.8442 71.1456 69.4554C65.7379 73.0666 54.4721 54.5592 48.1632 59.976C41.8543 65.3928 55.3733 82.546 48.1632 85.7058C40.953 88.8656 10.4063 72.3266 4.09751 80.0004C-4.46456 90.834 40.0518 114.144 34.6442 121.818C29.2367 129.492 22.4769 121.366 20.2239 128.589C17.9708 140.325 33.2922 142.131 33.2922 150.256C32.391 162.444 5.35284 163.798 9.8592 173.278C14.3656 182.757 36.4467 173.729 40.0518 181.854C43.6568 189.979 24.7301 195.396 27.8846 201.716C31.9153 209.791 40.5024 197.653 44.5581 207.133C50.867 221.126 17.9706 230.154 22.4769 243.245C26.9833 256.335 61.2317 225.64 64.8368 231.96C68.4418 238.279 54.4721 244.147 62.1329 251.821C69.7937 259.495 75.652 238.279 83.3128 247.307C90.9736 256.335 74.3001 273.037 83.3128 279.808C92.3255 286.579 106.746 257.238 115.308 259.495C123.87 261.752 113.055 295.607 124.321 296.961C135.587 298.315 136.938 264.009 145.5 264.009C150.029 264.009 148.655 277.551 154.964 277.551C161.273 277.551 157.217 265.363 164.427 265.363C171.637 265.363 177.496 287.482 186.959 281.614C196.422 275.745 183.805 263.106 191.015 255.884C198.225 248.661 223.911 286.128 234.276 277.551C241.895 271.246 221.658 241.439 227.066 236.925C232.473 232.411 241.035 249.113 247.344 241.439C253.653 233.765 235.628 220.675 241.035 212.549C246.443 204.424 262.215 216.161 269.876 207.584C276.005 200.723 283.846 174.632 287 162.444C283.846 143.936 275.464 106.199 267.172 103.31C256.807 99.6993 250.048 99.2479 247.344 92.4768C244.64 85.7058 271.678 68.5526 264.919 60.4274C258.159 52.3022 231.572 72.6152 227.066 68.5526C222.559 64.49 235.628 51.3994 229.319 45.9826C223.01 40.5658 211.293 54.5592 208.139 51.3994C204.984 48.2396 219.405 33.7948 213.096 27.4752C206.787 21.1556 195.07 45.5312 191.015 43.2742C186.959 41.0172 194.169 30.635 187.86 28.378C181.551 26.121 178.397 40.1144 172.088 37.4059C165.779 34.6975 179.298 5.35656 166.23 3.09955C153.161 0.842551 151.359 37.8573 142.797 37.4059Z" fill="url(#paint0_linear)" stroke="url(#paint1_linear)" stroke-width="4.65625"/>
<path fill-rule="evenodd" clip-rule="evenodd" d="M146.29 44.3649C189.931 44.5504 226.86 74.3213 240.51 115.86C254.332 157.923 242.731 204.598 207.224 230.962C170.685 258.092 118.274 261.045 81.5145 234.217C44.8774 207.479 32.8724 158.122 47.22 115.038C61.2175 73.0063 102.073 44.177 146.29 44.3649Z" fill="url(#paint2_linear)"/>
<path d="M241.596 147.534C241.596 202.971 196.322 249.166 141.99 249.166C87.659 249.166 44.8444 202.971 44.8444 147.534C44.8444 92.0968 90.1184 49.6658 144.45 49.6658C198.781 49.6658 241.596 92.0968 241.596 147.534Z" fill="#A1A0ED"/>
<path fill-rule="evenodd" clip-rule="evenodd" d="M142.984 81.9403C173.582 82.2089 202.046 99.7941 211.452 128.912C220.812 157.886 207.942 188.762 183.245 206.572C158.831 224.178 126.229 225.422 101.583 208.142C75.5764 189.909 60.8126 157.855 70.7129 127.676C80.5377 97.7274 111.467 81.6636 142.984 81.9403Z" fill="#817FF8"/>
<path fill-rule="evenodd" clip-rule="evenodd" d="M144.278 94.4238C143.113 91.4682 143.601 88.0369 145.427 85.4372C147.123 83.0242 150.132 82.2296 153.065 81.9184C155.884 81.6193 158.718 82.0175 160.928 83.7923C163.433 85.8032 165.529 88.5922 165.373 91.8004C165.209 95.1519 163.054 98.1394 160.147 99.8154C157.419 101.389 154.15 101.004 151.168 99.9904C148.227 98.9911 145.418 97.3134 144.278 94.4238Z" fill="#B1B0FF"/>
<path fill-rule="evenodd" clip-rule="evenodd" d="M83.7663 89.655C82.1595 89.4856 80.7273 88.4584 79.9848 87.0234C79.2956 85.6916 79.6451 84.1478 80.1945 82.7525C80.7226 81.4111 81.5686 80.2272 82.8886 79.6479C84.3844 78.9916 86.1349 78.7023 87.5446 79.5273C89.0172 80.3892 89.8573 82.0636 89.9293 83.7684C89.9969 85.3686 89.0546 86.7516 87.8965 87.8578C86.7542 88.9489 85.3372 89.8207 83.7663 89.655Z" fill="#B1B0FF"/>
<path fill-rule="evenodd" clip-rule="evenodd" d="M165.853 68.8738C164.251 71.7835 164.381 75.4383 165.991 78.3434C167.517 81.0982 170.583 82.3948 173.675 82.9909C176.646 83.5635 179.73 83.2563 182.165 81.4612C184.745 79.5586 186.76 76.6669 186.596 73.4649C186.439 70.382 183.931 68.1212 181.392 66.3662C179.084 64.7711 176.384 64.0461 173.614 64.4931C170.528 64.991 167.36 66.1357 165.853 68.8738Z" fill="#B1B0FF"/>
<path fill-rule="evenodd" clip-rule="evenodd" d="M190.496 101.654C192.107 100.709 192.798 98.7759 192.924 96.912C193.044 95.1337 192.389 93.4227 191.137 92.1542C189.857 90.8567 188.112 89.9116 186.314 90.2153C184.587 90.507 183.44 92.0358 182.634 93.5907C181.912 94.984 181.735 96.5685 182.255 98.049C182.781 99.5477 183.903 100.712 185.358 101.349C187.012 102.072 188.939 102.567 190.496 101.654Z" fill="#B1B0FF"/>
<path fill-rule="evenodd" clip-rule="evenodd" d="M94.5718 69.9599C95.1638 68.6307 96.1855 67.5345 97.5724 67.0945C98.9993 66.6418 100.583 66.7978 101.803 67.6658C103.015 68.5285 103.703 69.9705 103.704 71.4583C103.705 72.8476 102.86 74.0292 101.807 74.9361C100.789 75.8132 99.5318 76.3232 98.1932 76.2076C96.6981 76.0785 95.1186 75.592 94.3661 74.2937C93.6031 72.9773 93.9528 71.3499 94.5718 69.9599Z" fill="#B1B0FF"/>
<path fill-rule="evenodd" clip-rule="evenodd" d="M160.374 209.967C162.277 208.77 164.622 209.572 166.78 210.202C168.993 210.848 171.463 211.422 172.469 213.496C173.543 215.711 173.045 218.377 171.764 220.478C170.523 222.513 168.364 223.731 166.008 224.092C163.652 224.452 161.149 224.019 159.434 222.363C157.758 220.744 157.425 218.299 157.601 215.975C157.777 213.661 158.41 211.202 160.374 209.967Z" fill="#B1B0FF"/>
<path fill-rule="evenodd" clip-rule="evenodd" d="M187.332 216.881C188.137 215.668 189.326 214.757 190.767 214.553C192.249 214.343 193.785 214.76 194.844 215.818C195.896 216.87 196.336 218.406 196.09 219.873C195.86 221.243 194.831 222.268 193.642 222.988C192.493 223.684 191.168 223.979 189.867 223.643C188.415 223.267 186.938 222.526 186.411 221.121C185.877 219.696 186.491 218.149 187.332 216.881Z" fill="#B1B0FF"/>
<path d="M300.791 240.275C299.36 240.275 297.182 239.577 294.254 237.737C291.394 235.94 288.117 233.243 284.565 229.725C277.468 222.696 269.522 212.639 261.9 200.695C246.633 176.769 232.956 145.73 229.875 117.037C229.425 112.842 233.177 108.769 238.655 107.815C252.008 105.49 264.388 98.3667 274.748 92.1143C275.61 91.594 276.457 91.0807 277.288 90.5765C281.535 88.0015 285.385 85.6665 288.909 83.864C293.182 81.6786 296.494 80.5397 299.02 80.5291C302.035 80.5166 305.637 81.6137 309.983 83.5925C313.542 85.2129 317.337 87.2954 321.478 89.5675C322.372 90.0579 323.281 90.557 324.208 91.0623C334.473 96.6578 346.571 102.859 359.851 104.004C365.481 104.49 369.576 108.22 369.443 112.413C368.52 141.441 355.886 173.632 340.865 198.65C333.369 211.135 325.354 221.704 318.046 229.108C314.39 232.813 310.973 235.661 307.947 237.562C304.865 239.499 302.471 240.275 300.791 240.275Z" fill="url(#paint3_linear)" stroke="url(#paint4_linear)" stroke-width="6.1298"/>
<circle cx="301.311" cy="160.76" r="24.5165" fill="#F095B6"/>
<path fill-rule="evenodd" clip-rule="evenodd" d="M292.729 173.938C306.269 173.938 317.246 162.962 317.246 149.422C317.246 146.439 316.713 143.58 315.738 140.936C321.853 145.394 325.828 152.613 325.828 160.761C325.828 174.301 314.851 185.277 301.311 185.277C290.754 185.277 281.755 178.604 278.303 169.246C282.351 172.197 287.337 173.938 292.729 173.938Z" fill="#EE7AA2"/>
<ellipse cx="310.48" cy="169.145" rx="6.45909" ry="5.13267" transform="rotate(-28.9834 310.48 169.145)" fill="#F095B6"/>
<ellipse cx="297.632" cy="179.015" rx="3.10532" ry="2.46762" transform="rotate(-16.5148 297.632 179.015)" fill="#F095B6"/>
<path d="M301.078 130.762V137.658" stroke="#F095B6" stroke-width="3.0649"/>
<circle cx="301.078" cy="129.138" r="5.07295" fill="#F095B6"/>
<path d="M271.037 160.759L277.933 160.759" stroke="#F095B6" stroke-width="3.0649"/>
<path d="M279.728 139.287L284.954 143.786" stroke="#F095B6" stroke-width="3.0649"/>
<circle cx="278.496" cy="138.227" r="5.07295" transform="rotate(-49.2774 278.496 138.227)" fill="#F095B6"/>
<path d="M322.894 139.287L317.668 143.786" stroke="#EE7AA2" stroke-width="3.0649"/>
<circle r="5.07295" transform="matrix(-0.652397 -0.757877 -0.757877 0.652397 324.126 138.227)" fill="#EE7AA2"/>
<path d="M323.844 181.263L318.617 176.764" stroke="#EE7AA2" stroke-width="3.0649"/>
<circle cx="325.075" cy="182.324" r="5.07295" transform="rotate(130.723 325.075 182.324)" fill="#EE7AA2"/>
<path d="M278.187 181.263L283.414 176.764" stroke="#EE7AA2" stroke-width="3.0649"/>
<circle r="5.07295" transform="matrix(0.652397 0.757877 0.757877 -0.652397 276.956 182.324)" fill="#EE7AA2"/>
<path d="M301.311 190.817V183.921" stroke="#EE7AA2" stroke-width="3.0649"/>
<circle r="5.07295" transform="matrix(1 0 0 -1 301.311 192.442)" fill="#EE7AA2"/>
<circle cx="269.413" cy="160.759" r="5.07295" transform="rotate(-90 269.413 160.759)" fill="#F095B6"/>
<path d="M331.98 160.913L325.084 160.913" stroke="#EE7AA2" stroke-width="3.0649"/>
<circle r="5.07295" transform="matrix(-4.37114e-08 -1 -1 4.37114e-08 333.605 160.914)" fill="#EE7AA2"/>
<path d="M292.755 164.874C291.993 165.545 291.918 166.707 292.589 167.469C293.26 168.231 294.422 168.306 295.185 167.635L292.755 164.874ZM307.206 167.607C307.953 168.295 309.116 168.247 309.804 167.5C310.492 166.753 310.444 165.59 309.697 164.902L307.206 167.607ZM295.185 167.635C296.275 166.676 298.125 165.541 300.26 165.218C302.301 164.909 304.718 165.316 307.206 167.607L309.697 164.902C306.362 161.829 302.815 161.112 299.71 161.582C296.698 162.038 294.219 163.585 292.755 164.874L295.185 167.635Z" fill="#D26088"/>
<path d="M292.477 151.051L285.65 157.877" stroke="#B5476E" stroke-width="2.45192" stroke-linecap="round"/>
<path d="M285.651 151.051L292.477 157.877" stroke="#B5476E" stroke-width="2.45192" stroke-linecap="round"/>
<path d="M316.702 151.051L309.875 157.877" stroke="#B5476E" stroke-width="2.45192" stroke-linecap="round"/>
<path d="M309.875 151.051L316.702 157.877" stroke="#B5476E" stroke-width="2.45192" stroke-linecap="round"/>
<circle cx="92.2583" cy="152.919" r="15.5711" fill="white" stroke="white" stroke-width="2.32813"/>
<circle cx="92.2583" cy="151.535" r="13.023" fill="#45326D"/>
<path d="M114.957 142.878H69.5588L84.1096 128.036H101.571L114.957 142.878Z" fill="#8886F8"/>
<path d="M76.6542 129.24L103.255 124.25" stroke="#45326D" stroke-width="9.31251" stroke-linecap="round"/>
<circle cx="99.899" cy="159.393" r="4.43799" fill="white"/>
<circle cx="188.339" cy="152.92" r="15.5711" fill="white" stroke="white" stroke-width="2.32813"/>
<circle cx="188.875" cy="151.536" r="13.023" fill="#45326D"/>
<circle cx="196.516" cy="159.394" r="4.43799" fill="white"/>
<path d="M211.039 142.878H165.64L180.191 128.036H197.652L211.039 142.878Z" fill="#8886F8"/>
<path d="M174.986 126.718L201.693 131.101" stroke="#45326D" stroke-width="9.31251" stroke-linecap="round"/>
<path d="M118.597 184.055C121.459 188.808 133.293 196.423 143.479 188.566" stroke="#45326D" stroke-width="6.98438" stroke-linecap="round"/>
<defs>
<linearGradient id="paint0_linear" x1="27.3813" y1="-2.83297" x2="215.387" y2="296.644" gradientUnits="userSpaceOnUse">
<stop offset="0.513852" stop-color="#B1B0FF" stop-opacity="0.29"/>
<stop offset="0.922866" stop-color="#706FB7" stop-opacity="0.63"/>
</linearGradient>
<linearGradient id="paint1_linear" x1="266.044" y1="269" x2="59.4708" y2="24.4298" gradientUnits="userSpaceOnUse">
<stop stop-color="#F1ECFF"/>
<stop offset="1" stop-color="#DFDFF9"/>
</linearGradient>
<linearGradient id="paint2_linear" x1="92.577" y1="75.3328" x2="176.689" y2="252.129" gradientUnits="userSpaceOnUse">
<stop stop-color="#BFBDFA"/>
<stop offset="1" stop-color="#ACABEE"/>
</linearGradient>
<linearGradient id="paint3_linear" x1="358.189" y1="241.186" x2="213.415" y2="124.017" gradientUnits="userSpaceOnUse">
<stop stop-color="#CCE5ED"/>
<stop offset="1" stop-color="white"/>
</linearGradient>
<linearGradient id="paint4_linear" x1="287.415" y1="242.16" x2="302.32" y2="77.6935" gradientUnits="userSpaceOnUse">
<stop stop-color="#C8E7F0"/>
<stop offset="1" stop-color="white"/>
</linearGradient>
</defs>
</svg>
