<svg width="518" height="426" viewBox="0 0 518 426" fill="none" xmlns="http://www.w3.org/2000/svg">
<path fill-rule="evenodd" clip-rule="evenodd" d="M229.58 38.1088C235.47 58.5669 219.823 81.0145 208.617 92.5246C211.336 93.5293 213.487 95.8762 214.105 98.9253C214.829 102.494 213.244 105.996 210.376 107.88C222.29 109.869 233.764 113.537 244.46 118.74L259.318 94.0603C264.247 85.8717 274.882 83.23 283.071 88.1599C291.259 93.0898 293.901 103.724 288.971 111.913L273.169 138.161C279.312 143.745 284.924 149.998 289.89 156.872C291.66 159.323 293.351 161.824 294.96 164.37C301.666 174.937 306.956 186.282 310.667 198.043L310.604 198.088C312.38 203.757 313.789 209.523 314.814 215.344L339.176 215.756C339.089 214.898 339.043 214.229 339.043 213.77C339.043 211.958 342.226 210.569 347.841 209.012C350.857 208.176 354.575 207.291 358.878 206.268C381.007 201.005 418.613 192.06 455.862 167.042C473.745 193.29 508.993 250.286 506.916 268.285C500.642 275.256 481.313 284.192 458.541 292.096C456.578 292.778 454.589 293.451 452.581 294.116C420.049 304.875 382.418 313.119 365.868 310.686C358.169 299.136 350.737 272.867 345.656 250.483L316.26 249.987C316.212 250.498 316.161 251.009 316.106 251.52L316.224 251.52C314.77 265.208 311.03 278.751 304.777 291.638C304.735 291.615 304.693 291.593 304.651 291.57C302.12 296.781 299.178 301.884 295.81 306.847C294.346 309.016 292.802 311.158 291.174 313.27C286.397 319.472 281.174 325.228 275.58 330.516L288.403 349.155C293.82 357.029 291.828 367.805 283.953 373.222C276.078 378.639 265.303 376.647 259.886 368.772L247.842 351.264C214.61 370.645 174.75 377.083 138.056 367.63L127.927 388.398C123.737 396.989 113.376 400.556 104.786 396.367C96.1948 392.177 92.6271 381.816 96.8169 373.225L106.241 353.903C85.7526 340.413 71.7297 319.91 63.8863 296.24L39.6348 305.759C30.7376 309.252 20.6938 304.87 17.2014 295.973C13.7089 287.076 18.0903 277.032 26.9875 273.54L56.9438 261.781C56.2121 253.184 56.1532 244.433 56.7563 235.67C57.4642 225.384 59.2579 215.208 62.0692 205.352L34.3709 187.155C26.3826 181.906 24.1614 171.176 29.4097 163.188C34.658 155.199 45.3884 152.978 53.3766 158.227L75.7196 172.906C77.4971 169.802 79.3903 166.768 81.3963 163.811C83.3393 160.934 85.3889 158.129 87.5424 155.407C86.3718 152.77 86.6008 149.699 88.1441 147.266C73.045 139.988 68.1659 131.091 68.8147 122.021C68.8352 121.734 68.8612 121.447 68.8926 121.16C69.1146 119.131 69.6054 117.094 70.3127 115.068L70.3131 115.067C74.8845 101.971 88.4941 89.2819 96.995 81.3558L96.9954 81.3554L96.9956 81.3552L96.9957 81.3551L96.9959 81.355C98.3653 80.0781 99.6021 78.9249 100.647 77.9136C105.223 73.485 109.195 67.7469 113.645 61.318C122.238 48.9041 132.614 33.9143 152.567 20.8023C182.853 0.899934 221.36 9.55315 229.58 38.1088Z" fill="#F6DCBC"/>
<path d="M208.617 92.5246L201.452 85.5489L190.721 96.5714L205.151 101.904L208.617 92.5246ZM229.58 38.1088L239.19 35.3423V35.3423L229.58 38.1088ZM214.105 98.9253L204.305 100.913L214.105 98.9253ZM210.376 107.88L204.884 99.523L183.549 113.542L208.73 117.744L210.376 107.88ZM244.46 118.74L240.085 127.732L248.31 131.733L253.027 123.898L244.46 118.74ZM259.318 94.0603L267.885 99.2181H267.885L259.318 94.0603ZM283.071 88.1599L288.228 79.5927V79.5927L283.071 88.1599ZM288.971 111.913L297.538 117.071L288.971 111.913ZM273.169 138.161L264.602 133.003L260.366 140.038L266.443 145.561L273.169 138.161ZM289.89 156.872L297.996 151.017V151.017L289.89 156.872ZM294.96 164.37L286.506 169.711L286.511 169.72L286.516 169.728L294.96 164.37ZM310.667 198.043L316.426 206.218L322.404 202.007L320.203 195.034L310.667 198.043ZM310.604 198.088L304.845 189.913L298.881 194.115L301.061 201.077L310.604 198.088ZM314.814 215.344L304.965 217.078L306.395 225.204L314.645 225.343L314.814 215.344ZM339.176 215.756L339.007 225.754L350.27 225.944L349.124 214.739L339.176 215.756ZM347.841 209.012L345.169 199.376V199.376L347.841 209.012ZM358.878 206.268L356.565 196.539L358.878 206.268ZM455.862 167.042L464.126 161.412L458.533 153.202L450.286 158.741L455.862 167.042ZM506.916 268.285L514.349 274.975L516.484 272.602L516.85 269.431L506.916 268.285ZM458.541 292.096L461.82 301.543L458.541 292.096ZM452.581 294.116L449.441 284.621L449.441 284.621L452.581 294.116ZM365.868 310.686L357.548 316.233L360.014 319.932L364.413 320.579L365.868 310.686ZM345.656 250.483L355.408 248.269L353.671 240.617L345.825 240.484L345.656 250.483ZM316.26 249.987L316.429 239.988L307.177 239.832L306.305 249.045L316.26 249.987ZM316.106 251.52L306.163 250.455L304.978 261.514L316.101 261.52L316.106 251.52ZM316.224 251.52L326.168 252.576L327.342 241.525L316.229 241.52L316.224 251.52ZM304.777 291.638L300.095 300.473L309.251 305.326L313.774 296.003L304.777 291.638ZM304.651 291.57L309.438 282.79L300.235 277.773L295.656 287.201L304.651 291.57ZM295.81 306.847L287.536 301.231L287.529 301.242L287.521 301.253L295.81 306.847ZM291.174 313.27L299.096 319.373V319.373L291.174 313.27ZM275.58 330.516L268.71 323.249L262.489 329.13L267.342 336.184L275.58 330.516ZM288.403 349.155L296.641 343.487L296.641 343.487L288.403 349.155ZM259.886 368.772L251.647 374.44L259.886 368.772ZM247.842 351.264L256.08 345.596L250.82 337.95L242.804 342.626L247.842 351.264ZM138.056 367.63L140.551 357.946L132.646 355.909L129.068 363.246L138.056 367.63ZM127.927 388.398L136.915 392.781L127.927 388.398ZM104.786 396.367L109.169 387.379L109.169 387.379L104.786 396.367ZM96.8169 373.225L87.8289 368.842H87.8289L96.8169 373.225ZM106.241 353.903L115.229 358.286L119.082 350.385L111.74 345.551L106.241 353.903ZM63.8863 296.24L73.3787 293.094L70.0584 283.074L60.2324 286.931L63.8863 296.24ZM39.6348 305.759L43.2887 315.068H43.2887L39.6348 305.759ZM17.2014 295.973L7.89281 299.627H7.89282L17.2014 295.973ZM26.9875 273.54L23.3336 264.231H23.3335L26.9875 273.54ZM56.9438 261.781L60.5977 271.089L67.5403 268.364L66.9078 260.933L56.9438 261.781ZM56.7563 235.67L66.7327 236.357L56.7563 235.67ZM62.0692 205.352L71.6856 208.095L73.7011 201.029L67.5601 196.995L62.0692 205.352ZM34.3709 187.155L28.8799 195.512H28.8799L34.3709 187.155ZM29.4097 163.188L21.0521 157.697H21.0521L29.4097 163.188ZM53.3766 158.227L58.8676 149.869L58.8676 149.869L53.3766 158.227ZM75.7196 172.906L70.2286 181.263L79.1138 187.101L84.3972 177.876L75.7196 172.906ZM81.3963 163.811L89.6712 169.426L89.6776 169.417L89.6841 169.407L81.3963 163.811ZM87.5424 155.407L95.3852 161.611L99.1337 156.873L96.6826 151.35L87.5424 155.407ZM88.1441 147.266L96.5891 152.621L102.605 143.135L92.486 138.258L88.1441 147.266ZM68.8147 122.021L58.8401 121.307L58.8401 121.307L68.8147 122.021ZM68.8926 121.16L78.8333 122.248L78.8333 122.248L68.8926 121.16ZM70.3127 115.068L63.8048 107.475L61.7591 109.229L60.8713 111.772L70.3127 115.068ZM70.3131 115.067L76.821 122.66L78.8665 120.907L79.7544 118.363L70.3131 115.067ZM96.995 81.3558L103.814 88.6698L103.838 88.648L103.861 88.626L96.995 81.3558ZM96.9954 81.3554L90.3057 73.9225L90.2165 74.0028L90.1292 74.0853L96.9954 81.3554ZM96.9956 81.3552L103.685 88.7882L103.881 88.6123L104.067 88.4263L96.9956 81.3552ZM96.9957 81.3551L90.4107 73.8294L90.1601 74.0486L89.9246 74.2841L96.9957 81.3551ZM96.9959 81.355L103.581 88.8807L103.7 88.7767L103.815 88.669L96.9959 81.355ZM100.647 77.9136L93.693 70.7276L93.693 70.7276L100.647 77.9136ZM113.645 61.318L105.423 55.6266V55.6266L113.645 61.318ZM152.567 20.8023L147.075 12.4453V12.4453L152.567 20.8023ZM215.783 99.5002C221.925 93.1911 229.37 83.8211 234.538 72.9724C239.665 62.208 243.075 48.8362 239.19 35.3423L219.971 40.8752C221.976 47.8395 220.507 55.9205 216.481 64.3721C212.496 72.7392 206.515 80.348 201.452 85.5489L215.783 99.5002ZM223.906 96.9377C222.571 90.354 217.915 85.2999 212.084 83.1447L205.151 101.904C204.756 101.759 204.403 101.398 204.305 100.913L223.906 96.9377ZM215.867 116.238C222.033 112.186 225.469 104.647 223.906 96.9377L204.305 100.913C204.189 100.342 204.454 99.8056 204.884 99.523L215.867 116.238ZM248.834 109.747C237.271 104.122 224.878 100.162 212.022 98.0167L208.73 117.744C219.702 119.575 230.257 122.951 240.085 127.732L248.834 109.747ZM250.75 88.9025L235.892 113.582L253.027 123.898L267.885 99.2181L250.75 88.9025ZM288.228 79.5927C275.308 71.8142 258.529 75.9824 250.75 88.9025L267.885 99.2181C269.966 95.7611 274.456 94.6458 277.913 96.7271L288.228 79.5927ZM297.538 117.071C305.317 104.151 301.149 87.3711 288.228 79.5927L277.913 96.7271C281.37 98.8084 282.485 103.298 280.404 106.755L297.538 117.071ZM281.736 143.319L297.538 117.071L280.404 106.755L264.602 133.003L281.736 143.319ZM297.996 151.017C292.621 143.576 286.546 136.806 279.894 130.761L266.443 145.561C272.079 150.683 277.226 156.42 281.784 162.728L297.996 151.017ZM303.413 159.028C301.694 156.307 299.888 153.635 297.996 151.017L281.784 162.728C283.433 165.011 285.008 167.341 286.506 169.711L303.413 159.028ZM320.203 195.034C316.228 182.435 310.568 170.301 303.403 159.011L286.516 169.728C292.764 179.573 297.683 190.129 301.13 201.053L320.203 195.034ZM316.364 206.262L316.426 206.218L304.907 189.869L304.845 189.913L316.364 206.262ZM324.662 213.611C323.562 207.359 322.05 201.173 320.147 195.099L301.061 201.077C302.71 206.341 304.017 211.688 304.965 217.078L324.662 213.611ZM339.345 205.757L314.983 205.346L314.645 225.343L339.007 225.754L339.345 205.757ZM329.043 213.77C329.043 214.748 329.131 215.822 329.228 216.773L349.124 214.739C349.089 214.393 349.067 214.132 349.055 213.945C349.041 213.743 349.043 213.7 349.043 213.77H329.043ZM345.169 199.376C342.294 200.173 339.244 201.129 336.771 202.398C335.537 203.032 333.844 204.04 332.354 205.619C330.747 207.323 329.043 210.086 329.043 213.77H349.043C349.043 216.548 347.737 218.458 346.903 219.343C346.185 220.103 345.639 220.327 345.902 220.192C346.084 220.099 346.532 219.897 347.376 219.605C348.194 219.321 349.228 219.005 350.512 218.649L345.169 199.376ZM356.565 196.539C352.323 197.548 348.402 198.479 345.169 199.376L350.512 218.649C353.311 217.872 356.827 217.035 361.192 215.996L356.565 196.539ZM450.286 158.741C414.657 182.671 378.608 191.296 356.565 196.539L361.192 215.996C383.407 210.713 422.57 201.449 461.437 175.344L450.286 158.741ZM516.85 269.431C517.304 265.496 516.691 261.324 515.776 257.509C514.828 253.56 513.374 249.278 511.623 244.871C508.12 236.055 503.138 226.026 497.653 215.969C486.665 195.822 473.195 174.723 464.126 161.412L447.598 172.673C456.412 185.61 469.507 206.132 480.095 225.545C485.397 235.268 489.956 244.503 493.036 252.256C494.577 256.134 495.676 259.462 496.328 262.178C497.012 265.028 497.047 266.574 496.982 267.139L516.85 269.431ZM461.82 301.543C473.442 297.509 484.352 293.156 493.27 288.843C501.767 284.733 509.781 280.05 514.349 274.975L499.483 261.595C497.777 263.491 492.99 266.761 484.561 270.838C476.553 274.712 466.412 278.779 455.262 282.649L461.82 301.543ZM455.721 303.61C457.774 302.931 459.809 302.241 461.82 301.543L455.262 282.649C453.346 283.314 451.404 283.972 449.441 284.621L455.721 303.61ZM364.413 320.579C374.556 322.071 389.606 320.264 405.188 317.155C421.188 313.962 439.126 309.098 455.721 303.61L449.441 284.621C433.504 289.892 416.361 294.531 401.274 297.542C385.77 300.636 373.73 301.734 367.323 300.792L364.413 320.579ZM335.904 252.696C338.483 264.059 341.683 276.52 345.255 287.692C348.741 298.598 352.866 309.21 357.548 316.233L374.189 305.139C371.171 300.612 367.73 292.314 364.305 281.602C360.966 271.157 357.909 259.291 355.408 248.269L335.904 252.696ZM316.092 259.985L345.487 260.481L345.825 240.484L316.429 239.988L316.092 259.985ZM326.049 252.585C326.108 252.033 326.164 251.481 326.216 250.929L306.305 249.045C306.26 249.515 306.213 249.985 306.163 250.455L326.049 252.585ZM316.229 241.52L316.111 241.52L316.101 261.52L316.219 261.52L316.229 241.52ZM313.774 296.003C320.549 282.04 324.596 267.374 326.168 252.576L306.28 250.463C304.943 263.043 301.511 275.462 295.78 287.272L313.774 296.003ZM299.864 300.35C299.945 300.394 300.022 300.435 300.095 300.473L309.46 282.802C309.448 282.795 309.441 282.792 309.438 282.79L299.864 300.35ZM304.084 312.463C307.723 307.102 310.906 301.582 313.646 295.939L295.656 287.201C293.335 291.98 290.634 296.667 287.536 301.231L304.084 312.463ZM299.096 319.373C300.851 317.095 302.518 314.784 304.099 312.441L287.521 301.253C286.175 303.248 284.753 305.22 283.252 307.167L299.096 319.373ZM282.45 337.782C288.418 332.14 293.994 325.996 299.096 319.373L283.252 307.167C278.8 312.947 273.93 318.315 268.71 323.249L282.45 337.782ZM296.641 343.487L283.819 324.848L267.342 336.184L280.164 354.823L296.641 343.487ZM289.621 381.461C302.046 372.913 305.189 355.912 296.641 343.487L280.164 354.823C282.451 358.147 281.61 362.696 278.285 364.983L289.621 381.461ZM251.647 374.44C260.195 386.865 277.196 390.008 289.621 381.461L278.285 364.983C274.961 367.27 270.412 366.429 268.125 363.105L251.647 374.44ZM239.603 356.932L251.647 374.44L268.125 363.105L256.08 345.596L239.603 356.932ZM135.561 377.313C174.988 387.472 217.541 380.512 252.879 359.902L242.804 342.626C211.679 360.778 174.511 366.695 140.551 357.946L135.561 377.313ZM136.915 392.781L147.044 372.013L129.068 363.246L118.939 384.014L136.915 392.781ZM100.402 405.355C113.957 411.965 130.304 406.336 136.915 392.781L118.939 384.014C117.17 387.641 112.796 389.147 109.169 387.379L100.402 405.355ZM87.8289 368.842C81.2181 382.396 86.8473 398.744 100.402 405.355L109.169 387.379C105.542 385.61 104.036 381.236 105.805 377.609L87.8289 368.842ZM97.2526 349.519L87.8289 368.842L105.805 377.609L115.229 358.286L97.2526 349.519ZM54.3939 299.385C62.8088 324.78 78.0427 347.309 100.741 362.255L111.74 345.551C93.4626 333.516 80.6506 315.039 73.3787 293.094L54.3939 299.385ZM43.2887 315.068L67.5402 305.548L60.2324 286.931L35.9808 296.451L43.2887 315.068ZM7.89282 299.627C13.4033 313.665 29.2505 320.578 43.2887 315.068L35.9808 296.451C32.2246 297.925 27.9843 296.075 26.5099 292.319L7.89282 299.627ZM23.3335 264.231C9.29542 269.742 2.38236 285.589 7.89281 299.627L26.5099 292.319C25.0354 288.563 26.8852 284.323 30.6414 282.848L23.3335 264.231ZM53.2899 252.472L23.3336 264.231L30.6414 282.848L60.5977 271.089L53.2899 252.472ZM46.7799 234.984C46.1425 244.244 46.2036 253.508 46.9799 262.629L66.9078 260.933C66.2207 252.86 66.1638 244.623 66.7327 236.357L46.7799 234.984ZM52.4527 202.609C49.4517 213.131 47.5361 223.996 46.7799 234.984L66.7327 236.357C67.3923 226.773 69.0641 217.286 71.6856 208.095L52.4527 202.609ZM28.8799 195.512L56.5782 213.71L67.5601 196.995L39.8618 178.797L28.8799 195.512ZM21.0521 157.697C12.7712 170.301 16.2759 187.231 28.8799 195.512L39.8618 178.797C36.4893 176.581 35.5516 172.051 37.7673 168.679L21.0521 157.697ZM58.8676 149.869C46.2635 141.588 29.333 145.093 21.0521 157.697L37.7673 168.679C39.983 165.306 44.5132 164.368 47.8857 166.584L58.8676 149.869ZM81.2105 164.548L58.8676 149.869L47.8857 166.584L70.2286 181.263L81.2105 164.548ZM73.1214 158.197C70.9717 161.365 68.9443 164.615 67.042 167.936L84.3972 177.876C86.0499 174.99 87.8089 172.171 89.6712 169.426L73.1214 158.197ZM79.6997 149.203C77.3885 152.124 75.1906 155.132 73.1084 158.216L89.6841 169.407C91.488 166.735 93.3893 164.134 95.3852 161.611L79.6997 149.203ZM79.699 141.91C76.3669 147.165 75.8737 153.767 78.4023 159.464L96.6826 151.35C96.8699 151.772 96.8348 152.234 96.5891 152.621L79.699 141.91ZM58.8401 121.307C58.3589 128.036 59.9837 134.848 64.4165 141.1C68.7187 147.167 75.2711 152.162 83.8021 156.274L92.486 138.258C85.918 135.092 82.4812 131.999 80.7314 129.531C79.1119 127.248 78.6217 125.076 78.7892 122.734L58.8401 121.307ZM58.9519 120.073C58.9071 120.482 58.8697 120.894 58.8401 121.307L78.7892 122.734C78.8006 122.575 78.8152 122.413 78.8333 122.248L58.9519 120.073ZM60.8713 111.772C59.9536 114.402 59.2682 117.181 58.9519 120.073L78.8333 122.248C78.961 121.08 79.2573 119.787 79.7542 118.363L60.8713 111.772ZM63.8052 107.475L63.8048 107.475L76.8206 122.66L76.821 122.66L63.8052 107.475ZM90.1755 74.0418C85.9616 77.9708 80.0607 83.462 74.6298 89.7164C69.2774 95.8804 63.7734 103.459 60.8717 111.772L79.7544 118.363C81.4242 113.58 85.0107 108.266 89.7311 102.829C94.3732 97.4834 99.5275 92.667 103.814 88.6698L90.1755 74.0418ZM90.1292 74.0853L90.1287 74.0857L103.861 88.626L103.862 88.6256L90.1292 74.0853ZM90.306 73.9223L90.3057 73.9225L103.685 88.7884L103.685 88.7882L90.306 73.9223ZM89.9246 74.2841L89.9246 74.2842L104.067 88.4263L104.067 88.4262L89.9246 74.2841ZM90.4109 73.8292L90.4107 73.8294L103.581 88.8809L103.581 88.8807L90.4109 73.8292ZM93.693 70.7276C92.7286 71.6609 91.5664 72.745 90.1764 74.041L103.815 88.669C105.164 87.4113 106.476 86.189 107.601 85.0996L93.693 70.7276ZM105.423 55.6266C100.823 62.2723 97.422 67.1189 93.693 70.7276L107.601 85.0996C113.025 79.8512 117.568 73.2216 121.868 67.0094L105.423 55.6266ZM147.075 12.4453C125.389 26.6957 114.095 43.0974 105.423 55.6266L121.868 67.0094C130.38 54.7109 139.838 41.1328 158.058 29.1594L147.075 12.4453ZM239.19 35.3423C233.886 16.9187 218.848 5.41641 201.541 1.52711C184.312 -2.34437 164.358 1.08747 147.075 12.4453L158.058 29.1594C171.061 20.6148 185.504 18.4221 197.156 21.0405C208.728 23.6411 217.054 30.7432 219.971 40.8752L239.19 35.3423Z" fill="white"/>
<path d="M507.135 267.93C509.211 249.931 473.964 192.935 456.081 166.687C398.104 205.626 339.262 205.626 339.262 213.414C339.262 221.202 352.242 289.563 366.087 310.33C395.508 314.657 491.559 285.236 507.135 267.93Z" fill="#FFF3E4"/>
<path fill-rule="evenodd" clip-rule="evenodd" d="M348.059 208.657C342.445 210.213 339.262 211.603 339.262 213.415C339.262 221.202 352.242 289.563 366.087 310.331C383.658 312.915 424.994 303.462 458.76 291.741C450.095 282.124 433.381 269.579 405.459 261.006C374.959 251.642 356.798 227.199 348.059 208.657Z" fill="url(#paint0_linear)"/>
<path d="M467.282 211.985C464.837 209.981 459.214 199.788 456.19 193.929C456.029 193.616 455.609 193.545 455.332 193.764C451.694 196.641 441.363 199.598 437.26 204.111C438.125 208.654 444.399 218.822 448.293 222.5C451.745 222.5 464.728 216.59 467.559 213.003C467.791 212.709 467.572 212.222 467.282 211.985Z" fill="#99C2FF"/>
<path d="M274.363 102.631L248.836 145.032" stroke="#E8EEFF" stroke-width="34.6129" stroke-linecap="round"/>
<path d="M347.576 232.847L298.091 232.012" stroke="#E8EEFF" stroke-width="34.6129" stroke-linecap="round"/>
<path d="M274.363 358.608L246.312 317.833" stroke="#E9EFFF" stroke-width="34.6129" stroke-linecap="round"/>
<path d="M85.4559 199.511L44.0925 172.335" stroke="#E8EEFF" stroke-width="34.6129" stroke-linecap="round"/>
<path d="M79.5996 271.21L33.5298 289.294" stroke="#CED5F2" stroke-width="34.6129" stroke-linecap="round"/>
<path d="M134.286 335.973L112.591 380.456" stroke="#C8D0EF" stroke-width="34.6129" stroke-linecap="round"/>
<path fill-rule="evenodd" clip-rule="evenodd" d="M290.109 156.517C258.744 113.101 201.656 94.4646 147.214 112.818C94.0914 130.726 60.8493 181.386 57.156 235.048C53.2917 291.193 76.6084 346.852 129.892 364.49C186.772 383.319 253.397 362.204 291.574 312.647C328.344 264.917 323.031 202.09 290.109 156.517Z" fill="#8192FF"/>
<path fill-rule="evenodd" clip-rule="evenodd" d="M290.109 156.517C258.744 113.101 201.656 94.4646 147.214 112.818C94.0914 130.726 60.8493 181.386 57.156 235.048C53.2917 291.193 76.6084 346.852 129.892 364.49C186.772 383.319 253.397 362.204 291.574 312.647C328.344 264.917 323.031 202.09 290.109 156.517Z" fill="#E8EEFF"/>
<path d="M310.886 276.112C306.711 288.957 300.281 301.377 291.393 312.915C253.216 362.471 186.591 383.587 129.711 364.758C76.4274 347.119 53.1107 291.461 56.975 235.315C59.2977 201.567 73.3077 169.006 96.5999 145.032C91.9498 157.869 89.0714 171.399 88.1266 185.126C84.2623 241.272 107.579 296.93 160.863 314.569C212.321 331.603 271.755 315.945 310.886 276.112Z" fill="url(#paint1_linear)"/>
<path fill-rule="evenodd" clip-rule="evenodd" d="M124.221 180.282C119.787 180.549 115.835 182.743 113.005 186.166C110.101 189.678 108.143 194.107 109.106 198.561C110.08 203.069 113.693 206.344 117.814 208.415C122.04 210.538 126.995 211.77 131.238 209.682C135.449 207.611 137.217 202.89 138.318 198.328C139.442 193.672 140.214 188.484 137.265 184.709C134.291 180.902 129.043 179.993 124.221 180.282Z" fill="#CFDCFF"/>
<path fill-rule="evenodd" clip-rule="evenodd" d="M206.997 155.242C203.218 155.138 199.775 157.161 197.359 160.068C194.875 163.057 193.197 166.918 194.167 170.682C195.113 174.35 198.596 176.468 202.01 178.109C205.42 179.748 209.215 181.071 212.696 179.588C216.343 178.035 218.906 174.532 219.582 170.626C220.221 166.94 218.358 163.478 215.99 160.582C213.667 157.743 210.663 155.343 206.997 155.242Z" fill="#CFDCFF"/>
<path d="M310.886 197.688C306.396 183.461 299.598 169.843 290.775 157.474C286.978 159.41 283.699 162.557 280.959 166.026C276.585 171.562 273.274 178.296 274.81 185.182C276.354 192.103 282.041 197.19 288.542 200.023C294.722 202.716 301.702 202.501 307.759 199.54C308.86 199.002 309.904 198.382 310.886 197.688Z" fill="#CFDCFF"/>
<path d="M304.996 291.282C311.249 278.396 314.988 264.853 316.443 251.164C315.933 251.163 315.423 251.177 314.914 251.205C308.91 251.544 303.612 254.845 299.987 259.643C296.488 264.273 295.38 270.062 296.342 275.786C297.37 281.909 299.554 288.4 304.996 291.282Z" fill="#CFDCFF"/>
<path fill-rule="evenodd" clip-rule="evenodd" d="M248.212 290.558C244.106 290.766 240.875 293.749 238.477 297.088C236.255 300.183 235.334 303.89 235.939 307.653C236.606 311.797 238.126 316.124 241.851 318.061C245.678 320.052 250.243 319.01 254.114 317.106C257.936 315.225 261.195 312.184 262.207 308.046C263.237 303.833 261.976 299.421 259.266 296.036C256.563 292.658 252.533 290.34 248.212 290.558Z" fill="#CFDCFF"/>
<path fill-rule="evenodd" clip-rule="evenodd" d="M129.049 302.804C124.534 302.696 120.703 305.698 117.889 309.23C115.078 312.759 113.077 317.148 114.132 321.534C115.175 325.872 119.012 328.688 123.032 330.622C127.05 332.555 131.67 333.847 135.68 331.901C139.68 329.96 141.697 325.571 142.464 321.191C143.178 317.113 141.999 313.093 139.558 309.748C136.955 306.179 133.465 302.91 129.049 302.804Z" fill="#CFDCFF"/>
<path d="M57.352 233.703C57.2794 234.545 57.214 235.388 57.1559 236.232C55.8564 255.113 57.6307 273.939 62.5848 291.282C65.1649 290.556 67.686 289.527 70.0706 288.277C77.7076 284.274 83.0459 277.239 85.1883 268.887C87.4123 260.217 87.0309 250.684 81.5234 243.628C75.9557 236.495 66.7542 233.309 57.713 233.686C57.5925 233.691 57.4721 233.696 57.352 233.703Z" fill="#CFDCFF"/>
<path d="M184.077 371.037C193.85 370.213 203.563 368.399 213.045 365.649C213.531 361.933 213.157 358.179 210.934 355.166C208.016 351.212 203.161 349.061 198.25 349.215C193.514 349.363 189.412 352.172 186.524 355.93C183.709 359.593 182.223 364.2 183.278 368.698C183.469 369.514 183.739 370.294 184.077 371.037Z" fill="#CFDCFF"/>
<path d="M246.946 210.759C252.138 212.057 257.33 227.632 252.138 228.93C246.946 230.228 240.023 210.759 246.946 210.759Z" fill="#141B46"/>
<path d="M140.361 238.481C137.035 242.675 142.412 258.188 147.319 256.053C152.226 253.918 145.85 234.262 140.361 238.481Z" fill="#141B46"/>
<path d="M237.587 250.562C224.448 273.418 185.667 279.983 167.063 266.138" stroke="#141B46" stroke-width="8.65322" stroke-linecap="round"/>
<path d="M229.799 37.7535C236.376 60.598 216.098 85.923 205.137 95.73C176.005 110.729 112.375 142.198 90.9147 148.082C42.4567 126.882 87.4534 90.5381 100.866 77.5583C114.278 64.5784 122.499 40.3494 152.785 20.447C183.072 0.544615 221.579 9.19783 229.799 37.7535Z" fill="#CFDCFF"/>
<path d="M70.5315 114.712C106.091 84.1237 175.986 81.0919 215.504 84.5403C213.558 87.0125 211.599 89.2599 209.739 91.2266C204.149 94.8312 198.239 98.5701 192.114 102.362C160.089 118.519 109.569 142.966 90.9148 148.081C69.6713 138.787 66.3885 126.583 70.5315 114.712Z" fill="url(#paint2_linear)"/>
<path d="M215.521 138.131C231.789 121.516 211.627 107.556 199.512 102.652C160.573 119.959 85.6362 155.697 97.4046 160.196C112.115 165.821 195.186 158.898 215.521 138.131Z" fill="#CFDCFF"/>
<path d="M101.111 161.114C99.6101 160.854 98.3625 160.541 97.4048 160.175C85.6364 155.676 160.573 119.938 199.513 102.631C202.118 103.686 205.095 105.159 208.002 106.987C187.412 122.81 149.473 146.269 101.111 161.114Z" fill="url(#paint3_linear)"/>
<path d="M205.844 100.29C185.22 104.472 135.479 117.623 95.6739 151.544" stroke="#4957B0" stroke-width="17.3064" stroke-linecap="round"/>
<path d="M450.456 237.643C446.706 241.393 434.188 249.585 414.113 252.354C389.018 255.815 382.312 252.354 372.577 258.411" stroke="#F6DCBC" stroke-width="8.65322" stroke-linecap="round"/>
<defs>
<linearGradient id="paint0_linear" x1="389.883" y1="254.085" x2="360.679" y2="314.441" gradientUnits="userSpaceOnUse">
<stop stop-color="#FFF3E4"/>
<stop offset="1" stop-color="#F3D6B2"/>
</linearGradient>
<linearGradient id="paint1_linear" x1="139.701" y1="308.72" x2="15.2411" y2="461.12" gradientUnits="userSpaceOnUse">
<stop stop-color="#E8EEFF"/>
<stop offset="1" stop-color="#7B87D5"/>
</linearGradient>
<linearGradient id="paint2_linear" x1="117.739" y1="98.7576" x2="124.229" y2="161.061" gradientUnits="userSpaceOnUse">
<stop offset="0.089595" stop-color="#CFDCFF"/>
<stop offset="1" stop-color="#8B9ED0"/>
</linearGradient>
<linearGradient id="paint3_linear" x1="149.757" y1="136.4" x2="139.968" y2="116.409" gradientUnits="userSpaceOnUse">
<stop stop-color="#CFDCFF"/>
<stop offset="1" stop-color="#6B80B8"/>
</linearGradient>
</defs>
</svg>
