<svg width="277" height="324" viewBox="0 0 277 324" fill="none" xmlns="http://www.w3.org/2000/svg">
<path d="M45.5379 192.872C52.7674 251.456 79.5669 319.623 181.966 292.417C284.366 265.211 257.611 180.057 229.41 135.1C215.458 112.858 173.613 10.2206 100.517 33.1876C20.6379 58.2854 40.6857 153.553 45.5379 192.872Z" fill="url(#paint0_linear)"/>
<path d="M183.415 134.027C148.868 142.708 89.1291 163.651 87.3191 164.22C84.8642 162.352 103.744 136.704 129.041 126.686C154.338 116.668 186.947 132.607 183.415 134.027Z" fill="url(#paint1_linear)"/>
<mask id="mask0" style="mask-type:alpha" maskUnits="userSpaceOnUse" x="87" y="123" width="97" height="42">
<path d="M183.415 134.027C148.868 142.708 89.1291 163.651 87.3191 164.22C84.8642 162.352 103.744 136.704 129.041 126.686C154.338 116.668 186.947 132.607 183.415 134.027Z" fill="#99DAC4"/>
</mask>
<g mask="url(#mask0)">
<ellipse cx="112.31" cy="146.788" rx="5.13432" ry="14.2737" transform="rotate(-17.4427 112.31 146.788)" fill="#000007"/>
<ellipse cx="156.055" cy="134.492" rx="5.13432" ry="14.2737" transform="rotate(-17.4427 156.055 134.492)" fill="#000007"/>
</g>
<path fill-rule="evenodd" clip-rule="evenodd" d="M110.856 156.035C112.817 159.164 114.958 160.927 116.59 160.414C118.249 159.893 118.995 157.139 118.778 153.352C116.022 154.278 113.37 155.177 110.856 156.035Z" fill="#000007"/>
<path fill-rule="evenodd" clip-rule="evenodd" d="M153.69 142.148C155.873 146.235 158.442 148.686 160.328 148.093C162.193 147.507 162.905 144.1 162.392 139.575C159.529 140.402 156.619 141.263 153.69 142.148Z" fill="#000007"/>
<ellipse cx="109.482" cy="142.819" rx="1.53042" ry="1.53042" transform="rotate(-17.4427 109.482 142.819)" fill="white"/>
<ellipse cx="152.777" cy="129.216" rx="1.53042" ry="1.53043" transform="rotate(-17.4427 152.777 129.216)" fill="white"/>
<path d="M65.0868 47.2175L69.6885 51.9814" stroke="#3E4671" stroke-width="4.49396" stroke-linecap="round"/>
<path d="M100.869 29.0681L102.505 35.4864" stroke="#3E4671" stroke-width="4.49396" stroke-linecap="round"/>
<path d="M138.626 27.2165L136.388 33.4507" stroke="#3E4671" stroke-width="4.49396" stroke-linecap="round"/>
<path d="M123.753 183.246C124.835 186.689 119.998 187.471 116.311 188.629C112.623 189.788 106.395 190.546 105.313 187.102C104.231 183.659 108.705 177.317 112.392 176.159C116.079 175 122.671 179.802 123.753 183.246Z" fill="white"/>
<path d="M160.43 171.722C161.512 175.165 165.927 173.039 169.614 171.881C173.302 170.722 178.845 167.782 177.763 164.338C176.681 160.895 169.383 158.252 165.696 159.411C162.009 160.569 159.348 168.278 160.43 171.722Z" fill="white"/>
<path d="M86.2274 190.007C105.126 190.455 153.865 184.254 197.639 155.864" stroke="#3E4671" stroke-width="4.49396" stroke-linecap="round"/>
<path fill-rule="evenodd" clip-rule="evenodd" d="M69.3723 66.0006C73.2515 67.0568 69.9865 75.7077 67.6166 75.9018C65.2466 76.096 66.1425 64.6363 69.3723 66.0006ZM65.8776 80.45C67.5139 81.1851 67.8404 85.4547 65.6721 85.5114C63.5038 85.5681 63.6747 81.1421 65.8776 80.45ZM57.1892 80.2699C59.3972 83.6245 58.1704 92.5397 53.1123 91.1914C46.7895 89.5059 53.7973 76.6828 57.1892 80.2699Z" fill="#BFCAE8"/>
<path fill-rule="evenodd" clip-rule="evenodd" d="M214.809 233.869C218.178 234.052 223.938 226.032 221.532 224.304C219.126 222.576 210.481 231.295 214.809 233.869ZM227.495 240.646C232.231 241.228 230.825 261.127 221.944 261.848C213.063 262.568 218.075 243.606 227.495 240.646ZM231.14 228.53C230.129 230.366 228.759 233.998 231.36 233.843C234.611 233.649 234.154 227.583 231.14 228.53Z" fill="#BFCAE8"/>
<defs>
<linearGradient id="paint0_linear" x1="181.538" y1="38.3654" x2="118.639" y2="312.504" gradientUnits="userSpaceOnUse">
<stop stop-color="#A9D4EC" stop-opacity="0.78"/>
<stop offset="0.447917" stop-color="#96AFE0" stop-opacity="0.75"/>
<stop offset="1" stop-color="#514FB0" stop-opacity="0.87"/>
</linearGradient>
<linearGradient id="paint1_linear" x1="128.482" y1="126.745" x2="135.5" y2="149.082" gradientUnits="userSpaceOnUse">
<stop stop-color="#789DD1"/>
<stop offset="1" stop-color="#B0C4E1"/>
</linearGradient>
</defs>
</svg>
