<svg width="42px" viewBox="0 0 42 42" version="1.1" xmlns="http://www.w3.org/2000/svg" xmlns:xlink="http://www.w3.org/1999/xlink">
<symbol id="flag_ru" viewBox="0 0 26 20">
<rect x="0.75" y="0.75" width="24.5" height="18.5" rx="1.25" fill="#3A79D4" stroke="#E0E0E0" stroke-width="0.5"/>
<path d="M1 13H25V18C25 18.5523 24.5523 19 24 19H2C1.44772 19 1 18.5523 1 18V13Z" fill="#EA535E"/>
<path d="M1 2C1 1.44772 1.44772 1 2 1H24C24.5523 1 25 1.44772 25 2V7H1V2Z" fill="white"/>
</symbol>
<symbol id="flag_en" viewBox="0 0 26 20"  fill="none">
<path d="M25 1.00098H1V18.9999H25V1.00098Z" fill="#F0F0F0"/>
<path d="M14.6249 1H11.3749V8.31197H1.00003V11.6867H11.3749V18.9987H14.6249V11.6867H25V8.31197H14.6249V1Z" fill="#D80027"/>
<path d="M2.7099 1L10.1738 5.30621V1H2.7099Z" fill="#0052B4"/>
<path d="M1 3.98291L6.00305 6.86916H1V3.98291Z" fill="#0052B4"/>
<path d="M23.2901 1L15.8262 5.30621V1H23.2901Z" fill="#0052B4"/>
<path d="M25 3.98291L19.997 6.86916H25V3.98291Z" fill="#0052B4"/>
<path d="M8.46393 13L1.00007 17.3062V13H8.46393Z" fill="#0052B4"/>
<path d="M10.1738 15.9829L5.17078 18.8692H10.1738V15.9829Z" fill="#0052B4"/>
<path d="M17.5361 13L24.9999 17.3062V13H17.5361Z" fill="#0052B4"/>
<path d="M15.8262 15.9829L20.8292 18.8692H15.8262V15.9829Z" fill="#0052B4"/>
<path d="M10.1738 6.86892H7.29684L1 3.23632V1.57666L10.1738 6.86892Z" fill="#D80027"/>
<path d="M15.8262 6.86892H18.7032L25 3.23632V1.57666L15.8262 6.86892Z" fill="#D80027"/>
<path d="M1.00001 18.8689H3.87699L10.1738 15.2363V13.5767L1.00001 18.8689Z" fill="#D80027"/>
<path d="M25 18.8689H22.123L15.8262 15.2363V13.5767L25 18.8689Z" fill="#D80027"/>
<rect x="0.75" y="0.75" width="24.5" height="18.5" rx="1.25" stroke="#E0E0E0" stroke-width="0.5"/>
</symbol>
<symbol id="apple" viewBox="0 0 35 42">
<path d="M28.8392 22.0945C28.7909 16.8932 33.2292 14.3628 33.4322 14.245C30.9186 10.6898 27.0226 10.2041 25.6535 10.1653C22.3813 9.83129 19.2073 12.0648 17.5404 12.0648C15.8403 12.0648 13.2735 10.1976 10.507 10.2525C6.94707 10.3057 3.61668 12.3052 1.79012 15.4102C-1.97944 21.7411 0.831925 31.0446 4.44345 36.1619C6.25005 38.6681 8.36107 41.4664 11.1242 41.368C13.8274 41.2598 14.8372 39.6961 18.0994 39.6961C21.3316 39.6961 22.2798 41.368 25.0979 41.305C27.9991 41.2598 29.8256 38.7875 31.569 36.2587C33.6567 33.3862 34.4952 30.5572 34.5284 30.412C34.4602 30.3894 28.894 28.3285 28.8392 22.0945Z" fill="#FFFFFF"/>
<path d="M23.5158 6.79898C24.9698 5.03511 25.9646 2.6354 25.6884 0.200195C23.5841 0.290568 20.9523 1.61226 19.4369 3.3374C18.0961 4.85759 16.8983 7.34928 17.2077 9.69251C19.5716 9.86357 21.9987 8.53542 23.5158 6.79898Z" fill="#FFFFFF"/>
</symbol>
<symbol id="googleplay" viewBox="0 0 376 450">
    <g id="Page-1" stroke="none" stroke-width="1" fill="none" fill-rule="evenodd">
        <g id="4519086_google_play_icon">
            <path d="M362.472,196.608 C379.722,209.458 379.722,238.398 363.552,251.249 L318.043,277.019 L250.602,223.929 L318.209,171.852 L362.472,196.608 Z" id="Path" fill="#FFC801"></path>
            <path d="M318.396,276.769 L318.386,276.759 L318.376,276.759 L250.541,223.958 L250.52,223.938 L250.51,223.948 L250.531,223.969 L250.51,223.948 L250.48,223.918 L250.241,224.099 L0.451,414.349 L0.451,422.299 C0.451,432.802 2.909,444.004 11.296,447.894 C22.347,453.019 38.473,443.002 38.473,443.002 L318.396,276.769 Z" id="Path" fill="#F93647"></path>
            <polygon id="Path" fill="#00D3FF" points="250.242 224.099 0.452 414.349 0.452 29.588 250.182 224.019"></polygon>
            <path d="M0.452,25.738 L0.452,29.588 L250.181,224.019 L250.242,224.099 L250.481,223.918 L250.502,223.908 L250.602,223.828 L318.209,172.143 C318.209,172.143 100.777,42.151 37.745,4.661 C35.003,3.03 28.432,-1.107 20.553,1.473 C11.113,4.565 0.452,15.793 0.452,25.738 Z" id="Path" fill="#00EF77"></path>
        </g>
    </g>
</symbol>
<symbol id="full" viewBox="0 0 9 12">
<path d="M0.846286 9.05676L3.78952 11.7814C4.10444 12.0729 4.39963 12.0729 4.71455 11.7814L7.65778 9.05676C8.0104 8.73034 8.13599 8.61951 7.83374 8.23868C7.53149 7.85785 7.25356 7.9735 6.90094 8.29993L3.95771 11.0245L4.54634 11.0247L1.6031 8.30007C1.25048 7.97365 0.972566 7.85785 0.670319 8.23868C0.368073 8.61951 0.493665 8.73034 0.846286 9.05676Z" fill="#3495DB"></path> <path d="M7.65762 2.94324L4.71439 0.218642C4.39947 -0.0728812 4.10428 -0.0728812 3.78936 0.218642L0.846128 2.94324C0.493507 3.26966 0.367918 3.38049 0.670166 3.76132C0.972412 4.14215 1.25034 4.0265 1.60296 3.70007L4.5462 0.975477L3.95757 0.975332L6.9008 3.69993C7.25343 4.02635 7.53134 4.14215 7.83359 3.76132C8.13583 3.38049 8.01024 3.26966 7.65762 2.94324Z" fill="#3495DB"></path>
</symbol>
<symbol id="arrow_back" viewBox="0 0 22 16">
<path d="M8.5 0L0 8L8.5 16L10 14.5L4.5 9H22V7H4.5L10 1.5L8.5 0Z"/>
	</symbol>
<symbol id="close" viewBox="0 0 11 11">
<path d="M1 10L10 1"/>
<path d="M1 1L10 10"/>
</symbol>
<symbol id="user" viewBox="0 0 186 186">
    <g id="Page-1" stroke="none" stroke-width="1" fill="none" fill-rule="evenodd" stroke-linecap="round" stroke-linejoin="round">
        <g id="g2390" transform="translate(4.473810, 4.538883)" stroke="#3495db" stroke-width="9.26041603">
            <ellipse id="circle2373" cx="88.1304" cy="41.54097" rx="41.306015" ry="41.448803"></ellipse>
            <path d="M0.4238,175.970956 L175.837,175.970956 M0.4238,175.970958 C0.245358801,173.733796 0.156024167,171.490659 0.156,169.246666 C0.156000563,121.608308 39.5434319,82.9897841 88.1303,82.98977 C111.462555,82.9897508 133.839187,92.0774963 150.33759,108.253804 C166.835992,124.430112 176.1047,146.369902 176.1047,169.246666 C176.104687,171.491224 176.015319,173.734926 175.8368,175.972648"></path>
        </g>
    </g>
</symbol>
</svg>