<svg width="170" height="42" viewBox="0 0 170 42" fill="none" xmlns="http://www.w3.org/2000/svg">
<path d="M91.6461 14.3042C102.315 31.4409 108.961 40.7886 113.683 40.7886C114.864 40.7886 116.027 40.4218 117.181 39.729L113.683 42C103.934 42 99.7347 35.1941 90.9424 20.9447C90.113 19.6005 89.2428 18.1901 88.3231 16.7129C84.1739 10.0482 79.9392 6.16173 75.9054 4.12612V0C80.7543 1.37542 86.1306 5.44487 91.6461 14.3042Z" fill="#00B760"/>
<path d="M136.07 18.3487H145.165V22.1005H141.246V41.198H136.07V18.3487Z" fill="#00B760"/>
<path d="M147.263 18.3487H157.004V21.7902H152.053V27.4602H155.827V30.9581H152.053V37.7847H157.058V41.198H147.263V18.3487Z" fill="#00B760"/>
<path d="M163.167 18.3487H159.156V41.198H163.167V31.212H165.967V41.198H170V18.3487H165.967V27.6013H163.167V18.3487Z" fill="#00B760"/>
<path d="M124.165 25.4226C117.871 14.7426 109.35 0.282705 97.7675 0.282726C96.0768 0.821421 92.5556 2.50519 91.9959 4.93073C93.8008 2.80791 95.7721 1.49409 98.1173 1.49409C104.231 1.49409 111.459 12.9603 118.139 23.559C123.794 32.5308 129.057 40.881 132.922 41.1285V36.6247C130.625 36.3861 127.758 31.5205 124.165 25.4226Z" fill="#00B760"/>
<path d="M75.9143 23.478V31.0073C79.9422 26.7897 82.9004 20.9929 85.6256 15.6527C88.0303 10.9405 90.2536 6.58376 92.8704 3.98144C93.5117 3.16189 95.5638 1.27758 98.642 0.296792C98.3136 0.285064 97.5279 0.268644 97.0125 0.296792C87.2088 0.665774 83.6784 8.02518 79.9394 15.8194C78.6994 18.4042 77.4365 21.0367 75.9143 23.478Z" fill="#0038A8"/>
<path d="M0.43161 3.46206H6.35084L9.09465 16.9498L12.0543 3.46206H17.7577L18.1893 26.6576H14.274L13.8115 11.2225L10.9136 26.6576H7.42987L4.34693 11.108L3.97698 26.6576H0L0.43161 3.46206Z" fill="#0038A8"/>
<path d="M19.9383 3.46206H23.8712V16.7494L29.6451 3.46206H32.8807V26.6576H28.8641V13.1412L22.9786 26.6576H19.9383V3.46206Z" fill="#0038A8"/>
<path d="M39.3978 3.46206H34.6296V26.6576H39.3978V16.5489H39.8772L43.0205 26.6576H47.9218L43.8462 14.3439L47.7886 3.46206H43.0471L39.8772 12.6544H39.3978V3.46206Z" fill="#0038A8"/>
<path fill-rule="evenodd" clip-rule="evenodd" d="M49.6708 3.46206H55.7522C57.347 3.46206 58.5394 4.04434 59.3294 5.20889C60.1194 6.35435 60.5144 8.01526 60.5144 10.1916C60.5144 12.6735 60.0523 14.4012 59.1282 15.3748C58.219 16.3294 56.9371 16.8066 55.2826 16.8066H53.6729V26.6576H49.6708V3.46206ZM55.0143 13.2271C55.7149 13.2271 56.177 12.9885 56.4005 12.5112C56.639 12.0339 56.7583 11.2321 56.7583 10.1057C56.7583 9.07481 56.6465 8.31117 56.4229 7.8148C56.1993 7.31844 55.7223 7.07026 54.992 7.07026H53.6729V13.2271H55.0143Z" fill="#0038A8"/>
<path fill-rule="evenodd" clip-rule="evenodd" d="M63.588 24.7919C64.4711 26.0357 65.9455 26.6576 68.0113 26.6576C70.0929 26.6576 71.5752 26.0357 72.4583 24.7919C73.3571 23.5296 73.8066 21.6732 73.8066 19.2228V10.8412C73.8066 8.40933 73.3571 6.57151 72.4583 5.32773C71.5752 4.08395 70.0929 3.46206 68.0113 3.46206C65.9455 3.46206 64.4711 4.08395 63.588 5.32773C62.7049 6.55294 62.2634 8.39076 62.2634 10.8412V19.2228C62.2634 21.6732 62.7049 23.5296 63.588 24.7919ZM69.194 22.425C69.0048 22.8891 68.6106 23.1212 68.0113 23.1212C67.4121 23.1212 67.0257 22.8891 66.8523 22.425C66.6788 21.9424 66.5921 21.2926 66.5921 20.4758V9.61598C66.5921 8.79917 66.6867 8.15871 66.8759 7.69462C67.0652 7.21196 67.4436 6.97063 68.0113 6.97063C68.6106 6.97063 69.0048 7.20268 69.194 7.66677C69.3833 8.13087 69.4779 8.7806 69.4779 9.61598V20.4758C69.4779 21.2926 69.3833 21.9424 69.194 22.425Z" fill="#0038A8"/>
<path d="M132.922 26.2C127.86 35.3511 123.48 42 113.683 42C112.632 42 111.645 41.9209 110.71 41.7617C114.068 41.5713 117.123 39.847 118.23 39.0087C123.045 35.2926 127.744 26.0736 132.922 14.3542V26.2Z" fill="#0038A8"/>
</svg>
