<svg width="90" height="90" viewBox="0 0 90 90" fill="none" xmlns="http://www.w3.org/2000/svg">
<path d="M87.466 38.7662L84.6439 35.7287C82.797 33.741 81.9349 30.9773 82.3065 28.2394L82.8748 24.055C83.5253 19.267 80.4113 14.8043 75.8368 13.9692L71.8388 13.239C69.223 12.7613 66.9647 11.0532 65.7201 8.61039L63.8173 4.87732C61.6405 0.605535 56.6018 -1.09868 52.429 1.02468L48.7821 2.88061C46.3958 4.09496 43.6052 4.09496 41.2189 2.88061L37.572 1.02468C33.3992 -1.09868 28.3605 0.605535 26.1837 4.87732L24.2809 8.61039C23.0363 11.0532 20.778 12.7613 18.1622 13.239L14.1642 13.9692C9.58967 14.805 6.47567 19.267 7.1256 24.055L7.69389 28.2394C8.0661 30.9773 7.20339 33.741 5.35646 35.7287L2.53432 38.7662C-0.695399 42.2415 -0.695399 47.7578 2.53432 51.2331L5.35646 54.2706C7.20339 56.2583 8.06546 59.0213 7.69389 61.7599L7.1256 65.9443C6.47503 70.7323 9.58903 75.195 14.1642 76.03L18.1622 76.7603C20.778 77.238 23.0363 78.946 24.2809 81.3889L26.1837 85.122C28.3605 89.3937 33.3992 91.098 37.572 88.9746L41.2189 87.1187C43.6052 85.9043 46.3958 85.9043 48.7821 87.1187L52.429 88.9746C56.6018 91.0986 61.6405 89.3937 63.8173 85.122L65.7201 81.3889C66.9647 78.946 69.223 77.238 71.8388 76.7603L75.8368 76.03C80.4113 75.1943 83.5253 70.7323 82.8748 65.9443L82.3065 61.7599C81.9343 59.022 82.797 56.2583 84.6439 54.2706L87.466 51.2331C90.6951 47.7578 90.6951 42.2421 87.466 38.7662ZM14.2452 71.4645C12.5552 71.4645 11.1852 70.038 11.1852 68.2785C11.1852 66.519 12.5552 65.0925 14.2452 65.0925C15.9353 65.0925 17.3052 66.519 17.3052 68.2785C17.3052 70.038 15.9353 71.4645 14.2452 71.4645Z" fill="#B9AF79"/>
<path d="M23.3266 48.8411V40.6145H26.233C27.2391 40.6145 28.0034 40.8054 28.5235 41.1879C29.0436 41.5704 29.3039 42.1304 29.3039 42.869C29.3039 43.2721 29.1998 43.6269 28.9908 43.9342C28.7819 44.2415 28.4913 44.4665 28.1191 44.6092C28.5447 44.7146 28.8803 44.9274 29.1246 45.2476C29.3701 45.5677 29.4923 45.9592 29.4923 46.4227C29.4923 47.2134 29.2377 47.8126 28.7286 48.2195C28.2194 48.6264 27.4936 48.8334 26.5512 48.8411H23.3266ZM25.036 44.0609H26.3011C27.1632 44.0461 27.5946 43.7047 27.5946 43.0381C27.5946 42.6652 27.4853 42.3965 27.2667 42.2332C27.0481 42.0699 26.7036 41.9876 26.233 41.9876H25.0366V44.0609H25.036ZM25.036 45.2585V47.4789H26.5004C26.9028 47.4789 27.2172 47.3844 27.4435 47.1935C27.6698 47.0039 27.7823 46.7409 27.7823 46.4054C27.7823 45.6519 27.3895 45.2694 26.6026 45.2585H25.036Z" fill="white"/>
<path d="M33.8451 45.8294H32.4835V48.8411H30.7741V40.6145H33.8566C34.837 40.6145 35.593 40.8311 36.1246 41.2644C36.6563 41.6977 36.9224 42.3097 36.9224 43.1004C36.9224 43.6616 36.7996 44.1296 36.5547 44.5044C36.3098 44.8792 35.9382 45.1775 35.4413 45.3999L37.2361 48.7614V48.8405H35.4014L33.8451 45.8294ZM32.4835 44.4562H33.8624C34.2919 44.4562 34.6249 44.3482 34.8601 44.1316C35.0954 43.9149 35.2137 43.6166 35.2137 43.2361C35.2137 42.8478 35.1025 42.5431 34.8801 42.3206C34.6576 42.0982 34.3163 41.987 33.8566 41.987H32.4835V44.4562Z" fill="white"/>
<path d="M45.0373 44.9138C45.0373 45.7238 44.8927 46.4335 44.6041 47.0436C44.3154 47.6536 43.9021 48.1248 43.3646 48.4559C42.8266 48.7876 42.2107 48.9528 41.5151 48.9528C40.8279 48.9528 40.2146 48.7889 39.6746 48.4611C39.1353 48.1332 38.7181 47.6658 38.4217 47.0564C38.1253 46.4489 37.9756 45.7488 37.9717 44.9575V44.5506C37.9717 43.7406 38.1189 43.0276 38.4133 42.4118C38.7078 41.7959 39.1231 41.3234 39.6611 40.9936C40.1986 40.6638 40.8131 40.4993 41.5042 40.4993C42.1953 40.4993 42.8098 40.6638 43.3473 40.9936C43.8853 41.3234 44.3006 41.7959 44.5951 42.4118C44.8895 43.0276 45.0373 43.7386 45.0373 44.5448V44.9138ZM43.3042 44.5409C43.3042 43.6782 43.1486 43.0231 42.8368 42.5744C42.5251 42.1257 42.0808 41.902 41.5036 41.902C40.9295 41.902 40.4872 42.1231 40.1761 42.5661C39.8649 43.009 39.7074 43.6576 39.7036 44.5126V44.9138C39.7036 45.754 39.8591 46.4052 40.1709 46.8687C40.4827 47.3322 40.9308 47.5636 41.5158 47.5636C42.0898 47.5636 42.5302 47.3399 42.8381 46.8944C43.1461 46.4476 43.3016 45.7971 43.3055 44.9421V44.5409H43.3042Z" fill="white"/>
<path d="M53.0253 48.8411H51.3159L47.9879 43.4283V48.8411H46.2785V40.6145H47.9879L51.3217 46.0389V40.6145H53.0253V48.8411Z" fill="white"/>
<path d="M56.3302 47.4788H60.5133V48.8404H54.194V47.8459L58.2967 41.9869H54.1998V40.6138H60.422V41.5858L56.3302 47.4788Z" fill="white"/>
<path d="M66.5812 45.2759H63.2994V47.4796H67.1514V48.8411H61.59V40.6145H67.1405V41.9876H63.2994V43.9484H66.5812V45.2759Z" fill="white"/>
<path d="M22.3348 25.5694L21.492 26.688L24.534 28.9804L23.9663 29.7326L20.925 27.4408L20.0938 28.5446L19.4843 28.0856L21.7253 25.1111L22.3348 25.5694Z" fill="white"/>
<path d="M26.5454 25.3676L25.3793 26.535L25.8229 27.4241L25.1151 28.1325L23.083 23.6981L23.7001 23.0803L28.1442 25.1008L27.4358 25.8093L26.5454 25.3676ZM25.0186 25.8176L25.8267 25.0083L24.2093 24.2053L25.0186 25.8176Z" fill="white"/>
<path d="M30.9465 22.3785C30.9278 22.6421 30.8256 22.9102 30.6392 23.1821C30.4534 23.4547 30.2072 23.7009 29.9025 23.9207C29.5817 24.1515 29.2493 24.2852 28.9067 24.3193C28.5634 24.3534 28.2298 24.2852 27.9058 24.1142C27.5824 23.9426 27.2893 23.6771 27.0257 23.3203L26.8444 23.0677C26.577 22.6974 26.4086 22.3322 26.3378 21.9716C26.2678 21.6109 26.298 21.2741 26.4298 20.961C26.5616 20.6479 26.7853 20.3779 27.1016 20.1497C27.5413 19.8328 27.9604 19.6888 28.3596 19.7203C28.7588 19.7512 29.1253 19.9498 29.4602 20.3182L28.7164 20.8543C28.5293 20.6672 28.3423 20.5657 28.1552 20.5515C27.9675 20.5367 27.7714 20.6017 27.5683 20.7495C27.3086 20.9372 27.1813 21.177 27.1864 21.4708C27.1909 21.7633 27.3317 22.1034 27.6081 22.4904L27.7791 22.7263C28.0594 23.1152 28.3455 23.3557 28.6361 23.4482C28.9266 23.5402 29.2146 23.4836 29.5007 23.2779C29.7874 23.0715 29.9481 22.8619 29.9816 22.6511L29.5206 22.0121L28.8257 22.5135L28.4194 21.9504L29.8787 20.898L30.9465 22.3785Z" fill="white"/>
<path d="M32.3054 21.4553L34.0804 20.5341L34.4294 21.2059L31.8181 22.5604L29.7115 18.5027L30.5479 18.0681L32.3054 21.4553Z" fill="white"/>
<path d="M35.7755 20.7038L34.9006 21.0523L33.206 16.8068L34.0803 16.4578L35.7755 20.7038Z" fill="white"/>
<path d="M40.0308 19.4315L39.1211 19.6764L36.5677 17.249L37.3501 20.1534L36.4404 20.3984L35.2511 15.9839L36.1614 15.7389L38.7193 18.1715L37.9351 15.2613L38.8415 15.0164L40.0308 19.4315Z" fill="white"/>
<path d="M43.1992 17.0568L41.4024 17.2619L41.5413 18.4788L43.6498 18.239L43.736 18.9899L40.6914 19.3377L40.1726 14.7952L43.2121 14.4487L43.2982 15.2067L41.1954 15.4471L41.3188 16.5303L43.1156 16.3252L43.1992 17.0568Z" fill="white"/>
<path d="M48.3164 18.2635L46.6719 18.1105L46.2714 19.0189L45.2737 18.925L47.3945 14.5317L48.2636 14.6127L49.5416 19.3236L48.5446 19.2304L48.3164 18.2635ZM46.9959 17.3738L48.1344 17.4799L47.7211 15.7236L46.9959 17.3738Z" fill="white"/>
<path d="M53.4382 19.0112L54.9071 16.0444L55.8109 16.2977L53.6021 20.4268L52.6892 20.1715L52.7959 17.0267L51.2557 19.771L50.3422 19.5158L50.5967 14.8403L51.5006 15.0936L51.2216 18.387L52.8223 15.4633L53.5899 15.678L53.4382 19.0112Z" fill="white"/>
<path d="M57.4432 21.1146L55.9563 20.3966L55.2633 21.1076L54.362 20.6711L57.8842 17.2954L58.6704 17.676L58.2217 22.5373L57.3198 22.1008L57.4432 21.1146ZM56.5175 19.8199L57.5473 20.3175L57.7749 18.5265L56.5175 19.8199Z" fill="white"/>
<path d="M60.7623 22.2825L60.1452 21.8556L59.1944 23.2333L58.4191 22.6978L61.0175 18.9358L62.4157 19.9014C62.8593 20.2086 63.1344 20.5442 63.2386 20.9087C63.3427 21.2732 63.2701 21.6364 63.02 21.9984C62.8432 22.2549 62.6394 22.4304 62.4099 22.5242C62.1804 22.6187 61.9175 22.6399 61.6218 22.5853L61.3737 24.6855L61.3486 24.7215L60.5167 24.1461L60.7623 22.2825ZM60.5784 21.2276L61.2039 21.6596C61.3987 21.7939 61.5832 21.8486 61.7581 21.8241C61.9329 21.7984 62.0814 21.6994 62.201 21.5252C62.3231 21.3478 62.3701 21.1729 62.3392 21.0019C62.3084 20.8309 62.1894 20.6734 61.9805 20.5294L61.3576 20.0994L60.5784 21.2276Z" fill="white"/>
<path d="M61.628 24.9692L64.7671 21.6462L65.7899 22.6125C66.0817 22.8876 66.2816 23.2007 66.3877 23.5497C66.4938 23.8995 66.497 24.2569 66.3974 24.6214C66.2977 24.9859 66.1016 25.3234 65.8098 25.632L65.6651 25.785C65.3733 26.0929 65.0499 26.3076 64.6964 26.4285C64.3415 26.5493 63.9866 26.5667 63.6305 26.4805C63.2737 26.3944 62.9497 26.215 62.6579 25.9412L61.628 24.9692ZM64.9278 22.8477L62.8321 25.0662L63.1631 25.3787C63.4312 25.6326 63.7179 25.7374 64.0252 25.6969C64.3325 25.6557 64.6411 25.4725 64.9516 25.1498L65.1174 24.975C65.4363 24.6368 65.6086 24.3147 65.633 24.0075C65.6574 23.7015 65.5359 23.4212 65.2659 23.1666L64.9278 22.8477Z" fill="white"/>
<path d="M66.9119 28.8976C67.0514 28.7884 67.1208 28.654 67.1182 28.4965C67.1156 28.339 67.0559 28.0992 66.9382 27.7771C66.8199 27.4544 66.7428 27.1864 66.7074 26.9736C66.6084 26.3918 66.7466 25.9546 67.1214 25.6615C67.3162 25.5104 67.5322 25.4294 67.7707 25.4191C68.0086 25.4095 68.2509 25.4744 68.4971 25.6133C68.744 25.7509 68.9664 25.9482 69.1664 26.2041C69.3676 26.4606 69.5006 26.7267 69.5643 27.0006C69.6279 27.2744 69.6189 27.5335 69.5354 27.7771C69.4531 28.0221 69.3033 28.2284 69.0879 28.3969L68.5074 27.6556C68.6733 27.5264 68.7607 27.3741 68.771 27.1986C68.7813 27.0237 68.7125 26.8411 68.5659 26.6534C68.4239 26.4721 68.2754 26.3609 68.1211 26.3198C67.9655 26.2793 67.8247 26.3076 67.7 26.4059C67.5824 26.4979 67.5303 26.6335 67.5438 26.8135C67.5573 26.9929 67.6177 27.2249 67.7276 27.5078C67.9301 28.0298 68.0137 28.4599 67.9764 28.7999C67.9391 29.14 67.781 29.4196 67.5001 29.6389C67.1889 29.8825 66.8521 29.9551 66.4908 29.8587C66.1289 29.7616 65.792 29.5129 65.4802 29.1136C65.2636 28.8359 65.1177 28.5447 65.0405 28.2387C64.964 27.9308 64.9672 27.6486 65.0508 27.3921C65.1337 27.1349 65.2919 26.9151 65.5239 26.7338L66.1057 27.4776C65.7084 27.7887 65.6949 28.1809 66.0659 28.6559C66.2041 28.8321 66.3474 28.942 66.4966 28.9857C66.6444 29.0269 66.7833 28.9986 66.9119 28.8976Z" fill="white"/>
<path d="M30.3554 71.8425L27.6863 70.2013L28.0122 69.6722L30.097 69.1033C30.3869 69.021 30.6164 68.9336 30.7855 68.8448C30.9552 68.7542 31.0787 68.6456 31.1564 68.5196C31.2632 68.3466 31.303 68.1846 31.2767 68.0303C31.2503 67.8786 31.1558 67.752 30.9932 67.6523C30.8189 67.545 30.6441 67.5206 30.4692 67.5791C30.295 67.6369 30.1472 67.7642 30.0263 67.9609L29.251 67.4839C29.3969 67.2473 29.5859 67.0648 29.8206 66.9381C30.0539 66.8121 30.3092 66.7568 30.5843 66.7716C30.8601 66.7871 31.1288 66.8758 31.3904 67.0371C31.7916 67.284 32.0442 67.572 32.1477 67.9005C32.2519 68.2303 32.1953 68.5703 31.9793 68.922C31.8604 69.1142 31.69 69.2794 31.4676 69.4176C31.2445 69.5565 30.9308 69.6838 30.5245 69.8001L29.0652 70.1891L30.7392 71.2189L30.3554 71.8425Z" fill="white"/>
<path d="M34.9063 71.8533C34.6517 72.4318 34.338 72.8221 33.9638 73.0233C33.5897 73.2251 33.1718 73.2245 32.709 73.0213C32.2532 72.8214 31.971 72.5173 31.861 72.1104C31.7518 71.7028 31.818 71.2181 32.0584 70.6537L32.3972 69.8836C32.653 69.2992 32.97 68.9083 33.3448 68.7123C33.7202 68.5156 34.1361 68.5175 34.5926 68.718C35.0483 68.9193 35.3312 69.2214 35.4411 69.6277C35.5511 70.034 35.4848 70.5187 35.2444 71.0831L34.9063 71.8533ZM34.4473 70.6421C34.5996 70.295 34.6633 70.0211 34.6382 69.8212C34.6125 69.6206 34.4987 69.4773 34.2981 69.3886C34.1027 69.3024 33.9253 69.3153 33.7665 69.4246C33.6071 69.5345 33.4547 69.7485 33.3081 70.0661L32.8613 71.0844C32.7115 71.4264 32.646 71.7003 32.6659 71.9073C32.6858 72.1143 32.7983 72.2628 33.0034 72.3521C33.2065 72.4415 33.3885 72.4261 33.5485 72.3065C33.708 72.1869 33.8623 71.9638 34.0108 71.6379L34.4473 70.6421Z" fill="white"/>
<path d="M38.244 74.826L35.229 73.9722L35.398 73.3731L37.2507 72.2603C37.506 72.1022 37.704 71.9562 37.8428 71.8238C37.981 71.6914 38.0704 71.5532 38.1115 71.4105C38.1668 71.2144 38.1604 71.0473 38.0942 70.9071C38.0273 70.7676 37.902 70.6718 37.7187 70.6197C37.5207 70.5645 37.3465 70.5876 37.1942 70.6917C37.0418 70.7952 36.9345 70.9585 36.8715 71.1797L35.9959 70.9315C36.0711 70.6635 36.2048 70.4372 36.3951 70.252C36.586 70.0662 36.8155 69.9441 37.0849 69.885C37.3542 69.8245 37.6371 69.8367 37.9328 69.9203C38.386 70.0489 38.7075 70.2572 38.8965 70.5465C39.0861 70.8338 39.124 71.1765 39.0122 71.5744C38.9505 71.7917 38.8315 71.9974 38.6541 72.1909C38.478 72.385 38.2099 72.5927 37.8505 72.8157L36.552 73.5865L38.4432 74.122L38.244 74.826Z" fill="white"/>
<path d="M42.6269 73.5941C42.5408 74.2209 42.3453 74.6818 42.04 74.9775C41.7346 75.2739 41.3328 75.3877 40.8333 75.3189C40.3396 75.2507 39.9848 75.036 39.7681 74.6734C39.5521 74.3122 39.4827 73.8274 39.5598 73.2187L39.6749 72.3849C39.763 71.7523 39.9597 71.2901 40.2676 70.9989C40.5756 70.707 40.9754 70.5958 41.4685 70.6639C41.9628 70.7308 42.3171 70.9462 42.5337 71.3068C42.7503 71.6674 42.8198 72.1515 42.742 72.7603L42.6269 73.5941ZM41.8536 72.5539C41.9056 72.1785 41.8928 71.8976 41.8131 71.7124C41.7346 71.5273 41.5855 71.4193 41.3688 71.3891C41.1573 71.3595 40.9896 71.4199 40.8668 71.5684C40.744 71.7176 40.6553 71.9644 40.6013 72.3109L40.4496 73.4128C40.3981 73.7824 40.4103 74.0647 40.4875 74.2569C40.5627 74.451 40.7118 74.5622 40.933 74.5931C41.1535 74.6233 41.3232 74.5584 41.4453 74.4002C41.5662 74.2408 41.653 73.9849 41.7063 73.6301L41.8536 72.5539Z" fill="white"/>
<path d="M46.9482 73.6514L43.6966 73.6829L43.6889 72.9417L46.9411 72.9109L46.9482 73.6514Z" fill="white"/>
<path d="M51.2567 74.928L48.1607 75.4121L48.0649 74.7988L49.2831 73.0136C49.4496 72.7622 49.5673 72.5475 49.6386 72.3695C49.7087 72.1907 49.7325 72.0281 49.7093 71.8809C49.6778 71.681 49.6026 71.5305 49.4831 71.4315C49.3635 71.3338 49.2105 71.2991 49.0221 71.3274C48.8196 71.3602 48.6705 71.454 48.576 71.6122C48.4815 71.7703 48.4513 71.9625 48.486 72.1901L47.5866 72.3309C47.5442 72.0557 47.5706 71.7941 47.6663 71.5453C47.7615 71.2978 47.9196 71.0902 48.1388 70.923C48.3587 70.7565 48.6203 70.6492 48.9244 70.6022C49.3905 70.5296 49.7691 70.5849 50.061 70.7675C50.3541 70.9507 50.5316 71.2457 50.5958 71.6533C50.6312 71.8764 50.6087 72.113 50.529 72.363C50.4493 72.6137 50.2937 72.9133 50.0603 73.2656L49.2028 74.5095L51.1448 74.2055L51.2567 74.928Z" fill="white"/>
<path d="M54.7158 71.9813C54.8997 72.5856 54.9158 73.0864 54.7621 73.483C54.6098 73.8803 54.2922 74.1516 53.8094 74.2982C53.333 74.4441 52.9203 74.3972 52.5725 74.1606C52.2248 73.9228 51.958 73.5107 51.7735 72.9257L51.5285 72.1202C51.3428 71.5108 51.328 71.008 51.4855 70.614C51.6423 70.2212 51.9593 69.9518 52.4363 69.8065C52.9133 69.6613 53.3253 69.7069 53.6731 69.9435C54.0203 70.18 54.287 70.5915 54.4715 71.1758L54.7158 71.9813ZM53.5786 71.3603C53.468 70.9978 53.3382 70.7483 53.189 70.614C53.0399 70.4777 52.8593 70.4423 52.6497 70.506C52.4453 70.569 52.318 70.6937 52.2691 70.8795C52.2196 71.0672 52.2428 71.3282 52.3385 71.6663L52.6625 72.7303C52.7712 73.087 52.9004 73.3371 53.0508 73.4811C53.2013 73.6251 53.3832 73.6637 53.5973 73.5988C53.8094 73.5338 53.9373 73.404 53.981 73.2098C54.0248 73.015 53.9958 72.745 53.8955 72.4011L53.5786 71.3603Z" fill="white"/>
<path d="M59.1748 72.0949L56.3237 73.396L56.0659 72.8309L56.7557 70.7821C56.8483 70.4961 56.9042 70.2576 56.9241 70.0666C56.9441 69.8757 56.9235 69.7124 56.8618 69.5774C56.7769 69.3936 56.6638 69.2689 56.523 69.2059C56.3809 69.1422 56.2234 69.1512 56.0505 69.2303C55.864 69.3158 55.7464 69.4469 55.6975 69.6237C55.6487 69.8024 55.6718 69.9953 55.767 70.2049L54.939 70.5829C54.8233 70.3296 54.7783 70.0711 54.8033 69.8069C54.829 69.5421 54.9242 69.2997 55.0907 69.0792C55.2572 68.8587 55.4803 68.6858 55.7605 68.5579C56.1887 68.3618 56.5686 68.3123 56.8991 68.41C57.2308 68.5077 57.4815 68.7443 57.6525 69.1191C57.7463 69.3241 57.7894 69.5588 57.7791 69.8204C57.7701 70.0821 57.7013 70.4144 57.5721 70.8169L57.0816 72.2453L58.8701 71.4282L59.1748 72.0949Z" fill="white"/>
<path d="M61.9923 70.3831L61.2273 70.871L59.347 67.9216L58.6135 68.7881L58.2169 68.1652L59.4486 66.5754L59.5308 66.5227L61.9923 70.3831Z" fill="white"/>
<path fill-rule="evenodd" clip-rule="evenodd" d="M62.7725 66.9746C63.5246 67.6477 65.4538 67.2105 66.6071 66.4674C65.7746 66.1138 64.226 66.038 63.1569 66.7271L62.7725 66.9746L63.0643 66.6242C63.8743 65.6477 63.974 64.1126 63.7136 63.2525C62.8393 64.3048 62.1843 66.1569 62.7725 66.9746ZM64.908 65.048L65.162 64.67C65.8691 63.6182 65.8119 62.0805 65.466 61.25C64.703 62.3859 64.2388 64.2939 64.908 65.048L65.2648 64.7632C66.258 63.9712 67.8067 63.8915 68.6713 64.1595C67.5997 65.0152 65.7245 65.6426 64.908 65.048ZM66.8366 62.9188C67.7096 63.428 69.5115 62.616 70.4919 61.6595C69.6048 61.4788 68.0715 61.7128 67.1638 62.6L66.8366 62.9188C66.0948 62.2348 66.3628 60.2902 67.007 59.0848C67.4358 59.8755 67.6492 61.3997 67.052 62.5164L66.8366 62.9188ZM68.5395 60.6071C69.4595 61.0269 71.1701 60.0395 72.0483 58.989C71.1476 58.8977 69.6459 59.2841 68.8327 60.2574L68.5395 60.6071L68.7125 60.1867C69.1933 59.0154 68.8269 57.5207 68.3197 56.7757C67.8009 58.0395 67.7315 60.0009 68.5395 60.6071ZM69.9995 58.1379C70.958 58.4632 72.56 57.3099 73.3269 56.1772C72.4211 56.1765 70.9663 56.7101 70.2553 57.7599L69.9995 58.1379C69.1342 57.6159 69.0043 55.6571 69.392 54.3476C69.9718 55.038 70.488 56.489 70.1287 57.7007L69.9995 58.1379ZM71.201 55.5343C72.1878 55.7632 73.6644 54.4556 74.3124 53.2522C73.4118 53.3415 72.0174 54.0185 71.417 55.1338L71.201 55.5343C70.2875 55.1017 69.959 53.1667 70.2123 51.8257C70.8596 52.4537 71.5205 53.8455 71.2858 55.0882L71.201 55.5343ZM72.1331 52.826C73.1379 52.9539 74.4744 51.5055 74.9971 50.2442C74.1093 50.423 72.7914 51.2355 72.3073 52.4042L72.1331 52.826C71.1798 52.4865 70.6565 50.5933 70.7728 49.2337C71.48 49.7942 72.279 51.1134 72.1717 52.3721L72.1331 52.826ZM72.7856 50.0366C73.7981 50.0642 74.9816 48.4899 75.3731 47.1817C74.5078 47.4491 73.2793 48.389 72.9161 49.6007L72.7856 50.0366C71.8027 49.7942 71.0904 47.9634 71.0673 46.5999C71.8284 47.0865 72.7573 48.3189 72.7779 49.5821L72.7856 50.0366ZM73.1514 47.1971C74.162 47.1238 75.179 45.4389 75.4368 44.0992C74.6036 44.4515 73.4761 45.509 73.2369 46.751L73.1514 47.1971C72.1485 47.0544 71.2537 45.3039 71.093 43.95C71.8991 44.3582 72.9483 45.4903 73.0974 46.7452L73.1514 47.1971ZM73.2273 44.3364L73.1276 43.8928C72.8518 42.6592 71.6928 41.637 70.8493 41.3117C71.147 42.6425 72.2154 44.294 73.2273 44.3364L73.2671 43.8838C73.3783 42.6238 74.3928 41.4596 75.186 41.0263C75.0665 42.3847 74.225 44.1622 73.2273 44.3364ZM73.0125 41.4827C73.9878 41.2089 74.6448 39.3575 74.6261 37.9933C73.8804 38.5037 72.9894 39.7644 73.0068 41.0276L73.0125 41.4827C72.0013 41.5419 70.7709 40.0055 70.3395 38.7114C71.2125 38.9505 72.4693 39.8518 72.8685 41.0514L73.0125 41.4827ZM72.5085 38.6645C73.451 38.2948 73.917 36.3875 73.7602 35.033C73.0698 35.6154 72.3112 36.9583 72.4565 38.2138L72.5085 38.6645C71.5089 38.8252 70.1287 37.4192 69.5675 36.1747C70.4604 36.3264 71.8027 37.0965 72.3215 38.2498L72.5085 38.6645Z" fill="white"/>
<path fill-rule="evenodd" clip-rule="evenodd" d="M27.277 66.9889C26.5242 67.6626 24.5956 67.2267 23.443 66.4849C24.2761 66.1307 25.8247 66.0535 26.8925 66.7414L27.277 66.9889L26.9857 66.6385C26.1757 65.6627 26.078 64.1275 26.339 63.2674C27.2127 64.3197 27.8665 66.1712 27.277 66.9889ZM25.144 65.0648C24.3269 65.6601 22.4523 65.034 21.3807 64.1796C22.2447 63.9109 23.794 63.9887 24.7865 64.78L25.144 65.0648C25.8132 64.3095 25.351 62.4021 24.5885 61.2675C24.242 62.098 24.1835 63.6357 24.89 64.6868L25.144 65.0648ZM23.2167 62.937C22.3437 63.4467 20.5424 62.6367 19.5633 61.6802C20.4505 61.4989 21.9837 61.7316 22.8907 62.6181L23.2167 62.937C23.9598 62.2523 23.693 60.3083 23.0495 59.1036C22.6201 59.895 22.406 61.4192 23.002 62.5352L23.2167 62.937ZM21.5157 60.6265C20.5951 61.0476 18.8857 60.0608 18.0089 59.0117C18.9095 58.9197 20.4112 59.3048 21.2238 60.2775L21.5157 60.6265L21.3427 60.2061C20.8632 59.0348 21.2315 57.5408 21.7381 56.7951C22.2562 58.0583 22.3237 60.0197 21.5157 60.6265ZM20.0577 58.1586L19.9291 57.7221C19.571 56.5103 20.0879 55.0587 20.6684 54.3683C21.0554 55.6765 20.9236 57.6353 20.0577 58.1586L19.8025 57.7806C19.0927 56.7321 17.638 56.1998 16.7328 56.2005C17.4985 57.3319 19.0992 58.4845 20.0577 58.1586ZM18.8581 55.5557C17.8713 55.7852 16.396 54.4789 15.7486 53.2761C16.6499 53.3648 18.043 54.0405 18.6427 55.1552L18.8581 55.5557C19.7722 55.1217 20.102 53.1867 19.8507 51.8464C19.2033 52.4751 18.5412 53.8669 18.7745 55.1095L18.8581 55.5557ZM17.9285 52.848L17.89 52.3947C17.7839 51.136 18.5836 49.8162 19.292 49.255C19.4065 50.614 18.8819 52.5079 17.9285 52.848L17.7543 52.4269C17.2709 51.2582 15.9543 50.4469 15.0665 50.2688C15.5879 51.5301 16.9237 52.9772 17.9285 52.848ZM17.2786 50.0599L17.2863 49.6054C17.3082 48.3415 18.2384 47.1092 18.9995 46.6212C18.9757 47.9847 18.2622 49.8162 17.2786 50.0599L17.1481 49.624C16.7862 48.4129 15.5577 47.4737 14.693 47.2069C15.0839 48.5145 16.2661 50.0882 17.2786 50.0599ZM16.9154 47.2204C15.9048 47.1477 14.8891 45.4641 14.6326 44.1237C15.4657 44.4754 16.592 45.5322 16.8299 46.7742L16.9154 47.2204C17.9182 47.077 18.8144 45.3259 18.9764 43.972C18.1696 44.3809 17.1198 45.5136 16.9694 46.7685L16.9154 47.2204ZM16.8421 44.3597C15.8437 44.1861 15.0042 42.4092 14.8859 41.0509C15.6785 41.4835 16.6923 42.6471 16.8022 43.9071L16.8421 44.3597C17.854 44.3166 18.9237 42.6645 19.222 41.3331C18.3779 41.659 17.2182 42.6818 16.9411 43.9161L16.8421 44.3597ZM17.0587 41.506C16.0842 41.2328 15.4285 39.382 15.449 38.0179C16.1941 38.5283 17.0838 39.787 17.0658 41.0509L17.0587 41.506C18.07 41.5645 19.3017 40.0268 19.7343 38.7321C18.8613 38.9719 17.6039 39.8745 17.2027 41.074L17.0587 41.506ZM17.5647 38.6871L17.7517 38.2725C18.2718 37.1185 19.6147 36.3471 20.507 36.1947C19.9458 37.4406 18.565 38.8465 17.5647 38.6871L17.6174 38.2365C17.764 36.981 17.0067 35.6387 16.3162 35.0569C16.1587 36.4114 16.6229 38.3187 17.5647 38.6871Z" fill="white"/>
<path fill-rule="evenodd" clip-rule="evenodd" d="M72.1214 36.8633L72.1419 36.4075C72.1998 35.1392 71.3525 33.8406 70.6274 33.2993C70.565 34.6673 71.1596 36.5515 72.1214 36.8633Z" fill="white"/>
<path fill-rule="evenodd" clip-rule="evenodd" d="M17.9883 36.8633L17.9677 36.4075C17.9098 35.1392 18.7571 33.8406 19.4823 33.2993C19.5446 34.6673 18.95 36.5515 17.9883 36.8633Z" fill="white"/>
</svg>
