<svg width="405" height="377" viewBox="0 0 405 377" fill="none" xmlns="http://www.w3.org/2000/svg">
<path fill-rule="evenodd" clip-rule="evenodd" d="M199.93 0.863777C243.74 -0.868422 283.805 20.0352 319.253 43.1262C354.666 66.1943 389.19 93.8671 400.732 131.667C412.03 168.666 395.48 206.585 380.1 242.387C365.502 276.369 346.659 308.796 314.873 331.533C281.989 355.055 241.951 368.863 199.93 371.262C155.797 373.782 108.252 370.103 73.8054 345.298C40.0012 320.956 31.8592 279.63 20.6155 242.139C9.98011 206.675 -1.67449 170.04 10.7512 135.045C23.2217 99.9243 55.7528 75.1646 88.0333 52.2685C121.712 28.3806 156.989 2.56163 199.93 0.863777Z" fill="#D3EFED"/>
<path d="M263.149 218.494C266.545 213.157 264.564 207.779 263.149 205.757L300.448 185.137L335.322 203.028L316.824 300.37L303.481 332.514L244.348 300.37C246.673 289.453 251.989 267.559 254.658 267.316C257.993 267.013 263.149 263.374 265.272 256.703C267.395 250.031 257.994 247.302 254.658 237.295C251.322 227.288 258.903 225.165 263.149 218.494Z" fill="#123252"/>
<path d="M263.149 218.494C266.545 213.157 264.564 207.779 263.149 205.757L300.448 185.137L335.322 203.028L316.824 300.37L303.481 332.514L244.348 300.37C246.673 289.453 251.989 267.559 254.658 267.316C257.993 267.013 263.149 263.374 265.272 256.703C267.395 250.031 257.994 247.302 254.658 237.295C251.322 227.288 258.903 225.165 263.149 218.494Z" fill="url(#paint0_linear)"/>
<path d="M161.977 179.274C173.692 173.809 200.385 160.013 191.234 171.048C180.255 184.287 187.819 222.891 187.819 222.891H158.755C158.755 222.891 158.492 180.899 161.977 179.274Z" fill="#F2C9AA"/>
<path d="M158.777 215.135L143.546 223.386L118.288 350.185H150.527C152.05 355.431 157.127 366.99 165.25 371.254C196.931 374.301 218.221 368.97 224.906 365.924C255.114 334.954 255.368 269.714 254.86 260.067C254.352 250.421 244.96 230.62 227.952 230.113C214.345 229.707 194.697 219.959 186.574 215.135C186.024 216.109 182.766 218.258 174.135 219.07C165.504 219.883 160.3 216.786 158.777 215.135Z" fill="#225588"/>
<path d="M111.831 346.832C178.946 340.003 213.582 278.442 222.511 248.515C221.039 273.83 209.265 325.343 207.204 330.348C179.417 349.422 132.044 349.285 111.831 346.832Z" fill="url(#paint1_linear)"/>
<path d="M117.623 342.344C125.132 346.808 143.245 346.233 151.363 345.388V365.429C138.339 364.449 112.42 362.495 112.93 362.511C83.376 361.623 86.1665 354.393 86.1665 353.759C71.1486 350.106 68.8317 341.16 69.5504 337.143C65.2886 329.634 67.7747 326.827 69.5504 326.362C76.9072 339.173 99.4848 343.105 100.626 340.568C101.768 338.031 101.134 337.777 99.4848 335.875C97.8359 333.972 94.4112 333.592 90.2254 330.294C86.0397 326.996 83.5029 327.503 82.7418 324.332C81.9808 321.161 89.4644 322.303 95.4259 326.362C101.387 330.421 114.42 335.161 115.134 335.906C115.847 336.652 116.947 340.356 117.623 342.344Z" fill="#F2C9AA"/>
<path d="M87.3039 357.001C85.8207 355.784 86.1985 354.453 86.2107 353.736C89.9078 354.412 99.013 356.007 102.997 355.75C102.997 357.085 102.391 358.126 102.088 358.479C98.7214 358.362 91.6345 358.058 87.3039 357.001Z" fill="url(#paint2_linear)"/>
<path fill-rule="evenodd" clip-rule="evenodd" d="M72.373 345.869C69.7549 342.638 69.2265 339.289 69.5279 337.155C76.2957 342.3 89.9825 350.895 99.1092 350.324L98.0478 353.963C92.2037 353.263 80.4142 350.767 72.373 345.869Z" fill="url(#paint3_linear)"/>
<path d="M149.799 354.866C148.516 346.401 150.568 337.424 154.672 336.142C157.466 336.142 158.152 339.345 158.229 341.692C159.82 334.78 169.315 338.661 166.727 343.836C163.906 349.479 167.753 371.538 165.188 374.616C162.623 377.694 161.597 374.872 158.006 374.616C155.134 374.411 154.586 368.374 154.672 365.382C153.988 368.289 152.056 373.898 149.799 373.077C146.977 372.051 151.081 363.33 149.799 354.866Z" fill="#4BA9F8"/>
<path d="M158.226 341.764C156.659 347.171 156.09 361.351 155.458 363.635C155.17 364.678 154.672 365.382 154.672 365.382C153.961 368.222 152.056 373.898 149.799 373.077C148.356 372.552 148.734 369.948 149.278 366.392C149.784 363.083 150.265 359.807 149.799 354.866C148.516 346.401 150.568 337.424 154.672 336.142C157.466 336.142 158.152 339.345 158.229 341.692C158.383 341.025 158.61 340.458 158.893 339.984L158.226 341.764Z" fill="url(#paint4_linear)"/>
<path d="M125.058 156.954C124.01 155.341 134.814 135.8 139.955 127.065L136.649 156.954C133.222 157.626 126.107 158.567 125.058 156.954Z" fill="#E28E8B"/>
<path d="M226.456 164.646C226.456 172.767 218.359 176.817 211.86 176.817C203.048 176.817 195.904 170.234 195.904 162.112C195.904 153.991 203.048 147.407 211.86 147.407C220.671 147.407 226.456 156.525 226.456 164.646Z" fill="#E28E8B"/>
<path fill-rule="evenodd" clip-rule="evenodd" d="M210.454 159.636C207.192 159.681 203.307 161.57 200.808 163.32L199.781 161.854C202.393 160.024 206.638 157.898 210.429 157.845C212.357 157.819 214.246 158.329 215.702 159.772C217.149 161.205 218.043 163.433 218.253 166.584H217.779C217.024 163.874 215.472 162.064 214.442 161.044C213.422 160.033 212.053 159.614 210.454 159.636Z" fill="#490517"/>
<path d="M132.345 182.401C130.37 177.859 139.751 125.87 144.688 100.443H167.399L203.688 107.602L218.253 126.858C212.081 141.34 199.442 170.305 198.257 170.305C146.91 197.707 134.814 188.079 132.345 182.401Z" fill="#F2C9AA"/>
<path fill-rule="evenodd" clip-rule="evenodd" d="M134.656 157.313C132.674 170.352 131.521 180.506 132.345 182.401C134.814 188.079 146.91 197.707 198.257 170.305C199.442 170.305 212.081 141.34 218.253 126.857L214.313 121.649L204.799 119.822C203.523 130.396 198.825 153 190.234 158.826C181.643 164.652 162.627 166.685 154.192 166.973C155.797 164.998 158.265 160.604 155.303 158.826C151.614 156.613 142.778 154.399 134.656 157.313Z" fill="#B91946"/>
<path fill-rule="evenodd" clip-rule="evenodd" d="M209.963 120.877L204.472 119.822C203.36 129.036 199.703 147.197 193.202 156.019L202.02 163.577C205.66 155.889 210.925 143.919 215.083 134.287L209.963 120.877Z" fill="url(#paint5_linear)"/>
<path fill-rule="evenodd" clip-rule="evenodd" d="M127.612 63.4874C129.281 53.1308 136.291 44.2816 142.214 39.2942C136.457 44.1421 130.719 53.8646 129.13 63.7319C128.338 68.6478 128.819 73.8983 131.336 79.2132C133.856 84.5336 139.513 89.4244 146.991 94.6527C147.339 94.8959 146.348 95.9128 146.105 96.2606C145.862 96.6084 145.383 96.6932 145.035 96.45C137.391 91.1054 132.606 85.4847 129.947 79.871C127.286 74.2517 126.775 68.6834 127.612 63.4874Z" fill="#B91946"/>
<path d="M205.661 120.785C211.47 125.192 209.365 143.631 207.32 151.977C212.369 154.439 224.74 156.739 235.957 148.827C249.978 138.938 237.209 128.422 234.83 125.668C232.452 122.913 234.955 115.778 242.717 115.778C250.479 115.778 254.86 93.3691 229.322 88.3616C203.958 83.3882 192.548 71.1292 189.082 67.4055L189.011 67.33C185.615 63.6822 167.729 34.03 145.571 54.5608C123.413 75.0916 139.187 88.1112 139.187 91.2409C140.438 115.402 171.735 114.401 184.129 113.9C196.523 113.399 198.4 115.277 205.661 120.785Z" fill="#B91946"/>
<path fill-rule="evenodd" clip-rule="evenodd" d="M171.769 124.209C167.715 123.653 163.09 124.68 160.054 125.834L159.046 122.778C162.257 121.557 167.784 120.881 172.36 121.51C174.667 121.826 176.682 122.889 178.525 124.399C180.381 125.92 181.554 128.71 182.14 131.668L180.644 131.997C180.134 129.417 178.395 127.447 176.993 126.298C175.579 125.14 173.777 124.485 171.769 124.209Z" fill="#490517"/>
<path fill-rule="evenodd" clip-rule="evenodd" d="M132.767 171.277C136.243 171.839 142.787 170.933 146.93 166.48L146.816 166.295C141.032 169.793 135.539 169.345 133.061 168.61C132.952 169.54 132.854 170.43 132.767 171.277Z" fill="#34020F"/>
<path fill-rule="evenodd" clip-rule="evenodd" d="M163.548 144.771C162.136 143.462 160.999 141.836 160.2 140.326L162.931 138.881C163.607 140.157 164.546 141.483 165.648 142.505C166.758 143.533 167.931 144.162 169.093 144.27C171.222 144.468 176.358 142.611 180.036 134.196L180.527 136.303C176.789 144.855 173.147 147.75 168.807 147.347C166.735 147.154 164.953 146.073 163.548 144.771Z" fill="#490517"/>
<path d="M178.817 151.471C179.312 154.563 173.375 158.645 168.304 156.295C163.233 153.945 176.715 146.647 178.817 151.471Z" fill="#D95A73"/>
<path d="M149.971 315.421C148.928 315.396 147.53 318.576 146.961 320.169H149.412C150.033 318.597 151.013 315.446 149.971 315.421Z" fill="#E7E7E7"/>
<path d="M155.494 318.524C154.476 317.68 152.091 319.786 151.026 320.944L152.639 323.116C153.808 321.761 156.015 318.946 155.494 318.524Z" fill="#E7E7E7"/>
<path d="M155.277 324.885C154.557 324.488 152.66 326.167 151.802 327.057C150.333 328.805 147.979 332.015 150.312 330.873C153.229 329.446 156.177 325.381 155.277 324.885Z" fill="#E7E7E7"/>
<path d="M94.7446 267.114C96.269 267.826 99.2753 268.512 100.588 268.766L92.9662 273.466L85.4715 280.706L76.9606 287.376L69.974 297.22L67.624 304.143C67.624 304.146 67.6239 304.149 67.6236 304.151L66.9888 315.322L71.1808 326.5C67.7722 325.04 60.9931 321.521 61.1455 319.133C61.2979 316.745 65.1046 315.597 66.9888 315.322C61.9585 313.747 60.4468 309.076 60.3198 306.938C60.3833 306.409 60.9295 305.109 62.6063 304.143C64.6873 302.945 67.5822 304.502 67.6236 304.151L67.624 304.143C66.1632 303.699 63.305 298.491 63.305 297.665C63.305 296.839 64.6388 296.268 65.8456 295.95C66.811 295.696 69.0001 296.691 69.974 297.22C69.2542 295.209 67.7764 290.818 67.624 289.344C67.4335 287.503 68.5767 284.708 69.974 284.39C71.0919 284.136 75.0975 286.275 76.9606 287.376C76.6219 287.016 75.6649 285.711 74.5471 283.374C73.4292 281.037 75.0128 277.827 75.9444 276.515C78.2817 276.413 83.2697 279.267 85.4715 280.706C85.4715 279.563 83.5661 273.466 85.4715 271.179C88.2153 270.163 91.6113 272.28 92.9662 273.466C91.1878 271.433 92.8392 266.225 94.7446 267.114Z" fill="#B91946"/>
<path d="M158.832 265.724C155.678 269.424 160.601 274.999 163.456 277.324C162.547 278.183 162.229 280.417 168.233 282.479C175.738 285.056 185.535 280.167 186.428 278.158C187.034 276.793 185.897 276.085 184.836 275.807C186.124 275.428 188.02 273.078 186.428 271.259C184.836 269.439 175.738 274.443 175.056 273.078C174.525 271.107 180.59 265.724 178.771 263.222C176.041 260.72 172.782 268.832 167.551 271.789C161.865 271.638 161.334 263.829 158.832 265.724Z" fill="#FFC0A9"/>
<path d="M184.836 275.788C180.583 277.232 176.837 278.148 174.909 278.3L178.829 282.33C182.803 281.2 185.944 279.245 186.431 278.148C186.9 277.092 186.431 276.224 184.836 275.788Z" fill="url(#paint6_linear)"/>
<path d="M111.071 251.169C109.719 254.464 107.205 263.981 99.1828 268.579C98.7495 268.855 98.2898 269.146 97.807 269.453C88.5443 275.327 70.7747 286.595 68.004 299.124C67.9648 299.301 67.9252 299.48 67.8854 299.659C66.0939 307.743 64.1431 317.839 69.6514 326.88C69.55 326.907 69.7561 326.838 69.6514 326.88C77.0025 339.682 98.4672 342.863 100.533 340.74C102.274 338.951 100.514 336.627 99.8129 336.115C99.2064 335.49 98.451 334.986 98.2303 334.855C97.5317 334.44 97.4055 334.271 95.9749 333.69C94.3273 332.866 92.4864 332.089 90.308 330.373C88.6652 329.078 87.1618 328.231 86.0341 327.681C84.3473 326.686 83.7693 326.516 82.9309 324.845C82.1704 321.676 89.5503 322.825 95.5072 326.88C99.6208 329.681 107.029 332.791 111.543 334.697C113.684 335.601 114.474 335.848 115.279 336.386C115.932 336.972 117.011 340.864 117.687 342.85C119.853 344.138 123.972 344.688 127.408 345.251C132.348 344.331 134.785 343.144 136.699 341.836C143.627 338.456 156.547 329.669 152.795 321.557C150.387 316.868 142.022 321.304 139.36 323.332C141.895 318.938 145.216 309.162 138.22 305.207C136.699 304.574 135.558 304.32 133.277 304.447C134.544 303.01 137.535 298.541 139.36 292.153C145.613 294.476 160.171 295.803 168.384 282.52C168.384 281.811 165.048 278.745 163.4 277.267C162.513 277.858 159.36 278.617 153.682 277.197C152.429 276.526 151.366 275.823 150.297 275.117C148.338 273.822 146.361 272.515 143.163 271.367C144.134 268.494 144.988 261.253 140.628 255.271C136.268 249.288 118.802 249.394 111.071 251.169Z" fill="#23AEA3"/>
<path fill-rule="evenodd" clip-rule="evenodd" d="M129.026 344.915C122.165 341.25 120.749 331.389 120.9 326.904C118.456 329.936 113.53 331.881 107.725 333.082C109.009 333.638 110.221 334.15 111.285 334.599L111.516 334.697C112.091 334.94 112.569 335.135 112.975 335.301C114.083 335.755 114.664 335.992 115.253 336.386C115.746 336.83 116.484 339.165 117.107 341.136C117.308 341.77 117.496 342.367 117.661 342.85C119.6 344.003 123.105 344.564 126.284 345.074C126.655 345.133 127.022 345.192 127.382 345.251C127.963 345.142 128.51 345.03 129.026 344.915ZM97.5538 334.453C90.4632 335.001 83.3796 334.847 78.597 334.485L79.3352 336.029C88.2618 341.128 99.0706 342.216 100.507 340.74C102.247 338.951 100.488 336.627 99.7864 336.115C99.1799 335.49 98.4245 334.986 98.2038 334.855C98.0503 334.764 97.9245 334.685 97.8064 334.61C97.7206 334.556 97.639 334.505 97.5538 334.453Z" fill="url(#paint7_linear)"/>
<path fill-rule="evenodd" clip-rule="evenodd" d="M137.926 253.107L130.226 255.571L121.887 262.319C122.847 261.586 126.178 261.212 131.818 265.578C136.107 268.898 140.667 270.763 143.639 271.633C143.475 271.571 143.308 271.51 143.138 271.448C144.109 268.575 144.963 261.334 140.603 255.352C139.966 254.478 139.05 253.735 137.926 253.107Z" fill="url(#paint8_linear)"/>
<path d="M139.363 292.15C136.002 291.038 129.233 288.661 128.566 287.751C127.732 286.614 117.346 291.845 113.935 313.451C116.649 310.252 123.888 304.517 133.279 304.445C134.871 302.607 137.703 297.961 139.363 292.15C139.31 292.13 139.415 292.169 139.363 292.15Z" fill="url(#paint9_linear)"/>
<path d="M152.001 224.89C149.545 224.834 141.534 217.214 145.023 221.401C145.79 224.797 147.814 231.868 149.768 231.589C152.211 231.24 155.072 224.96 152.001 224.89Z" fill="#FFA4A0"/>
<path d="M116.583 203.605C117.453 203.503 119.506 205.825 120.424 206.998H112.422L104.932 209.111L94.817 212.504L91.2962 220.25L88.6714 221.594L87.3911 233.181H87.9033L89.6317 243.744C92.8752 245.045 98.3764 248.212 94.433 250.465C89.5037 253.282 86.4949 249.377 86.1108 247.649C85.8035 246.266 88.3301 244.469 89.6317 243.744C84.4464 242.463 82.0138 238.494 83.038 236.894C83.8574 235.614 86.2815 233.885 87.3911 233.181C86.1108 233.053 82.0777 227.868 81.4376 227.163C80.7974 226.459 80.2853 224.603 81.4376 223.066C83.3324 220.813 87.0497 221.146 88.6714 221.594C86.943 220.25 86.879 215.128 86.943 214.296C87.007 213.464 87.2631 213.272 89.1196 212.055C90.6047 211.082 93.5367 211.949 94.817 212.504C95.0731 210.903 95.7389 207.498 96.3534 206.678C96.968 205.859 98.3166 205.782 98.9141 205.846C101.167 205.334 103.865 207.809 104.932 209.111C104.932 206.23 105.188 205.078 107.62 204.181C109.208 203.618 111.483 205.825 112.422 206.998C112.742 205.974 115.494 203.733 116.583 203.605Z" fill="#B91946"/>
<path d="M111.993 247.014C111.993 247.739 110.18 258.86 102.202 261.278C97.0954 262.825 93.0147 258.039 93.0147 253.299C93.0147 248.559 97.4617 244.112 102.202 244.112C106.942 244.112 111.993 242.274 111.993 247.014Z" fill="#FFA4A0"/>
<path fill-rule="evenodd" clip-rule="evenodd" d="M98.1931 254.017C98.2837 253.801 98.5365 253.121 99.2782 252.554C99.9324 252.054 100.729 251.724 101.232 251.699C101.752 251.672 103.085 251.811 103.587 252.108C104.607 252.712 105.309 253.457 105.715 254.321L106.696 253.837C106.205 252.791 105.232 251.374 103.861 250.562C103.166 250.151 102.33 249.873 101.373 249.922C100.399 249.971 99.3661 250.355 98.324 251.152C97.3694 251.881 96.6674 252.666 96.3079 253.522C95.9292 254.423 96.0066 255.219 96.2939 255.836C96.5681 256.426 97.0354 256.869 97.4997 257.191C97.972 257.519 98.4977 257.759 98.9652 257.915L99.6255 256.469C99.2768 256.353 98.7692 256.025 98.4354 255.794C98.0936 255.557 97.9432 254.906 97.9432 254.906C97.9714 254.574 98.1217 254.187 98.1931 254.017Z" fill="#E28E8B"/>
<path d="M149.987 232.324C152.953 249.907 139.734 262.382 122.03 259.962C105.473 256.269 99.3592 238.093 99.3592 222.899C108.912 207.742 101.169 207.806 116.363 207.806C128.144 205.832 146.421 211.181 149.987 232.324Z" fill="#FFC0A9"/>
<path fill-rule="evenodd" clip-rule="evenodd" d="M132.109 219.521C129.929 214.627 126.122 209.71 125.025 208.634L127.091 208.003C128.596 209.48 131.861 213.36 132.276 219.521H132.109Z" fill="#123252"/>
<path fill-rule="evenodd" clip-rule="evenodd" d="M136.756 213.863C132.074 211.26 126.076 209.615 124.552 209.413L125.826 207.669C127.916 207.945 132.857 209.086 136.89 213.762L136.756 213.863Z" fill="#123252"/>
<path d="M126.84 208.032C127.81 230.593 112.969 243.758 105.489 247.549L97.4248 223.649L126.84 208.032Z" fill="#123252"/>
<path d="M106.347 208.494C112.98 203.8 120.964 205.466 127.086 207.89C111.212 215.435 108.274 237.457 105.489 247.529C99.0573 244.657 94.8856 248.183 93.5916 250.395C92.6562 249.779 90.5814 248.265 89.765 247.143C88.7445 245.74 87.9793 237.194 87.0864 234.005C86.1935 230.816 86.9588 224.949 87.0864 223.418C87.2139 221.887 89.1272 221.377 89.765 220.357C90.4028 219.336 89.3823 218.571 91.5507 214.744C93.2855 211.683 102.138 209.302 106.347 208.494Z" fill="#23AEA3"/>
<path d="M96.6818 284.524C94.9377 283.232 89.318 285.105 89.8347 287.172C90.3515 289.239 97.7153 286.268 96.6818 284.524Z" fill="#225588"/>
<path d="M98.329 292.372C97.4569 291.726 93.8396 294.019 94.97 295.214C96.1004 296.409 99.1687 293.567 98.329 292.372Z" fill="#225588"/>
<path d="M90.513 295.214C89.5764 294.827 86.9926 298.218 87.7354 298.799C88.4783 299.381 91.6757 296.151 90.513 295.214Z" fill="#225588"/>
<path d="M97.5861 225.872C95.8421 225.807 94.2918 230.07 96.1005 230.458C97.9091 230.846 99.4594 227.034 97.5861 225.872Z" fill="#225588"/>
<path d="M102.366 233.042C101.139 232.59 99.7824 234.98 101.074 235.69C102.366 236.401 103.27 234.334 102.366 233.042Z" fill="#225588"/>
<path d="M97.5861 236.724C96.1005 237.111 96.4234 239.308 97.0048 239.372C97.5861 239.437 98.4905 237.757 97.5861 236.724Z" fill="#225588"/>
<path d="M129.349 225.871C127.262 225.926 124.625 234.165 126.987 234.275C129.349 234.385 131.711 226.256 129.349 225.871Z" fill="#430415"/>
<path fill-rule="evenodd" clip-rule="evenodd" d="M135.623 240.36C134.687 240.291 133.72 240.047 132.905 239.757L133.426 238.291C134.148 238.548 134.976 238.752 135.738 238.808C136.523 238.867 137.123 238.762 137.492 238.527C137.791 238.337 138.445 237.885 138.584 237.051C138.546 236.206 138.017 234.689 136.861 233.105V232.549C138.326 233.661 139.517 235.935 139.571 237.126C139.628 238.368 139.182 239.297 138.326 239.841C137.54 240.34 136.537 240.429 135.623 240.36Z" fill="#30030F"/>
<path d="M138.666 243.966C136.923 242.981 128.28 248.439 130.934 251.32C133.587 254.201 142.154 246.089 138.666 243.966Z" fill="#FFA4A0"/>
<path d="M150.272 240.049C150.2 240.663 150.106 241.267 149.99 241.86C148.515 242.94 147.149 243.35 145.994 243.434C145.204 243.492 144.535 243.395 144.026 243.277C143.772 243.218 143.558 243.154 143.395 243.103L143.109 243.018C143.064 243.004 143.166 243.034 143.131 243.023C143.146 243.027 143.104 243.015 143.131 243.023C143.117 243.019 143.109 243.018 143.109 243.018L143.333 241.826C143.453 241.848 143.592 241.891 143.754 241.941C144.232 242.088 144.91 242.297 145.906 242.224C147.042 242.142 148.556 241.66 150.272 240.049Z" fill="#30030F"/>
<path d="M313.639 222.739C307.817 221.405 300.499 205.707 297.567 198.025L311.82 183.924C312.73 205.909 327.437 208.183 327.589 211.367C327.74 214.551 320.917 224.407 313.639 222.739Z" fill="#FCCBA6"/>
<path d="M255.416 279.446C255.416 282.964 258.625 295.221 260.192 300.882C260.192 307.917 254.418 308.785 251.436 308.33C248.353 305.399 241.255 299.036 238.586 297.338C235.251 295.215 226.457 277.475 227.366 277.02C228.276 276.565 234.038 284.298 234.644 285.36C235.129 286.209 239.698 290.161 241.922 292.031C237.828 282.681 229.822 263.859 230.55 263.374C231.278 262.889 232.572 264.385 233.128 265.194C232.218 262.919 230.702 258.371 231.915 258.371C233.431 258.371 241.012 269.287 241.922 270.046C242.832 270.804 251.626 286.118 251.171 284.298C250.807 282.843 250.514 277.93 250.413 275.656C249.351 275.049 246.622 267.316 246.167 265.194C245.803 263.495 246.925 261.959 247.532 261.403C250.16 265.952 255.416 275.929 255.416 279.446Z" fill="#FCCBA6"/>
<path d="M241.236 290.485C237.001 280.756 229.85 263.834 230.54 263.374C231.044 263.038 231.821 263.654 232.436 264.334C235.269 268.037 239.327 275.853 240.547 278.233C241.82 280.72 245.373 286.851 246.99 289.605L241.236 290.485Z" fill="url(#paint10_linear)"/>
<path fill-rule="evenodd" clip-rule="evenodd" d="M392.727 211.694C388.987 221.701 384.728 231.614 380.535 241.373L380.1 242.387C365.502 276.369 346.659 308.796 314.873 331.533C305.752 338.057 296.081 343.834 285.97 348.827C270.404 335.859 257.59 318.702 251.171 308.103C255.416 307.011 258.903 302.594 260.116 300.522C269.578 313.622 292.564 314.471 302.874 313.258C298.932 309.569 290.077 299.279 286.195 287.634C282.314 275.989 302.571 239.418 313.184 222.588C319.977 221.738 323.394 216.573 324.253 214.097L347.148 204.544L392.727 211.694Z" fill="#23AEA3"/>
<path fill-rule="evenodd" clip-rule="evenodd" d="M374.35 255.166C367.035 270.65 358.575 285.581 348.11 299.153C350.723 272.731 348.503 244.665 345.935 228.173C359.48 209.27 384.144 188.084 374.44 254.555C374.41 254.759 374.38 254.963 374.35 255.166Z" fill="url(#paint11_linear)"/>
<path fill-rule="evenodd" clip-rule="evenodd" d="M302.873 313.496C302.902 313.495 302.931 313.491 302.958 313.486C305.202 313.062 306.521 311.894 306.9 311.364C308.77 306.006 312.844 291.016 314.178 273.913C315.512 256.81 325.247 241.01 329.947 235.249C313.93 249.324 310.731 262.817 308.149 273.707C307.505 276.425 306.899 278.98 306.142 281.342C303.759 288.777 295.477 292.892 289.169 294.73C293.547 303.406 299.814 310.544 302.958 313.486C302.93 313.49 302.901 313.493 302.873 313.496Z" fill="url(#paint12_linear)"/>
<path d="M240.254 184.985C246.319 179.526 247.178 169.418 246.925 162.241C251.878 171.49 260.147 190.14 253.597 190.747C247.047 191.353 241.972 187.158 240.254 184.985Z" fill="#E28E8B"/>
<path d="M277.401 213.338C252.899 214.794 245.763 170.884 245.257 148.747L281.95 131.31L314.094 139.801L310.1 164.787C313.62 159.764 327.702 159.295 328.953 173.31C330.166 186.895 317.935 186.248 311.668 184.227C310.253 190.494 301.419 205.09 277.401 213.338Z" fill="#FCCBA6"/>
<path fill-rule="evenodd" clip-rule="evenodd" d="M381.112 83.7386C376.942 87.605 375.826 90.2242 369.55 97.9533C359.18 110.726 346.261 113.554 340.489 113.11L334.507 109.714C341.036 110.396 357.895 107.777 367.418 96.0483C373.576 88.4634 377.052 84.5021 380.05 82.4618C383.03 80.4335 385.567 80.2957 388.968 80.1109C389.24 80.0961 389.517 80.0811 389.801 80.0647C389.588 80.077 389.097 80.105 389.801 80.0647C386.194 80.269 385.105 80.0361 381.112 83.7386Z" fill="#123252"/>
<path fill-rule="evenodd" clip-rule="evenodd" d="M396.741 92.8599C394.988 92.6889 388.86 94.4606 381.112 97.0434C376.564 98.5595 372.897 102.818 370.271 105.572C369.843 106.021 368.203 108.136 367.769 108.605C365.613 110.936 365.267 111.561 362.22 113.726C359.181 115.314 354.897 116.532 351.092 116.603C347.222 116.675 341.638 116.37 339.34 115.996L341.83 111.623C343.94 111.966 347.467 112.321 351.092 112.254C354.781 112.184 358.281 111.679 360.535 110.501C363.641 108.877 364.759 107.302 366.906 104.992C367.374 104.49 367.858 103.969 368.369 103.433C371.156 100.511 374.523 97.4432 379.899 95.6511C388.029 92.9409 394.383 92.6298 396.741 92.8599Z" fill="#123252"/>
<path fill-rule="evenodd" clip-rule="evenodd" d="M386.863 103.26C392.862 112.068 397.628 121.501 400.732 131.667C411.924 168.317 395.79 205.869 380.535 241.373L380.1 242.387C378.516 246.073 376.883 249.74 375.189 253.379C373.801 253.704 372.768 253.863 372.166 253.822C365.607 253.37 363.434 247.604 361.558 242.626C360.918 240.93 360.313 239.325 359.581 238.053C358.399 236 356.246 234.993 353.867 233.881C350.449 232.283 346.564 230.467 344.419 225.013C340.78 215.764 337.141 213.035 332.441 212.884C328.68 212.762 325.415 213.642 324.253 214.097C319.805 209.093 311.071 195.974 311.678 184.208C311.886 184.416 327.361 189.344 328.953 176.418C330.446 164.301 314.473 158.223 309.925 169.065C307.764 175.66 302.495 176.684 298.78 175.433C303.177 175.584 311.031 172.218 307.271 157.541C298.197 164.428 290.653 156.67 288.015 151.931C284.197 146.48 282.779 144.485 276.643 145.032C273.224 145.337 270.743 147.47 268.206 149.651C265.061 152.354 261.832 155.13 256.629 154.585C247.228 153.599 241.391 145.26 245.712 139.119C246.334 138.236 245.441 137.022 244.287 135.455C242.768 133.391 240.797 130.714 241.239 127.368C241.248 127.304 241.257 127.235 241.266 127.163C241.701 123.799 243.271 111.653 262.12 110.614C262.12 98.5598 269.128 93.974 291.881 93.5563C294.869 92.7264 296.592 90.8501 298.253 89.041C300.386 86.7184 302.417 84.5065 306.892 84.7622C311.61 84.9592 321.688 87.9947 324.253 98.5598C324.892 98.6841 325.468 98.7502 325.994 98.8107C327.715 99.0085 328.916 99.1465 330.135 101.062C330.786 102.084 330.707 103.157 330.63 104.213C330.518 105.742 330.409 107.236 332.517 108.491C334.486 109.665 335.367 109.726 336.466 109.802C337.354 109.864 338.385 109.936 340.249 110.614C341.732 111.153 342.726 112.66 343.855 114.372C345.9 117.475 348.388 121.249 355.033 121.152C359.913 121.08 365.61 116.71 371.374 112.288C376.673 108.222 382.03 104.112 386.863 103.26Z" fill="#123252"/>
<path fill-rule="evenodd" clip-rule="evenodd" d="M270.919 169.249C269.331 169.703 267.916 171.364 267.112 172.949L265.12 170.505C267.319 168.42 267.692 167.648 270.253 166.917C271.592 166.534 273.064 166.632 274.564 167.423C276.032 168.196 277.951 170.545 277.951 173.253L276.795 172.949C275.528 171.02 274.415 170.086 273.433 169.569C272.484 169.069 271.655 169.039 270.919 169.249Z" fill="#081829"/>
<path d="M271.716 175.357C268.683 175.721 269.492 171.061 270.275 168.686C271.059 168.483 272.762 168.2 273.308 168.686C273.99 169.292 274.142 174.902 271.716 175.357Z" fill="#081829"/>
<path fill-rule="evenodd" clip-rule="evenodd" d="M275.051 161.218C272.661 160.24 269.023 160.594 267.66 160.573L267.735 155.722C269.657 155.751 272.635 156.199 275.625 157.422C278.62 158.647 283.391 161.913 284.452 165.653L282.86 166.335C279.145 162.507 277.436 162.194 275.051 161.218Z" fill="#081829"/>
<path fill-rule="evenodd" clip-rule="evenodd" d="M257.54 200.997C257.116 200.311 256.724 199.618 256.326 198.891C257.479 199.153 262.505 198.479 265.385 193.703V195.25C263.176 199.511 259.901 200.857 257.54 200.997Z" fill="#06121E"/>
<path d="M270.882 183.772C272.095 186.35 282.254 181.953 281.344 178.011C280.434 174.068 268.911 179.072 270.882 183.772Z" fill="#D95A73"/>
<path fill-rule="evenodd" clip-rule="evenodd" d="M322.177 172.642C321.946 172.561 321.239 172.271 320.311 172.563C319.492 172.82 318.719 173.356 318.378 173.841C318.025 174.341 317.285 175.791 317.203 176.531C317.035 178.039 317.185 179.339 317.619 180.436L316.605 181.034C316.079 179.706 315.564 177.597 315.788 175.572C315.902 174.545 316.212 173.485 316.862 172.563C317.524 171.624 318.491 170.894 319.795 170.485C320.99 170.109 322.068 170.032 322.983 170.354C323.948 170.694 324.537 171.407 324.849 172.189C325.147 172.936 325.204 173.759 325.166 174.482C325.127 175.218 324.984 175.938 324.811 176.531L323.23 176.039C323.359 175.596 323.42 174.825 323.447 174.305C323.476 173.772 323.049 173.101 323.049 173.101C322.765 172.864 322.359 172.706 322.177 172.642Z" fill="#E28E8B"/>
<defs>
<linearGradient id="paint0_linear" x1="289.835" y1="185.137" x2="271.64" y2="291.879" gradientUnits="userSpaceOnUse">
<stop offset="0.297779" stop-color="#011222"/>
<stop offset="1" stop-color="#123252" stop-opacity="0"/>
</linearGradient>
<linearGradient id="paint1_linear" x1="206.027" y1="334.469" x2="181.889" y2="313.863" gradientUnits="userSpaceOnUse">
<stop stop-color="#123252"/>
<stop offset="1" stop-color="#225588"/>
</linearGradient>
<linearGradient id="paint2_linear" x1="96.0602" y1="349.193" x2="98.673" y2="356.513" gradientUnits="userSpaceOnUse">
<stop stop-color="#E9AB7C"/>
<stop offset="1" stop-color="#F2C9AA"/>
</linearGradient>
<linearGradient id="paint3_linear" x1="84.2806" y1="337.155" x2="82.1108" y2="348.738" gradientUnits="userSpaceOnUse">
<stop stop-color="#E9AB7C"/>
<stop offset="1" stop-color="#F2C9AA"/>
</linearGradient>
<linearGradient id="paint4_linear" x1="153.843" y1="356.319" x2="160.803" y2="345.706" gradientUnits="userSpaceOnUse">
<stop stop-color="#4BA9F8"/>
<stop offset="1" stop-color="#1B7DD0"/>
</linearGradient>
<linearGradient id="paint5_linear" x1="204.142" y1="119.822" x2="189.157" y2="156.935" gradientUnits="userSpaceOnUse">
<stop offset="0.552142" stop-color="#840C2D"/>
<stop offset="1" stop-color="#B91946"/>
</linearGradient>
<linearGradient id="paint6_linear" x1="177.861" y1="275.011" x2="175.094" y2="279.059" gradientUnits="userSpaceOnUse">
<stop stop-color="#F2AE95"/>
<stop offset="1" stop-color="#FFC0A9"/>
</linearGradient>
<linearGradient id="paint7_linear" x1="101.822" y1="329.785" x2="106.371" y2="350.709" gradientUnits="userSpaceOnUse">
<stop stop-color="#23AEA3"/>
<stop offset="1" stop-color="#227D76"/>
</linearGradient>
<linearGradient id="paint8_linear" x1="124.414" y1="260.645" x2="130.922" y2="275.393" gradientUnits="userSpaceOnUse">
<stop stop-color="#23AEA3"/>
<stop offset="1" stop-color="#227D76"/>
</linearGradient>
<linearGradient id="paint9_linear" x1="120.472" y1="299.764" x2="133.21" y2="307.276" gradientUnits="userSpaceOnUse">
<stop stop-color="#23AEA3"/>
<stop offset="1" stop-color="#227D76"/>
</linearGradient>
<linearGradient id="paint10_linear" x1="243.59" y1="272.775" x2="240.405" y2="290.485" gradientUnits="userSpaceOnUse">
<stop stop-color="#EBAC7C"/>
<stop offset="0.945959" stop-color="#FCCBA6" stop-opacity="0.76"/>
</linearGradient>
<linearGradient id="paint11_linear" x1="298.629" y1="219.404" x2="381.836" y2="248.707" gradientUnits="userSpaceOnUse">
<stop offset="0.0544238" stop-color="#0C2422"/>
<stop offset="1" stop-color="#23AEA3"/>
</linearGradient>
<linearGradient id="paint12_linear" x1="335.625" y1="274.373" x2="316.217" y2="263.374" gradientUnits="userSpaceOnUse">
<stop offset="0.368016" stop-color="#227D76"/>
<stop offset="1" stop-color="#23AEA3"/>
</linearGradient>
</defs>
</svg>
