
<svg width="73" height="14" viewBox="0 0 73 14" fill="none" xmlns="http://www.w3.org/2000/svg">
<g clip-path="url(#clip0_3:26)">
<path d="M7.75 0.712249L9.67358 4.85428L9.74388 5.00566L9.90958 5.02574L14.4433 5.57522L11.0984 8.68461L10.9762 8.79825L11.0083 8.96204L11.8867 13.4437L7.89585 11.2233L7.75 11.1422L7.60415 11.2233L3.61331 13.4437L4.49173 8.96204L4.52383 8.79825L4.40158 8.68461L1.0567 5.57522L5.59042 5.02574L5.75612 5.00566L5.82642 4.85428L7.75 0.712249Z" stroke="#9B9B9B" stroke-width="0.6"/>
<path d="M22.25 0.712249L24.1736 4.85428L24.2439 5.00566L24.4096 5.02574L28.9433 5.57522L25.5984 8.68461L25.4762 8.79825L25.5083 8.96204L26.3867 13.4437L22.3959 11.2233L22.25 11.1422L22.1041 11.2233L18.1133 13.4437L18.9917 8.96204L19.0238 8.79825L18.9016 8.68461L15.5567 5.57522L20.0904 5.02574L20.2561 5.00566L20.3264 4.85428L22.25 0.712249Z" stroke="#9B9B9B" stroke-width="0.6"/>
<path d="M36.75 0.712249L38.6736 4.85428L38.7439 5.00566L38.9096 5.02574L43.4433 5.57522L40.0984 8.68461L39.9762 8.79825L40.0083 8.96204L40.8867 13.4437L36.8959 11.2233L36.75 11.1422L36.6041 11.2233L32.6133 13.4437L33.4917 8.96204L33.5238 8.79825L33.4016 8.68461L30.0567 5.57522L34.5904 5.02574L34.7561 5.00566L34.8264 4.85428L36.75 0.712249Z" stroke="#9B9B9B" stroke-width="0.6"/>
<path d="M51.25 0.712249L53.1736 4.85428L53.2439 5.00566L53.4096 5.02574L57.9433 5.57522L54.5984 8.68461L54.4762 8.79825L54.5083 8.96204L55.3867 13.4437L51.3959 11.2233L51.25 11.1422L51.1041 11.2233L47.1133 13.4437L47.9917 8.96204L48.0238 8.79825L47.9016 8.68461L44.5567 5.57522L49.0904 5.02574L49.2561 5.00566L49.3264 4.85428L51.25 0.712249Z" stroke="#9B9B9B" stroke-width="0.6"/>
<path d="M65.75 0.712249L67.6736 4.85428L67.7439 5.00566L67.9096 5.02574L72.4433 5.57522L69.0984 8.68461L68.9762 8.79825L69.0083 8.96204L69.8867 13.4437L65.8959 11.2233L65.75 11.1422L65.6041 11.2233L61.6133 13.4437L62.4917 8.96204L62.5238 8.79825L62.4016 8.68461L59.0567 5.57522L63.5904 5.02574L63.7561 5.00566L63.8264 4.85428L65.75 0.712249Z" stroke="#9B9B9B" stroke-width="0.6"/>
</g>
<defs>
<clipPath id="clip0_3:26">
<rect width="73" height="14" fill="white"/>
</clipPath>
</defs>
</svg>
